<svg id="Layer_5" data-name="Layer 5" xmlns="http://www.w3.org/2000/svg" viewBox="0 0 714.9 714.9"><title>boston-seal</title><path d="M497.82,72.64,485,66.36l-15.28,31,12.78,6.29a17.78,17.78,0,0,0,7.89,1.84A17.18,17.18,0,0,0,506,96,17.53,17.53,0,0,0,497.82,72.64Zm-3,6.07a11,11,0,0,1,5.54,6.21,10.3,10.3,0,0,1-.44,8.08,10.47,10.47,0,0,1-9.52,5.78,11,11,0,0,1-4.9-1.15l-6.72-3.31,9.32-18.92Z" transform="translate(-1.3 -1)" style="fill:#091f2f"/><polygon points="523.28 94.39 537.58 103.75 541.3 98.13 523 86.13 521.34 85.03 503.46 112.32 502.37 113.97 521.14 126.28 522.8 127.38 526.5 121.73 511.72 112.04 515.89 105.68 528.61 114 532.32 108.38 519.59 100.03 523.28 94.39" style="fill:#091f2f"/><path d="M560.5,139.33,573.36,124l-5.17-4.33L555.33,135c-3.25,3.85-7.14,4.27-10.86,1.14a7.59,7.59,0,0,1-3.09-5.13c-.13-1.81.66-3.75,2.35-5.76l11.6-13.79,1.26-1.52-5.16-4.32-12.87,15.28c-2.88,3.44-4.21,7-3.95,10.64s2.18,7,5.52,9.77a14.57,14.57,0,0,0,9.41,3.81C553.53,145.11,557.32,143.11,560.5,139.33Z" transform="translate(-1.3 -1)" style="fill:#091f2f"/><path d="M593.94,148.84a18.25,18.25,0,0,0-4.48-8.47c-2.83-3-6.16-4.65-9.38-4.65a8.19,8.19,0,0,0-5.72,2.24c-5.44,5.15-2.38,11.27-.35,15.32,2.41,4.83,2.58,6.19,1,7.69-1.38,1.31-4.06.34-6.39-2.13a10.21,10.21,0,0,1-2.8-7.09l.18-3.07-6.81-.15-.1,2.92a17.55,17.55,0,0,0,4.62,12c3,3.16,6.43,4.9,9.72,4.9a8.89,8.89,0,0,0,6.2-2.49c5.64-5.25,2.53-11.47.47-15.58-2.48-4.95-2.45-6.14-1.08-7.44,1.09-1,3.49-.05,5.56,2.14a11.27,11.27,0,0,1,2.79,5.07l.55,3,6.56-1.35Z" transform="translate(-1.3 -1)" style="fill:#091f2f"/><path d="M53,306.89a10.89,10.89,0,0,0,2.34.28c5.72,0,8.39-4.74,10.54-8.56,1.78-3.16,3.09-5.23,5-5.23a3.6,3.6,0,0,1,.85.12,2.44,2.44,0,0,1,1.8,1.76,8.93,8.93,0,0,1,0,4.73,10.23,10.23,0,0,1-4.31,6.28l-2.61,1.56,3.63,5.75L72.72,312a17.58,17.58,0,0,0,7.38-10.57,14.93,14.93,0,0,0-.49-9.13,8.88,8.88,0,0,0-6.44-5.41,11.78,11.78,0,0,0-2.5-.29c-5.8,0-8.5,4.78-10.66,8.62-1.92,3.42-3.2,5.15-4.85,5.15a3,3,0,0,1-.7-.09c-1.51-.34-2.05-2.66-1.35-5.79a11.38,11.38,0,0,1,2.63-5.16l2.17-2.11-4.81-4.71L51,284.59A18.2,18.2,0,0,0,46.52,293C44.94,300.11,47.54,305.67,53,306.89Z" transform="translate(-1.3 -1)" style="fill:#091f2f"/><polygon points="85.9 274.17 52.82 263.96 50.83 270.42 83.88 280.61 85.9 274.17" style="fill:#091f2f"/><path d="M72.89,262.16a16.78,16.78,0,0,0,6.35,1.24,17.84,17.84,0,0,0,16.68-23.74l-1.07-3.14-6.13,2.89.89,2.53A11.15,11.15,0,0,1,79.26,256.7a10.24,10.24,0,0,1-9.53-6.51,11.13,11.13,0,0,1,0-8.39A11,11,0,0,1,75,236l2.48-1.25-2.59-6.18L72.09,230a17.88,17.88,0,0,0-8.54,9.26A17.51,17.51,0,0,0,72.89,262.16Z" transform="translate(-1.3 -1)" style="fill:#091f2f"/><path d="M98.19,230.33c4.9,0,9-2.66,11.77-7.7,2.11-3.8,2.68-7.63,1.64-11.09s-3.6-6.4-7.45-8.54l-17.47-9.7-3.29,5.88,17.47,9.72c2.3,1.28,3.73,2.82,4.26,4.56a7.61,7.61,0,0,1-1.06,5.89c-2.38,4.3-6.14,5.26-10.55,2.81L76,212.44l-3.28,5.91,17.47,9.7A16.46,16.46,0,0,0,98.19,230.33Z" transform="translate(-1.3 -1)" style="fill:#091f2f"/><polygon points="100.86 181.44 123.59 197.53 127.5 192.03 104.76 175.93 110.45 167.9 104.94 164 89.67 185.57 95.18 189.48 100.86 181.44" style="fill:#091f2f"/><path d="M152.09,132.93a11.7,11.7,0,0,0-8.27-3.63c-3.53,0-7.07,1.7-10.24,4.91l-8.91,9,24.63,24.3,4.74-4.81-7-6.9,4.18-4.23C157.23,145.49,157.57,138.33,152.09,132.93Zm-2.89,8.55c0,1.65-1,3.51-2.81,5.38l-4.16,4.23-8-7.91,4.18-4.23c3.22-3.26,6.37-3.77,9-1.22A5.36,5.36,0,0,1,149.2,141.48Z" transform="translate(-1.3 -1)" style="fill:#091f2f"/><path d="M156.82,113l9.54,36.83,5.83-4.74-2.42-9.28,10.53-8.57,8.63,4.23,5.8-4.72-34.27-16.72Zm16.81,11-5.75,4.67-2.26-8.58Z" transform="translate(-1.3 -1)" style="fill:#091f2f"/><polygon points="197.04 90.46 193.33 84.82 171.3 99.45 175.02 105.09 183.23 99.64 198.64 122.84 204.27 119.1 188.85 95.9 197.04 90.46" style="fill:#091f2f"/><path d="M231.38,80.1c-2.2-4.24-5.86-6.57-10.31-6.57a16.69,16.69,0,0,0-7.7,2.09l-11.26,5.85L218,112.15l6-3.08-4.54-8.75,5.28-2.74c.37-.19.71-.39,1-.58l10.95,5.44,7.44-3.85-13.06-6.48A11.68,11.68,0,0,0,231.38,80.1Zm-5.53,7.61a8.42,8.42,0,0,1-4.18,3.89l-5.27,2.73-5.19-10,5.28-2.74c4.13-2.15,7.18-1.69,8.9,1.61A5.17,5.17,0,0,1,225.85,87.71Z" transform="translate(-1.3 -1)" style="fill:#091f2f"/><polygon points="234.99 63.84 248.07 95.89 254.32 93.34 241.25 61.31 234.99 63.84" style="fill:#091f2f"/><path d="M282.54,66a9.75,9.75,0,0,0,.15-6.48,9.48,9.48,0,0,0-9.51-7,15.89,15.89,0,0,0-4.61.73L254.7,57.54l9.48,31.22.58,1.89,13.86-4.21c3.72-1.13,6.48-2.88,8.19-5.2A10.26,10.26,0,0,0,282.54,66Zm-19.41-4,7.41-2.25a9.19,9.19,0,0,1,2.61-.44A3.17,3.17,0,0,1,276,64a6.64,6.64,0,0,1-3.54,2.12l-7.4,2.25ZM276.66,80l-7.41,2.24L267,74.83l7.41-2.24A12.72,12.72,0,0,1,278,72c2.65,0,3.37,1.26,3.71,2.36C282,75.26,282.89,78.09,276.66,80Z" transform="translate(-1.3 -1)" style="fill:#091f2f"/><path d="M320.08,42.3l-6.67,1.12,3.32,19.71c.43,2.59.13,4.66-.91,6.16a7.55,7.55,0,0,1-5.24,2.85c-4.93.78-7.94-1.41-8.79-6.49l-3.31-19.74-6.66,1.16,3.31,19.69c1.29,7.71,6.31,12.31,13.42,12.31a17.93,17.93,0,0,0,3.13-.28c4.31-.72,7.66-2.66,9.71-5.62s2.74-6.73,2-11.16Z" transform="translate(-1.3 -1)" style="fill:#091f2f"/><path d="M344.5,54.27c-5.38-1.34-6.27-2.15-6.36-4a1.57,1.57,0,0,1,.45-1.22c.82-.91,2.56-1.5,4.71-1.6h.26A12.24,12.24,0,0,1,349,48.59l2.6,1.51,3.28-5.85-2.53-1.47a18,18,0,0,0-8.5-2.12c-.29,0-.58,0-.85,0a14.32,14.32,0,0,0-8.45,2.86,8.43,8.43,0,0,0-3.2,7.05c.37,7.47,7,9.12,11.4,10.22,5.24,1.31,6.39,2.06,6.48,4.26a2.32,2.32,0,0,1-1,2.08,8.52,8.52,0,0,1-4.68,1.39h-.26a10.64,10.64,0,0,1-7-2.49l-2.19-2.11-4.58,5,2.17,2a17.38,17.38,0,0,0,11.39,4.34l.75,0a15,15,0,0,0,8.91-3A9,9,0,0,0,356,64.76C355.7,57.05,349,55.38,344.5,54.27Z" transform="translate(-1.3 -1)" style="fill:#091f2f"/><path d="M393.75,49.13a12.59,12.59,0,0,1,1.47.09,11.25,11.25,0,0,1,5.39,2.09L403,53.24,407.11,48l-2.23-1.84A18.31,18.31,0,0,0,396,42.5a20.25,20.25,0,0,0-2.28-.13c-6,0-10.27,3.13-10.84,8-.88,7.42,5.39,10.16,9.55,12,4.95,2.16,6,3.09,5.68,5.27s-3.35,2.57-4.73,2.57a14,14,0,0,1-1.54-.1,10.28,10.28,0,0,1-6.69-3.66L383.34,64,378,68.16l1.8,2.33a17.49,17.49,0,0,0,11.28,6.28,22,22,0,0,0,2.35.14c6.31,0,10.79-3.34,11.39-8.5,1-7.64-5.4-10.41-9.62-12.25-5.08-2.22-5.83-3.16-5.6-5S392.83,49.13,393.75,49.13Z" transform="translate(-1.3 -1)" style="fill:#091f2f"/><polygon points="409.96 78.81 416.58 80.19 423.45 46.28 416.84 44.9 409.96 78.81" style="fill:#091f2f"/><polygon points="429.44 54.25 438.91 56.96 431.26 83.76 437.75 85.6 445.4 58.82 454.87 61.52 456.72 55.02 431.3 47.77 429.44 54.25" style="fill:#091f2f"/><path d="M611.51,105.7A357.45,357.45,0,1,0,106,611.21,357.45,357.45,0,1,0,611.51,105.7ZM597.76,597.45a338,338,0,1,1-478-478,338,338,0,1,1,478,478Z" transform="translate(-1.3 -1)" style="fill:#091f2f"/><polygon points="627.66 190.42 609.53 202.31 618.48 178.68 619.03 177.26 615.89 172.49 588.63 190.38 586.96 191.46 590.67 197.12 608.8 185.22 599.85 208.86 599.3 210.28 602.44 215.05 631.36 196.07 627.66 190.42" style="fill:#091f2f"/><path d="M638,245.71a17.5,17.5,0,0,0,7.86-23.44A17.83,17.83,0,0,0,630,212.18a16.63,16.63,0,0,0-7.34,1.69,17,17,0,0,0-8.75,10,17.85,17.85,0,0,0,16.8,23.5A16.71,16.71,0,0,0,638,245.71Zm-17.21-11.32a10.77,10.77,0,0,1,4.76-14.45,9.91,9.91,0,0,1,4.39-1,11,11,0,0,1,9.84,6.26,10.77,10.77,0,0,1-4.71,14.44,10.18,10.18,0,0,1-4.42,1A11,11,0,0,1,620.82,234.39Z" transform="translate(-1.3 -1)" style="fill:#091f2f"/><path d="M643.45,282.09a9.58,9.58,0,0,0,6.23-5.83,9.9,9.9,0,0,0,6.47,0,9.36,9.36,0,0,0,6.06-5.62,12.88,12.88,0,0,0-.26-8.69l-4.62-13.73-32.8,11L629.15,273c2.11,6.27,6,9.73,10.84,9.73A11,11,0,0,0,643.45,282.09Zm9.63-25.35,2.47,7.33a7.72,7.72,0,0,1,.46,3.54,2.61,2.61,0,0,1-2,2.21,4.1,4.1,0,0,1-1.23.22c-1.84,0-2.93-2.09-3.52-3.85l-2.47-7.33ZM635.55,270.8l-2.46-7.34,7.32-2.46,2.47,7.34c.94,2.81,1.45,6.37-1.54,7.38a3.68,3.68,0,0,1-1.18.21C637.66,275.93,636.2,272.71,635.55,270.8Z" transform="translate(-1.3 -1)" style="fill:#091f2f"/><polygon points="668.89 290.41 667.33 283.83 635.6 291.44 633.68 291.89 635.23 298.47 666 291.09 668.89 290.41" style="fill:#091f2f"/><path d="M674.49,313.74c-1-6.55-4.75-10.62-9.69-10.62a9.67,9.67,0,0,0-1.41.11c-7.38,1.18-8.32,7.95-8.94,12.44-.74,5.35-1.36,6.57-3.55,6.9-1.85.32-3.51-1.89-4-5.37a10.26,10.26,0,0,1,1.7-7.43l1.86-2.41-5.5-4-1.75,2.37a17.53,17.53,0,0,0-3,12.54c1.09,6.85,5,11.1,10.31,11.1a9,9,0,0,0,1.47-.12c7.61-1.15,8.56-8,9.18-12.58.76-5.49,1.46-6.46,3.34-6.76,1.51-.26,2.87,1.82,3.36,4.9a11.3,11.3,0,0,1-.57,5.77l-1.2,2.76,6.17,2.61,1.17-2.68A18.1,18.1,0,0,0,674.49,313.74Z" transform="translate(-1.3 -1)" style="fill:#091f2f"/><path d="M45.83,369.09l4.65-4.85-1.73-2A10.93,10.93,0,0,1,46.21,355a10.72,10.72,0,0,1,10.57-10.51,10,10,0,0,1,7.2,3.26,11,11,0,0,1,.13,14.78l-1.87,2.05,4.63,4.77L69,367a17.5,17.5,0,0,0,4.57-11.5,17.22,17.22,0,0,0-16.67-17.71h-.28a17.3,17.3,0,0,0-17,17.05,17.69,17.69,0,0,0,4.16,11.72Z" transform="translate(-1.3 -1)" style="fill:#091f2f"/><polygon points="73.01 380.18 72.62 373.49 40.66 375.48 38.68 375.6 39.09 382.29 71.04 380.29 73.01 380.18" style="fill:#091f2f"/><polygon points="76.42 408.93 52.94 402.88 73.83 390.57 72.84 383.32 41.14 402.11 41.8 406.88 77.43 416.22 76.42 408.93" style="fill:#091f2f"/><polygon points="78.52 419.18 45.3 426.52 46.78 433.06 79.96 425.72 78.52 419.18" style="fill:#091f2f"/><polygon points="81.85 457.3 88.26 455.36 80.83 430.48 74.42 432.37 77.17 441.63 51.01 449.44 52.93 455.85 79.09 448.04 81.85 457.3" style="fill:#091f2f"/><path d="M93.73,466.86l-37.34-1.79L59.15,472l9.4.43,4.94,12.3L67,491.57l2.78,6.88,25.68-27.26Zm-9.28,6.26-5.89,6.25-2.66-6.63Z" transform="translate(-1.3 -1)" style="fill:#091f2f"/><polygon points="104.32 507.02 110.3 503.99 98.46 480.85 92.49 483.88 96.89 492.47 72.59 504.9 75.62 510.87 99.93 498.44 104.32 507.02" style="fill:#091f2f"/><rect x="84.43" y="517.31" width="34" height="6.7" transform="translate(-256.42 126.91) rotate(-31.21)" style="fill:#091f2f"/><path d="M128.43,530.73c-2.68-3.73-6.2-5.88-9.65-5.88a8,8,0,0,0-4.75,1.54c-6,4.29-3.82,10.65-2.39,14.87,1.79,5.27,1.59,6.39-.06,7.55-1.49,1.09-3.94-.22-5.86-2.9a10,10,0,0,1-1.76-7.24l.56-2.95-6.64-1.13-.5,2.89a17.1,17.1,0,0,0,2.9,12.32c2.83,4,6.39,6.14,10,6.14a8.7,8.7,0,0,0,5.17-1.68c6.19-4.37,4-10.82,2.52-15.1-1.73-5.11-1.55-6.26-.09-7.31a1.47,1.47,0,0,1,.89-.28c1,0,2.57.81,4.18,3a11.14,11.14,0,0,1,2,5.3l.16,3,6.61-.45-.13-2.88A17.85,17.85,0,0,0,128.43,530.73Z" transform="translate(-1.3 -1)" style="fill:#091f2f"/><path d="M577,546.41l16.59,33.5,4.7-5.79-4.2-8.42,8.36-10.3,9.13,2.34,4.69-5.76-36.33-9.19Zm18.31,7.17-4.5,5.54L587,551.47Z" transform="translate(-1.3 -1)" style="fill:#091f2f"/><path d="M619,540.79a4.25,4.25,0,0,0-5.56,1,4,4,0,1,0,7.2,1.54A3.91,3.91,0,0,0,619,540.79Z" transform="translate(-1.3 -1)" style="fill:#091f2f"/><path d="M628.25,499.6a16.7,16.7,0,0,0-8.34-2.23,17.44,17.44,0,0,0-15,8.77l-7,12.15,29.47,17,7-12.15a17.5,17.5,0,0,0,1.8-13.08A16.72,16.72,0,0,0,628.25,499.6ZM607,515.81l3.64-6.33a10.74,10.74,0,0,1,9.25-5.41,10,10,0,0,1,5,1.33,10.49,10.49,0,0,1,3.61,14.36l-3.64,6.33Z" transform="translate(-1.3 -1)" style="fill:#091f2f"/><path d="M647,496.7a3.92,3.92,0,0,0-2-2.25,4.19,4.19,0,0,0-5.32,1.91,4,4,0,1,0,7.23,3.39A3.94,3.94,0,0,0,647,496.7Z" transform="translate(-1.3 -1)" style="fill:#091f2f"/><polygon points="623.97 462.19 630.31 464.35 632.26 458.65 658.1 467.45 660.25 461.11 628.07 450.15 623.97 462.19" style="fill:#091f2f"/><path d="M661.59,425a10.57,10.57,0,0,0-9.84,1.76,10.42,10.42,0,0,0-6.23-4.92,10.93,10.93,0,0,0-3.15-.49c-5.2,0-9.37,4.05-11.15,10.84a17.09,17.09,0,0,0,.1,10.28,10.4,10.4,0,0,0,6.94,6.46,9.93,9.93,0,0,0,7.73-.69,11.13,11.13,0,0,0,7.48,7.06,12.74,12.74,0,0,0,3.32.55h.31c5.85,0,10.37-4.44,12.41-12.17,1.3-5,1.06-9.37-.69-12.78A11.73,11.73,0,0,0,661.59,425Zm-19.12,2.39.08,1.5a3.75,3.75,0,0,1,1,.17,3.48,3.48,0,0,1,2.39,2.17,9.11,9.11,0,0,1-.07,5.43c-1,3.93-3,5.87-5.49,5.1-3.52-1.07-2.71-5.68-2.21-7.61.87-3.3,2.47-5.27,4.28-5.27v-1.49Zm20.06,14.34c-.64,2.45-2.23,6.56-5.65,6.56a5.09,5.09,0,0,1-1.45-.23,4,4,0,0,1-2.75-2.66,11.77,11.77,0,0,1,.17-6.73c1.09-4.19,3.11-6.69,5.39-6.69v-1.49l.11,1.5a4.38,4.38,0,0,1,1.14.19,4.54,4.54,0,0,1,3.14,2.86A11.29,11.29,0,0,1,662.53,441.71Z" transform="translate(-1.3 -1)" style="fill:#091f2f"/><path d="M667.22,410.19l-5.84-7.09c-3.14-4.11-6.79-6.75-10-7.24-5.75-.84-10,2.91-11,9.32a14.81,14.81,0,0,0,2.95,11l1.75,2.3,5.4-4-1.83-2.38a8.12,8.12,0,0,1-1.64-5.92c.23-1.51.92-4.09,3.4-3.7,1.14.17,3.41,1.72,5.74,4.74l11,13.43,5.15.78,3.65-23.95-6.63-1Z" transform="translate(-1.3 -1)" style="fill:#091f2f"/><path d="M671.35,366.39l-.81,13.83-6.46-6.51c-3.52-3.81-7.39-6.09-10.59-6.27-5.66-.45-9.78,3.8-10.15,10.28a14.85,14.85,0,0,0,3.94,10.65l2,2.13,5-4.44-2-2.21a8.09,8.09,0,0,1-2.18-5.74c.15-2.65,1.09-4,2.79-4h.24c1.2.07,3.69,1.53,6.17,4.2l11.66,11.79.53.54,5.21.32,1.41-24.2Z" transform="translate(-1.3 -1)" style="fill:#091f2f"/><path d="M129.08,435.2a10.46,10.46,0,0,1-2.48,1.14,17.86,17.86,0,0,1-5.45.85,18.18,18.18,0,0,1-5.45-.84,10.75,10.75,0,0,1-2.47-1.15,10.5,10.5,0,0,1,2.47-1.14,17.86,17.86,0,0,1,5.45-.85,18.17,18.17,0,0,1,5.45.85A10.46,10.46,0,0,1,129.08,435.2Z" transform="translate(-1.3 -1)" style="fill:#091f2f"/><path d="M160.3,435.2a21.91,21.91,0,0,1-3.93,1.14,43.82,43.82,0,0,1-8.65.85,44.67,44.67,0,0,1-8.66-.84,22.72,22.72,0,0,1-3.93-1.15,22.25,22.25,0,0,1,3.93-1.14,43.84,43.84,0,0,1,8.66-.85,44.58,44.58,0,0,1,8.65.85A21.91,21.91,0,0,1,160.3,435.2Z" transform="translate(-1.3 -1)" style="fill:#091f2f"/><path d="M205.51,435.2a51.24,51.24,0,0,1-6.26,1.14,109.93,109.93,0,0,1-13.78.85,112,112,0,0,1-13.78-.84,52.78,52.78,0,0,1-6.26-1.15,51.74,51.74,0,0,1,6.26-1.14,109.93,109.93,0,0,1,13.78-.85,111.87,111.87,0,0,1,13.78.85A51.24,51.24,0,0,1,205.51,435.2Z" transform="translate(-1.3 -1)" style="fill:#091f2f"/><path d="M292.21,435.2s-1.29.18-3.55.39-5.47.53-9.34.75c-7.74.51-18.05.84-28.36.85s-20.63-.34-28.36-.84c-3.87-.23-7.09-.59-9.35-.76s-3.54-.39-3.54-.39,1.29-.18,3.54-.39,5.48-.53,9.35-.75c7.73-.51,18.05-.84,28.36-.85s20.62.35,28.36.85c3.87.23,7.09.58,9.34.76S292.21,435.2,292.21,435.2Z" transform="translate(-1.3 -1)" style="fill:#091f2f"/><path d="M350,435.2a27,27,0,0,1-4.44,1.14,55.69,55.69,0,0,1-9.77.85,56.78,56.78,0,0,1-9.78-.84,28,28,0,0,1-4.44-1.15,27.42,27.42,0,0,1,4.44-1.14,55.73,55.73,0,0,1,9.78-.85,56.67,56.67,0,0,1,9.77.85A27,27,0,0,1,350,435.2Z" transform="translate(-1.3 -1)" style="fill:#091f2f"/><path d="M390.09,435.2a36.06,36.06,0,0,1-5.17,1.14,75.14,75.14,0,0,1-11.38.85,76.53,76.53,0,0,1-11.37-.84A36.35,36.35,0,0,1,357,435.2a35.64,35.64,0,0,1,5.17-1.14,75.1,75.1,0,0,1,11.37-.85,76.46,76.46,0,0,1,11.38.85A36.06,36.06,0,0,1,390.09,435.2Z" transform="translate(-1.3 -1)" style="fill:#091f2f"/><path d="M420.38,435.2a9.19,9.19,0,0,1-2.25,1.14,15,15,0,0,1-5,.85,15.23,15.23,0,0,1-5-.84,9.41,9.41,0,0,1-2.25-1.15,9.19,9.19,0,0,1,2.25-1.14,15,15,0,0,1,5-.85,15.23,15.23,0,0,1,5,.85A9.19,9.19,0,0,1,420.38,435.2Z" transform="translate(-1.3 -1)" style="fill:#091f2f"/><path d="M440.43,435.2a10.94,10.94,0,0,1-2.55,1.14,18.85,18.85,0,0,1-5.61.85,19.19,19.19,0,0,1-5.61-.84,11.19,11.19,0,0,1-2.55-1.15,10.94,10.94,0,0,1,2.55-1.14,18.85,18.85,0,0,1,5.61-.85,19.18,19.18,0,0,1,5.61.85A10.94,10.94,0,0,1,440.43,435.2Z" transform="translate(-1.3 -1)" style="fill:#091f2f"/><path d="M530.38,435.2l-2.15.26-1.07.11-.5,0c.18-.06,0,.09-.25.31l-.21.17-.23-.17c-.34-.24-.48-.31-.27-.21l-.6.06-1.2.1-2.39.21c-1.59.16-3.19.23-4.78.34-3.19.22-6.38.32-9.57.47q-9.57.32-19.14.29a350.38,350.38,0,0,1-38.27-2,350.36,350.36,0,0,1,38.27-2q9.57,0,19.14.28c3.19.15,6.38.25,9.57.47,1.59.12,3.19.18,4.78.34l2.39.21,1.2.11.6.05a.84.84,0,0,1,.71.43H526s.07-.18.61-.32a4.66,4.66,0,0,1,.58,0l1.07.11Z" transform="translate(-1.3 -1)" style="fill:#091f2f"/><path d="M589.9,435.2a5,5,0,0,1-1.21,1.14,4.8,4.8,0,0,1-2.65.85,4.91,4.91,0,0,1-2.66-.84,5.21,5.21,0,0,1-1.2-1.15,5.06,5.06,0,0,1,1.2-1.14,4.57,4.57,0,0,1,5.31,0A5,5,0,0,1,589.9,435.2Z" transform="translate(-1.3 -1)" style="fill:#091f2f"/><path d="M409.75,435.52a7.9,7.9,0,0,1-2.05,1.09,12.12,12.12,0,0,1-8.89-.21,8.38,8.38,0,0,1-2-1.2,8.12,8.12,0,0,1,2.05-1.09,12.18,12.18,0,0,1,4.47-.74,12.35,12.35,0,0,1,4.43,1A8,8,0,0,1,409.75,435.52Z" transform="translate(-1.3 -1)" style="fill:#091f2f"/><path d="M310.39,435.2a7.06,7.06,0,0,1-1.79,1.14,9.62,9.62,0,0,1-3.92.85,9.79,9.79,0,0,1-3.93-.84A7.06,7.06,0,0,1,299,435.2a6.88,6.88,0,0,1,1.78-1.14,9.63,9.63,0,0,1,3.93-.85,9.78,9.78,0,0,1,3.92.85A7.06,7.06,0,0,1,310.39,435.2Z" transform="translate(-1.3 -1)" style="fill:#091f2f"/><path d="M575.59,435.2a41.72,41.72,0,0,1-5.6,1.14,88.3,88.3,0,0,1-12.34.85,90.1,90.1,0,0,1-12.34-.84,42.56,42.56,0,0,1-5.6-1.15,41.72,41.72,0,0,1,5.6-1.14,88.41,88.41,0,0,1,12.34-.85,89.85,89.85,0,0,1,12.34.85A41.72,41.72,0,0,1,575.59,435.2Z" transform="translate(-1.3 -1)" style="fill:#091f2f"/><path d="M392.47,455.73a11.28,11.28,0,0,1-2.53,1.14,19.43,19.43,0,0,1-5.59.85,18.75,18.75,0,0,1-5.58-.85,10.77,10.77,0,0,1-2.53-1.14,10.53,10.53,0,0,1,2.53-1.15,18.75,18.75,0,0,1,5.58-.85,19.08,19.08,0,0,1,5.59.86A10.77,10.77,0,0,1,392.47,455.73Z" transform="translate(-1.3 -1)" style="fill:#091f2f"/><path d="M344.78,455.73a21.56,21.56,0,0,1-3.76,1.14,41.62,41.62,0,0,1-8.28.85,40.19,40.19,0,0,1-8.28-.85,20.23,20.23,0,0,1-3.76-1.14,19.74,19.74,0,0,1,3.76-1.15,40.19,40.19,0,0,1,8.28-.85,40.84,40.84,0,0,1,8.28.86A20.56,20.56,0,0,1,344.78,455.73Z" transform="translate(-1.3 -1)" style="fill:#091f2f"/><path d="M166.83,455.73a14.72,14.72,0,0,1-3,1.14,26.46,26.46,0,0,1-6.57.85,25.55,25.55,0,0,1-6.57-.85,13.81,13.81,0,0,1-3-1.14,13.49,13.49,0,0,1,3-1.15,25.55,25.55,0,0,1,6.57-.85,26,26,0,0,1,6.57.86A14,14,0,0,1,166.83,455.73Z" transform="translate(-1.3 -1)" style="fill:#091f2f"/><path d="M547.28,455.73a13,13,0,0,1-2.78,1.14,23.2,23.2,0,0,1-6.13.85,22.34,22.34,0,0,1-6.13-.85,12.62,12.62,0,0,1-2.79-1.14,12.33,12.33,0,0,1,2.79-1.15,22.34,22.34,0,0,1,6.13-.85,22.77,22.77,0,0,1,6.13.86A12.39,12.39,0,0,1,547.28,455.73Z" transform="translate(-1.3 -1)" style="fill:#091f2f"/><path d="M576,455.73a18.28,18.28,0,0,1-3.41,1.14,34.36,34.36,0,0,1-7.5.85,33,33,0,0,1-7.5-.85,17.13,17.13,0,0,1-3.41-1.14,16.72,16.72,0,0,1,3.41-1.15,33,33,0,0,1,7.5-.85,33.72,33.72,0,0,1,7.5.86A17.44,17.44,0,0,1,576,455.73Z" transform="translate(-1.3 -1)" style="fill:#091f2f"/><path d="M151,455.73a6.21,6.21,0,0,1-1.53,1.14,7.52,7.52,0,0,1-3.36.85,7.28,7.28,0,0,1-3.37-.85,5.94,5.94,0,0,1-1.53-1.14,5.85,5.85,0,0,1,1.53-1.15,7.28,7.28,0,0,1,3.37-.85,7.4,7.4,0,0,1,3.36.86A5.94,5.94,0,0,1,151,455.73Z" transform="translate(-1.3 -1)" style="fill:#091f2f"/><path d="M184.54,455.73a13,13,0,0,1-2.77,1.14,22.82,22.82,0,0,1-6.09.85,22.1,22.1,0,0,1-6.09-.85,12.2,12.2,0,0,1-2.76-1.14,11.93,11.93,0,0,1,2.76-1.15,22.1,22.1,0,0,1,6.09-.85,22.4,22.4,0,0,1,6.09.86A12.43,12.43,0,0,1,184.54,455.73Z" transform="translate(-1.3 -1)" style="fill:#091f2f"/><path d="M282,455.73c-5.38.53-10.76.95-16.15,1.23s-10.77.48-16.15.59-10.77.15-16.15.15l-8.08-.06-4-.09-2-.05-1,0h-.64s-.34.09.48-.1c.57-.26.55-.39.54-.34a1.85,1.85,0,0,1-.89.53l-.51.17-.39-.17c-1.12-.49-1-.74-.68-.37a1.62,1.62,0,0,0,.7.26h-.4l-.88,0-1.77-.07-3.53-.14-7.06-.35c-4.71-.3-9.42-.62-14.13-1.12,4.71-.51,9.42-.83,14.13-1.13l7.06-.35,3.53-.14,1.77-.07.88,0h.55l.26,0a2,2,0,0,1,.81.29c.45.45.63.35-.34-.09H217a1.36,1.36,0,0,0-.69.38,1.9,1.9,0,0,1,.73-.49c.91-.22.63-.08.73-.12h.64l1,0,2-.05,4-.09,8.08-.06c5.38,0,10.77,0,16.15.15s10.77.31,16.15.59S276.57,455.19,282,455.73Z" transform="translate(-1.3 -1)" style="fill:#091f2f"/><path d="M312.25,455.73a25.35,25.35,0,0,1-4.15,1.14,50.41,50.41,0,0,1-9.13.85,48.7,48.7,0,0,1-9.14-.85,24.18,24.18,0,0,1-4.15-1.14,23.58,23.58,0,0,1,4.15-1.15,48.7,48.7,0,0,1,9.14-.85,49.46,49.46,0,0,1,9.13.86A24.18,24.18,0,0,1,312.25,455.73Z" transform="translate(-1.3 -1)" style="fill:#091f2f"/><path d="M364.92,455.73a36.78,36.78,0,0,1-5.1,1.14,75.7,75.7,0,0,1-11.21.85,73.11,73.11,0,0,1-11.22-.85,35.08,35.08,0,0,1-5.1-1.14,34.18,34.18,0,0,1,5.1-1.15,73.11,73.11,0,0,1,11.22-.85,74.26,74.26,0,0,1,11.21.86A35.08,35.08,0,0,1,364.92,455.73Z" transform="translate(-1.3 -1)" style="fill:#091f2f"/><path d="M435.77,455.73s-3.06.66-7.65,1.14-10.71.83-16.82.85a163.56,163.56,0,0,1-16.83-.85,75.5,75.5,0,0,1-7.64-1.14,73.49,73.49,0,0,1,7.64-1.15,163.56,163.56,0,0,1,16.83-.85,166.13,166.13,0,0,1,16.82.86A75.45,75.45,0,0,1,435.77,455.73Z" transform="translate(-1.3 -1)" style="fill:#091f2f"/><path d="M494.5,455.73s-3.44.66-8.6,1.14-12,.83-18.9.85-13.75-.34-18.91-.85-8.59-1.14-8.59-1.14,3.43-.68,8.59-1.15,12-.84,18.91-.85,13.75.35,18.9.86S494.5,455.73,494.5,455.73Z" transform="translate(-1.3 -1)" style="fill:#091f2f"/><path d="M525.72,455.73a27.47,27.47,0,0,1-4.37,1.14,55.7,55.7,0,0,1-9.61.85,53.87,53.87,0,0,1-9.61-.85,26.58,26.58,0,0,1-4.37-1.14,25.91,25.91,0,0,1,4.37-1.15,53.87,53.87,0,0,1,9.61-.85,54.65,54.65,0,0,1,9.61.86A26.21,26.21,0,0,1,525.72,455.73Z" transform="translate(-1.3 -1)" style="fill:#091f2f"/><path d="M547.63,455.73a5.28,5.28,0,0,1-1.17,1.14,4.66,4.66,0,0,1-2.56.85,4.54,4.54,0,0,1-2.56-.85,4.88,4.88,0,0,1-1.16-1.14,4.82,4.82,0,0,1,1.16-1.15,4.54,4.54,0,0,1,2.56-.85,4.59,4.59,0,0,1,2.56.86A5,5,0,0,1,547.63,455.73Z" transform="translate(-1.3 -1)" style="fill:#091f2f"/><path d="M143.54,416.19a18.9,18.9,0,0,1-3.6,1.14,37.41,37.41,0,0,1-7.92.86,36.81,36.81,0,0,1-7.92-.85,18.44,18.44,0,0,1-3.6-1.15,18.9,18.9,0,0,1,3.6-1.14,36.81,36.81,0,0,1,7.92-.85,38.13,38.13,0,0,1,7.92.85A19.81,19.81,0,0,1,143.54,416.19Z" transform="translate(-1.3 -1)" style="fill:#091f2f"/><path d="M582,416.19a6.23,6.23,0,0,1-1.6,1.14,8,8,0,0,1-3.51.86,7.88,7.88,0,0,1-3.52-.85,6.13,6.13,0,0,1-1.6-1.15,6.23,6.23,0,0,1,1.6-1.14,7.88,7.88,0,0,1,3.52-.85,8.11,8.11,0,0,1,3.51.85A6.52,6.52,0,0,1,582,416.19Z" transform="translate(-1.3 -1)" style="fill:#091f2f"/><path d="M603.71,416.19a8.84,8.84,0,0,1-2.22,1.14,14.72,14.72,0,0,1-4.89.86,14.46,14.46,0,0,1-4.88-.85,8.66,8.66,0,0,1-2.22-1.15,8.84,8.84,0,0,1,2.22-1.14,14.46,14.46,0,0,1,4.88-.85,15,15,0,0,1,4.89.85A9.25,9.25,0,0,1,603.71,416.19Z" transform="translate(-1.3 -1)" style="fill:#091f2f"/><path d="M116,416.19a7.27,7.27,0,0,1-1.84,1.14,10.36,10.36,0,0,1-4,.86,10.18,10.18,0,0,1-4.05-.85,6.92,6.92,0,0,1-1.84-1.15,7,7,0,0,1,1.84-1.14,10.18,10.18,0,0,1,4.05-.85,10.54,10.54,0,0,1,4,.85A7.62,7.62,0,0,1,116,416.19Z" transform="translate(-1.3 -1)" style="fill:#091f2f"/><path d="M156.42,416.19a16.53,16.53,0,0,1-3.33,1.14,32.2,32.2,0,0,1-7.33.86,31.55,31.55,0,0,1-7.33-.85,16.39,16.39,0,0,1-3.34-1.15,16.79,16.79,0,0,1,3.34-1.14,31.55,31.55,0,0,1,7.33-.85,32.81,32.81,0,0,1,7.33.85A17.32,17.32,0,0,1,156.42,416.19Z" transform="translate(-1.3 -1)" style="fill:#091f2f"/><path d="M310.19,416.19c-4.76.35-9.52.53-14.28.77s-9.52.36-14.28.51l-14.28.41-14.29.14-14.28.14c-4.76.07-9.52-.06-14.28-.08l-14.28-.14-7.14-.09-3.58-.11-1.78-.05-.89,0h-.56l.2,0a1.27,1.27,0,0,0,.58-.24c.11-.17.09.09-.72.38l-.37.13-.31-.13c-.91-.37-.91-.6-.54-.29a1.22,1.22,0,0,0,.58.15H195l-1.06,0-2.13-.07-4.25-.12c-2.83-.1-5.67-.14-8.5-.29-5.67-.3-11.34-.49-17-.91,5.67-.41,11.34-.6,17-.9,2.83-.16,5.67-.19,8.5-.29l4.25-.12,2.13-.07,1.06,0h.75a1.54,1.54,0,0,1,.71.18c.52.4.62.34-.11,0h-.68c-.67.25-.59.38-.36.12a2.09,2.09,0,0,1,.35-.21,1.92,1.92,0,0,1,.37-.11l.26,0h.11l.45,0,.89,0,1.78-.05,3.58-.11,7.14-.09,14.28-.14c4.76,0,9.52-.15,14.28-.08l14.28.14,14.29.14,14.28.41c4.76.15,9.52.24,14.28.51S305.43,415.85,310.19,416.19Z" transform="translate(-1.3 -1)" style="fill:#091f2f"/><path d="M373.61,416.19s-3.32.67-8.32,1.14-11.64.84-18.3.86-13.31-.34-18.3-.85-8.32-1.15-8.32-1.15,3.33-.67,8.32-1.14,11.65-.84,18.3-.85,13.31.35,18.3.85S373.61,416.19,373.61,416.19Z" transform="translate(-1.3 -1)" style="fill:#091f2f"/><path d="M458.92,416.19s-1.12.18-3.08.39-4.76.53-8.12.75c-6.72.51-15.68.84-24.64.86s-17.92-.34-24.64-.85c-3.36-.22-6.16-.59-8.12-.76s-3.08-.39-3.08-.39,1.12-.17,3.08-.38,4.76-.54,8.12-.76c6.72-.51,15.68-.84,24.64-.85s17.92.35,24.64.85c3.36.23,6.16.59,8.12.76S458.92,416.19,458.92,416.19Z" transform="translate(-1.3 -1)" style="fill:#091f2f"/><path d="M529.63,416.19s-1,.18-2.84.39-4.4.53-7.5.75c-6.21.51-14.49.84-22.77.86s-16.55-.34-22.76-.85c-3.11-.22-5.69-.59-7.5-.76s-2.85-.39-2.85-.39,1-.17,2.85-.38,4.39-.54,7.5-.76c6.21-.51,14.48-.84,22.76-.85s16.56.35,22.77.85c3.1.23,5.69.59,7.5.76S529.63,416.19,529.63,416.19Z" transform="translate(-1.3 -1)" style="fill:#091f2f"/><path d="M567.24,416.19a37.35,37.35,0,0,1-5.27,1.14,78.86,78.86,0,0,1-11.57.86,77.86,77.86,0,0,1-11.58-.85,36.43,36.43,0,0,1-5.26-1.15,37.4,37.4,0,0,1,5.26-1.14,77.86,77.86,0,0,1,11.58-.85,80.39,80.39,0,0,1,11.57.85A39.17,39.17,0,0,1,567.24,416.19Z" transform="translate(-1.3 -1)" style="fill:#091f2f"/><path d="M593.61,416.19a5.57,5.57,0,0,1-1.4,1.14,6.36,6.36,0,0,1-3.09.86,6.21,6.21,0,0,1-3.08-.85,5.49,5.49,0,0,1-1.4-1.15,5.57,5.57,0,0,1,1.4-1.14,6.21,6.21,0,0,1,3.08-.85,6.47,6.47,0,0,1,3.09.85A5.83,5.83,0,0,1,593.61,416.19Z" transform="translate(-1.3 -1)" style="fill:#091f2f"/><path d="M222.91,552a9.52,9.52,0,0,1,6.33,2.33l2.13,1.88,4.77-4.77-2.43-2.14a16.43,16.43,0,0,0-10.8-4,15.85,15.85,0,1,0,0,31.69,16.43,16.43,0,0,0,10.83-4.09l2.53-2.2-5-4.63-2,1.82a9.56,9.56,0,0,1-6.33,2.36,9.11,9.11,0,1,1,0-18.2Z" transform="translate(-1.3 -1)" style="fill:#091f2f"/><path d="M256,545.21A15.85,15.85,0,1,0,272.18,561,16,16,0,0,0,256,545.21Zm0,6.79a9.07,9.07,0,1,1-9.41,9A9.24,9.24,0,0,1,256,552Z" transform="translate(-1.3 -1)" style="fill:#091f2f"/><polygon points="283.57 557.28 296.4 574.95 297.08 575.9 302.76 575.9 302.76 544.21 295.97 544.21 295.97 562.83 282.46 544.21 276.79 544.21 276.79 575.9 283.57 575.9 283.57 557.28" style="fill:#091f2f"/><path d="M326.76,545.21H313.65V576.9h13.11a15.85,15.85,0,1,0,0-31.69Zm0,24.91h-6.32V552h6.32a9.07,9.07,0,1,1,0,18.12Z" transform="translate(-1.3 -1)" style="fill:#091f2f"/><rect x="349.78" y="544.21" width="6.78" height="31.69" style="fill:#091f2f"/><polygon points="378.74 575.9 378.74 551 387.54 551 387.54 544.21 363.15 544.21 363.15 551 371.95 551 371.95 575.9 378.74 575.9" style="fill:#091f2f"/><path d="M386.76,576.9h7.53l3.56-7.81h11.67l3.59,7.81h7.52l-14.07-30.36-.61-1.33h-4.69Zm14.16-14.6,2.71-6,2.76,6Z" transform="translate(-1.3 -1)" style="fill:#091f2f"/><path d="M468.37,576.9h7.52l-14.08-30.36-.61-1.33h-4.68L442,576.9h7.53l3.56-7.81h11.67Zm-12.19-14.6,2.71-6,2.76,6Z" transform="translate(-1.3 -1)" style="fill:#091f2f"/><path d="M511.61,561.08a16,16,0,0,0-16.16-15.87H482.34V576.9h13.11A16,16,0,0,0,511.61,561.08ZM489.12,552h6.33a9.07,9.07,0,1,1,0,18.12h-6.33Z" transform="translate(-1.3 -1)" style="fill:#091f2f"/><polygon points="309.12 629.96 309.12 594.85 296.06 594.85 296.06 601.07 302.44 601.07 302.44 629.96 309.12 629.96" style="fill:#091f2f"/><path d="M374.75,610l7.46-9.4.33-.39v-4.33h-23v6.07h13.73L366,611l-.33.39v4.34h5.48c6.11,0,6.11,3.15,6.11,4.19,0,3.08-2.31,5-6,5a11.24,11.24,0,0,1-6.08-1.8l-2.07-1.39-3.67,4.88,2.33,1.54a17.94,17.94,0,0,0,9.49,2.85c7.13,0,12.11-4.63,12.11-11.25C383.37,614.62,380.13,611,374.75,610Z" transform="translate(-1.3 -1)" style="fill:#091f2f"/><path d="M406.5,594.79c-9,0-14.42,6.55-14.42,17.53s5.39,17.57,14.42,17.57S421,623.32,421,612.32,415.56,594.79,406.5,594.79Zm8.25,17.53c0,5.18-1.43,11.36-8.25,11.36s-8.21-6.18-8.21-11.36c0-7.51,2.76-11.32,8.21-11.32C413.32,601,414.75,607.16,414.75,612.32Z" transform="translate(-1.3 -1)" style="fill:#091f2f"/><path d="M223.26,514.31a12.42,12.42,0,0,0-5.54-10.75,12.22,12.22,0,0,0,3.39-8.89c0-8.05-5.89-13.05-15.36-13.05H186.44v46.54h19.31C216.71,528.16,223.26,523,223.26,514.31Zm-17.51-13.75H193.66V488.83h12.09c5.41,0,8.15,2,8.15,5.84S211.16,500.56,205.75,500.56Zm-12.09,7.15h12.09c4.72,0,10.35,1.14,10.35,6.54S210.47,521,205.75,521H193.66Z" transform="translate(-1.3 -1)" style="fill:#091f2f"/><path d="M253.89,528.16c13.13,0,23.82-10.45,23.82-23.3S267,481.62,253.89,481.62s-23.82,10.43-23.82,23.24S240.75,528.16,253.89,528.16Zm0-39.33c9.16,0,16.61,7.19,16.61,16a16.62,16.62,0,0,1-33.22,0C237.28,496,244.73,488.83,253.89,488.83Z" transform="translate(-1.3 -1)" style="fill:#091f2f"/><path d="M299.6,521a15.48,15.48,0,0,1-10.84-4.39l-2.14-2.26-5.12,5.13,2.09,2.14a23.51,23.51,0,0,0,16,6.58c10,0,16.75-5.17,16.75-12.85.08-10-8.46-12.57-14.71-14.46-6.07-1.84-9.5-3.08-9.5-7.23,0-2.91,3.42-4.79,8.73-4.79a17.2,17.2,0,0,1,8.56,2.24l2.58,1.66,3.78-6.06-2.5-1.61a24.49,24.49,0,0,0-12.42-3.44c-9.68,0-15.94,4.71-15.94,12,0,9.7,8.4,12.25,14.54,14.11,6.38,1.93,9.71,3.14,9.67,7.56C309.14,518.73,305.4,521,299.6,521Z" transform="translate(-1.3 -1)" style="fill:#091f2f"/><polygon points="333.85 527.16 341.06 527.16 341.06 487.83 354.96 487.83 354.96 480.62 319.95 480.62 319.95 487.83 333.85 487.83 333.85 527.16" style="fill:#091f2f"/><path d="M380.59,528.16c13.13,0,23.82-10.45,23.82-23.3s-10.69-23.24-23.82-23.24-23.83,10.43-23.83,23.24S367.45,528.16,380.59,528.16Zm0-39.33c9.16,0,16.61,7.19,16.61,16a16.62,16.62,0,0,1-33.23,0C364,496,371.42,488.83,380.59,488.83Z" transform="translate(-1.3 -1)" style="fill:#091f2f"/><polygon points="420.37 494.11 443.67 526.21 444.35 527.16 450.67 527.16 450.67 480.62 443.45 480.62 443.45 513.67 420.15 481.57 419.47 480.62 413.16 480.62 413.16 527.16 420.37 527.16 420.37 494.11" style="fill:#091f2f"/><rect x="467.14" y="480.62" width="7.21" height="46.54" style="fill:#091f2f"/><path d="M498.37,516.75H519.9l5.27,11.41h8l-21-45.22-.61-1.32h-5.15l-19.83,43.31-1.47,3.23h8Zm3.36-7.38,7.32-16.13,7.45,16.13Z" transform="translate(-1.3 -1)" style="fill:#091f2f"/><path d="M159.6,567.37l-8.84-8.8-22.59,22.69-1.39,1.41,4.75,4.71,6.8-6.84,4.09,4.08c.28.28.56.54.85.8l-1.83,11.86,5.88,5.82L149.5,589a11.59,11.59,0,0,0,11.27-3.41C166,580.31,165.57,573.33,159.6,567.37Zm-4.73,4.75c4.95,4.92,2.09,7.79,1.16,8.74-2.62,2.62-5.68,2.21-8.88-1l-4.1-4.08,7.73-7.76Z" transform="translate(-1.3 -1)" style="fill:#091f2f"/><polygon points="174.66 590.22 187.76 600.66 191.95 595.43 173.6 580.8 152.41 607.38 171.2 622.36 175.37 617.11 161.82 606.33 166.42 600.56 178.09 609.86 182.25 604.61 170.59 595.33 174.66 590.22" style="fill:#091f2f"/><path d="M208.37,623.25l-6,9.57a11,11,0,0,1-6-1.67,10.79,10.79,0,0,1-4.81-6.64,10.1,10.1,0,0,1,1.21-7.83,10.24,10.24,0,0,1,8.77-4.74,11,11,0,0,1,5.8,1.67,10.81,10.81,0,0,1,4.68,6l.79,2.65,6.49-1.49-.92-3a17.59,17.59,0,0,0-16.83-12.52,16.75,16.75,0,0,0-16.47,20.79,17.69,17.69,0,0,0,19.94,13.16l1.32-.21,7.65-12.23Z" transform="translate(-1.3 -1)" style="fill:#091f2f"/><polygon points="227.94 617.4 212.59 647.74 218.55 650.78 233.91 620.45 227.94 617.4" style="fill:#091f2f"/><polygon points="266.3 634.06 249.92 648.89 247.62 626.88 241.86 624.69 229.68 656.41 235.93 658.83 242.4 641.98 243.98 656.92 244.38 658.7 247.57 660.02 260.06 648.76 253.62 665.63 259.88 668 272.05 636.27 266.3 634.06" style="fill:#091f2f"/><polygon points="272.45 669.36 271.93 671.28 278.4 673.01 287.29 640.2 280.83 638.45 272.45 669.36" style="fill:#091f2f"/><polygon points="313.22 667.08 301.65 643.61 296.08 642.66 290.33 676.17 296.94 677.28 300.51 656.42 312.08 679.89 317.65 680.84 323.4 647.33 316.8 646.22 313.22 667.08" style="fill:#091f2f"/><polygon points="330.43 682.08 354.41 683.3 354.76 676.61 337.46 675.72 337.84 668.36 352.73 669.12 353.06 662.43 338.18 661.67 338.51 655.14 355.25 656.01 355.59 649.31 332.17 648.12 330.43 682.08" style="fill:#091f2f"/><path d="M397.07,647.59a17.61,17.61,0,0,0-2.29.15l-13.88,1.79,4.34,33.72,13.88-1.8A17.35,17.35,0,0,0,410.61,675a16.69,16.69,0,0,0,3.54-12.58A17.16,17.16,0,0,0,397.07,647.59Zm-6,28.16-2.64-20.43,7.24-.94a11.16,11.16,0,0,1,1.42-.09,10.29,10.29,0,0,1,1.22,20.53Z" transform="translate(-1.3 -1)" style="fill:#091f2f"/><path d="M435.6,640a17.53,17.53,0,0,0-4.54.6,17.32,17.32,0,1,0,4.54-.6Zm2.5,27a11.24,11.24,0,0,1-2.81.37,10.45,10.45,0,0,1-10.18-7.59,10.11,10.11,0,0,1,1.15-7.79,10.84,10.84,0,0,1,6.52-4.9,11.08,11.08,0,0,1,2.82-.37,10.4,10.4,0,0,1,10.15,7.56A10.52,10.52,0,0,1,438.1,667Z" transform="translate(-1.3 -1)" style="fill:#091f2f"/><path d="M499.09,612.44,503,649.63l6.42-3.79-1-9.36,11.42-6.73,7.73,5.37,6.42-3.75-30.85-21.3Zm14.65,13.11-6.14,3.62-.92-8.51Z" transform="translate(-1.3 -1)" style="fill:#091f2f"/><polygon points="536.63 593.4 532.69 588 511.63 603.23 515.58 608.64 523.39 602.99 539.39 625.12 544.8 621.18 528.81 599.06 536.63 593.4" style="fill:#091f2f"/><path d="M547.18,579l-1.15-.51-3.51,3.06,10.68,35.82,5.61-4.87-2.71-9,10-8.74,8.61,3.85,5.58-4.89Zm12.17,12.73-5.38,4.7-2.47-8.19Z" transform="translate(-1.3 -1)" style="fill:#091f2f"/><polygon points="474.43 624.55 481.92 644.35 461.3 630.79 460.04 629.98 454.77 631.98 466.1 661.93 466.8 663.78 473.05 661.4 465.57 641.6 486.19 655.16 487.44 655.97 492.72 653.97 480.68 622.16 474.43 624.55" style="fill:#091f2f"/><path d="M349.77,618.49c0-6.86-5.11-11.3-13-11.3-4.56,0-8.24,1.41-10.54,4a14.2,14.2,0,0,1,3.39-9.06,9.72,9.72,0,0,1,7.42-3,19.59,19.59,0,0,1,8.39,1.94l.76.38,2.66-4.62-.9-.41a28.73,28.73,0,0,0-11.18-2.45c-9.79,0-16.63,8-16.63,19.53,0,11.27,6.36,18.83,15.81,18.83A13.5,13.5,0,0,0,349.77,618.49Zm-5.89,0c0,4.11-3.31,8.52-8.22,8.52a7.81,7.81,0,0,1-5.81-2.39,8.93,8.93,0,0,1-2.58-5.86,5.62,5.62,0,0,1,1.68-4,9.75,9.75,0,0,1,7-2.5C340.93,612.2,343.88,614.54,343.88,618.45Z" transform="translate(-1.3 -1)" style="fill:#091f2f"/><path d="M413.24,122.91a30.67,30.67,0,0,1,4.78-1.15,65.09,65.09,0,0,1,21,0,30.89,30.89,0,0,1,4.78,1.16,31.71,31.71,0,0,1-4.78,1.15,64.21,64.21,0,0,1-10.51.86,65.37,65.37,0,0,1-10.52-.86A32.13,32.13,0,0,1,413.24,122.91Z" transform="translate(-1.3 -1)" style="fill:#091f2f"/><path d="M389.51,122.91a7.85,7.85,0,0,1,2-1.15,12.09,12.09,0,0,1,8.93,0,8,8,0,0,1,2,1.16,8.21,8.21,0,0,1-2,1.15,12.17,12.17,0,0,1-4.46.86,12.44,12.44,0,0,1-4.47-.86A8.21,8.21,0,0,1,389.51,122.91Z" transform="translate(-1.3 -1)" style="fill:#091f2f"/><path d="M152.86,228.57" transform="translate(-1.3 -1)" style="fill:#091f2f"/><path d="M236.3,153.61a16.76,16.76,0,0,1,3.4-1.15,32.86,32.86,0,0,1,15,0,17.11,17.11,0,0,1,3.4,1.16,17.54,17.54,0,0,1-3.4,1.15,33.55,33.55,0,0,1-7.49.86,34.15,34.15,0,0,1-7.49-.86A17.54,17.54,0,0,1,236.3,153.61Z" transform="translate(-1.3 -1)" style="fill:#091f2f"/><path d="M208.12,153.7a17.54,17.54,0,0,1,3.4-1.15,33.23,33.23,0,0,1,15,0,17.11,17.11,0,0,1,3.4,1.16,16.76,16.76,0,0,1-3.4,1.15,32.42,32.42,0,0,1-7.49.86,33,33,0,0,1-7.49-.86A17.54,17.54,0,0,1,208.12,153.7Z" transform="translate(-1.3 -1)" style="fill:#091f2f"/><path d="M236.2,192.85" transform="translate(-1.3 -1)" style="fill:#091f2f"/><path d="M215.5,194.39a13.49,13.49,0,0,1,3-1.15,25.44,25.44,0,0,1,13.08,0,13.82,13.82,0,0,1,3,1.16,14.15,14.15,0,0,1-3,1.15,25.35,25.35,0,0,1-6.54.86,25.73,25.73,0,0,1-6.54-.86A14.11,14.11,0,0,1,215.5,194.39Z" transform="translate(-1.3 -1)" style="fill:#091f2f"/><path d="M192.4,194.39a9.31,9.31,0,0,1,2.29-1.15,15.22,15.22,0,0,1,10.06,0,9.32,9.32,0,0,1,2.28,1.16,9.53,9.53,0,0,1-2.28,1.15,15.33,15.33,0,0,1-5,.86,15.55,15.55,0,0,1-5-.86A9.74,9.74,0,0,1,192.4,194.39Z" transform="translate(-1.3 -1)" style="fill:#091f2f"/><path d="M175.44,194.39a7.66,7.66,0,0,1,2-1.15,11.37,11.37,0,0,1,8.65,0,7.85,7.85,0,0,1,2,1.16,8,8,0,0,1-2,1.15,11.5,11.5,0,0,1-4.32.86,11.71,11.71,0,0,1-4.33-.86A8,8,0,0,1,175.44,194.39Z" transform="translate(-1.3 -1)" style="fill:#091f2f"/><path d="M499.24,179a6.46,6.46,0,0,1,1.63-1.15,8,8,0,0,1,7.18,0,6.58,6.58,0,0,1,1.63,1.16,6.58,6.58,0,0,1-1.63,1.16,8,8,0,0,1-7.18,0A6.46,6.46,0,0,1,499.24,179Z" transform="translate(-1.3 -1)" style="fill:#091f2f"/><path d="M478.68,179a11.29,11.29,0,0,1,2.59-1.15,19.39,19.39,0,0,1,11.39,0,11.3,11.3,0,0,1,2.59,1.16,11.3,11.3,0,0,1-2.59,1.16,19.39,19.39,0,0,1-11.39,0A11.29,11.29,0,0,1,478.68,179Z" transform="translate(-1.3 -1)" style="fill:#091f2f"/><path d="M189.92,179a11,11,0,0,1,2.53-1.15,18.57,18.57,0,0,1,11.14,0,11,11,0,0,1,2.54,1.16,11,11,0,0,1-2.54,1.16,18.57,18.57,0,0,1-11.14,0A11,11,0,0,1,189.92,179Z" transform="translate(-1.3 -1)" style="fill:#091f2f"/><path d="M482.3,163.69a6.11,6.11,0,0,1,1.57-1.15,7.41,7.41,0,0,1,6.91,0,6.23,6.23,0,0,1,1.57,1.16,6.06,6.06,0,0,1-1.57,1.15,7.5,7.5,0,0,1-3.46.86,7.62,7.62,0,0,1-3.45-.86A6.11,6.11,0,0,1,482.3,163.69Z" transform="translate(-1.3 -1)" style="fill:#091f2f"/><path d="M229.75,163.69a11.06,11.06,0,0,1,2.52-1.15,18.38,18.38,0,0,1,11.08,0,10.56,10.56,0,0,1,2.52,1.16,10.33,10.33,0,0,1-2.52,1.15,18,18,0,0,1-5.54.86,18.41,18.41,0,0,1-5.54-.86A11.06,11.06,0,0,1,229.75,163.69Z" transform="translate(-1.3 -1)" style="fill:#091f2f"/><path d="M201.24,163.69a6.1,6.1,0,0,1,1.53-1.15,7,7,0,0,1,6.72,0,6,6,0,0,1,1.53,1.16,5.85,5.85,0,0,1-1.53,1.15,7.15,7.15,0,0,1-3.36.86,7.24,7.24,0,0,1-3.36-.86A6.1,6.1,0,0,1,201.24,163.69Z" transform="translate(-1.3 -1)" style="fill:#091f2f"/><path d="M197.63,179a63.47,63.47,0,0,1,6.94-1.15,137.05,137.05,0,0,1,30.57,0,62.27,62.27,0,0,1,7,1.16,62.27,62.27,0,0,1-7,1.16,137.05,137.05,0,0,1-30.57,0A63.47,63.47,0,0,1,197.63,179Z" transform="translate(-1.3 -1)" style="fill:#091f2f"/><path d="M494.11,163.69a11.52,11.52,0,0,1,2.6-1.15,19.56,19.56,0,0,1,11.44,0,11.26,11.26,0,0,1,2.6,1.16,11,11,0,0,1-2.6,1.15,19.22,19.22,0,0,1-5.72.86,19.55,19.55,0,0,1-5.72-.86A11.52,11.52,0,0,1,494.11,163.69Z" transform="translate(-1.3 -1)" style="fill:#091f2f"/><path d="M463.88,163.69a7.28,7.28,0,0,1,1.83-1.15,9.81,9.81,0,0,1,8,0,7,7,0,0,1,1.82,1.16,6.8,6.8,0,0,1-1.82,1.15,9.82,9.82,0,0,1-4,.86,10,10,0,0,1-4-.86A7.28,7.28,0,0,1,463.88,163.69Z" transform="translate(-1.3 -1)" style="fill:#091f2f"/><path d="M453.49,153.7a7.05,7.05,0,0,1,1.81-1.18,10,10,0,0,1,4-.93,9.9,9.9,0,0,1,4,.8,7.23,7.23,0,0,1,1.84,1.12,7.29,7.29,0,0,1-1.8,1.19,10.1,10.1,0,0,1-4,.92,10.3,10.3,0,0,1-4-.8A7.23,7.23,0,0,1,453.49,153.7Z" transform="translate(-1.3 -1)" style="fill:#091f2f"/><path d="M469.17,153.61a39.93,39.93,0,0,1,5.56-1.15,87,87,0,0,1,24.47,0,40.7,40.7,0,0,1,5.56,1.16,41.8,41.8,0,0,1-5.56,1.15,88.3,88.3,0,0,1-12.24.86,89.84,89.84,0,0,1-12.23-.86A41.8,41.8,0,0,1,469.17,153.61Z" transform="translate(-1.3 -1)" style="fill:#091f2f"/><path d="M341.63,163.69a17.39,17.39,0,0,1,3.36-1.15,32.32,32.32,0,0,1,14.77,0,16.7,16.7,0,0,1,3.35,1.16,16.35,16.35,0,0,1-3.35,1.15,31.58,31.58,0,0,1-7.39.86,32,32,0,0,1-7.38-.86A17.39,17.39,0,0,1,341.63,163.69Z" transform="translate(-1.3 -1)" style="fill:#091f2f"/><path d="M219,163.69a4.87,4.87,0,0,1,.77-1.15,2.09,2.09,0,0,1,3.37,0,4.83,4.83,0,0,1,.77,1.16,4.67,4.67,0,0,1-.77,1.15,2.37,2.37,0,0,1-1.68.86,2.41,2.41,0,0,1-1.69-.86A4.87,4.87,0,0,1,219,163.69Z" transform="translate(-1.3 -1)" style="fill:#091f2f"/><path d="M362.39,153.61a5.41,5.41,0,0,1,1.34-1.15,5.48,5.48,0,0,1,5.91,0,5.5,5.5,0,0,1,1.35,1.16,5.59,5.59,0,0,1-1.35,1.15,5.86,5.86,0,0,1-2.95.86,6,6,0,0,1-3-.86A5.66,5.66,0,0,1,362.39,153.61Z" transform="translate(-1.3 -1)" style="fill:#091f2f"/><path d="M344,153.61a8.44,8.44,0,0,1,2.16-1.15,13.45,13.45,0,0,1,9.49,0,8.64,8.64,0,0,1,2.16,1.16,8.82,8.82,0,0,1-2.16,1.15,13.92,13.92,0,0,1-4.75.86,14.15,14.15,0,0,1-4.74-.86A8.82,8.82,0,0,1,344,153.61Z" transform="translate(-1.3 -1)" style="fill:#091f2f"/><path d="M326.86,153.61a6.13,6.13,0,0,1,1.6-1.15,7.64,7.64,0,0,1,7.06,0,6.29,6.29,0,0,1,1.6,1.16,6.4,6.4,0,0,1-1.6,1.15,8.06,8.06,0,0,1-3.53.86,8.21,8.21,0,0,1-3.53-.86A6.4,6.4,0,0,1,326.86,153.61Z" transform="translate(-1.3 -1)" style="fill:#091f2f"/><path d="M455.64,138.25a5.88,5.88,0,0,1,1.49-1.15,6.65,6.65,0,0,1,6.54,0,5.94,5.94,0,0,1,1.48,1.15,5.84,5.84,0,0,1-1.48,1.16,6.61,6.61,0,0,1-6.54,0A5.63,5.63,0,0,1,455.64,138.25Z" transform="translate(-1.3 -1)" style="fill:#091f2f"/><path d="M365.88,138.25a7.78,7.78,0,0,1,1.92-1.15,10.78,10.78,0,0,1,8.44,0,7.59,7.59,0,0,1,1.91,1.15,7.44,7.44,0,0,1-1.91,1.16,10.73,10.73,0,0,1-8.44,0A7.44,7.44,0,0,1,365.88,138.25Z" transform="translate(-1.3 -1)" style="fill:#091f2f"/><path d="M326,97.37a35.49,35.49,0,0,1,5.07-1.15,72.58,72.58,0,0,1,22.28,0,35.1,35.1,0,0,1,5.06,1.15,34.19,34.19,0,0,1-5.06,1.16,72.17,72.17,0,0,1-22.28,0A33.89,33.89,0,0,1,326,97.37Z" transform="translate(-1.3 -1)" style="fill:#091f2f"/><path d="M342.25,138.25a26.79,26.79,0,0,1,4.36-1.15,54,54,0,0,1,19.2,0,26.79,26.79,0,0,1,4.36,1.15,26.1,26.1,0,0,1-4.36,1.16,53.7,53.7,0,0,1-19.2,0A25.59,25.59,0,0,1,342.25,138.25Z" transform="translate(-1.3 -1)" style="fill:#091f2f"/><path d="M311,138.25a6.28,6.28,0,0,1,1.58-1.15,7.47,7.47,0,0,1,7,0,6.28,6.28,0,0,1,1.58,1.15,6.17,6.17,0,0,1-1.58,1.16,7.43,7.43,0,0,1-7,0A6,6,0,0,1,311,138.25Z" transform="translate(-1.3 -1)" style="fill:#091f2f"/><path d="M433.7,138.25a15.88,15.88,0,0,1,3.2-1.15,29.33,29.33,0,0,1,14.1,0,15.88,15.88,0,0,1,3.2,1.15,15.49,15.49,0,0,1-3.2,1.16,29.16,29.16,0,0,1-14.1,0A15.17,15.17,0,0,1,433.7,138.25Z" transform="translate(-1.3 -1)" style="fill:#091f2f"/><path d="M514.6,180.52a15.88,15.88,0,0,1,3.2-1.15,29.29,29.29,0,0,1,14.09,0,15.84,15.84,0,0,1,3.21,1.15,15.46,15.46,0,0,1-3.21,1.16,29.45,29.45,0,0,1-14.09,0A15.17,15.17,0,0,1,514.6,180.52Z" transform="translate(-1.3 -1)" style="fill:#091f2f"/><path d="M232,138.25a31.39,31.39,0,0,1,4.76-1.15,64.28,64.28,0,0,1,21,0,31.75,31.75,0,0,1,4.77,1.15,30.93,30.93,0,0,1-4.77,1.16,63.92,63.92,0,0,1-21,0A30,30,0,0,1,232,138.25Z" transform="translate(-1.3 -1)" style="fill:#091f2f"/><path d="M328.72,138.25a5.58,5.58,0,0,1-1.46,1.15,6.35,6.35,0,0,1-6.4,0,5.79,5.79,0,0,1-1.45-1.16,5.89,5.89,0,0,1,1.45-1.15,6.38,6.38,0,0,1,6.4,0A5.83,5.83,0,0,1,328.72,138.25Z" transform="translate(-1.3 -1)" style="fill:#091f2f"/><path d="M277.58,138.25a5.64,5.64,0,0,1-1.45,1.15,6.35,6.35,0,0,1-6.4,0,5.73,5.73,0,0,1-1.46-1.16,5.83,5.83,0,0,1,1.46-1.15,6.38,6.38,0,0,1,6.4,0A5.89,5.89,0,0,1,277.58,138.25Z" transform="translate(-1.3 -1)" style="fill:#091f2f"/><path d="M334.1,138.25a4.72,4.72,0,0,1,.88-1.15,2.63,2.63,0,0,1,3.89,0,4.91,4.91,0,0,1,.89,1.15,4.86,4.86,0,0,1-.89,1.16,2.62,2.62,0,0,1-3.89,0A4.53,4.53,0,0,1,334.1,138.25Z" transform="translate(-1.3 -1)" style="fill:#091f2f"/><path d="M351.45,122.91a13.14,13.14,0,0,1,2.93-1.15,24.64,24.64,0,0,1,12.87,0,13.46,13.46,0,0,1,2.92,1.16,13.78,13.78,0,0,1-2.92,1.15,24.61,24.61,0,0,1-6.44.86,24.89,24.89,0,0,1-6.43-.86A13.74,13.74,0,0,1,351.45,122.91Z" transform="translate(-1.3 -1)" style="fill:#091f2f"/><path d="M325.06,122.91a16.72,16.72,0,0,1,3.41-1.15,33.23,33.23,0,0,1,15,0,17.11,17.11,0,0,1,3.4,1.16,17.54,17.54,0,0,1-3.4,1.15,33,33,0,0,1-7.49.86,33.48,33.48,0,0,1-7.49-.86A17.5,17.5,0,0,1,325.06,122.91Z" transform="translate(-1.3 -1)" style="fill:#091f2f"/><path d="M305.11,122.91a5.85,5.85,0,0,1,1.49-1.15,6.68,6.68,0,0,1,6.54,0,6,6,0,0,1,1.49,1.16,6.11,6.11,0,0,1-1.49,1.15,6.9,6.9,0,0,1-3.27.86,7,7,0,0,1-3.27-.86A6.11,6.11,0,0,1,305.11,122.91Z" transform="translate(-1.3 -1)" style="fill:#091f2f"/><path d="M365.42,97.37a5.94,5.94,0,0,1,1.48-1.15,6.65,6.65,0,0,1,6.54,0,5.88,5.88,0,0,1,1.49,1.15,5.78,5.78,0,0,1-1.49,1.16,6.61,6.61,0,0,1-6.54,0A5.69,5.69,0,0,1,365.42,97.37Z" transform="translate(-1.3 -1)" style="fill:#091f2f"/><path d="M248.4,122.91l1.39-.36.7-.14.35-.08s-.21,0-.13,0a.64.64,0,0,1,.32-.17l.11,0,.15,0a10.65,10.65,0,0,0,2-.27l2.17-.3c1.44-.16,2.88-.33,4.33-.42q4.32-.3,8.66-.24c2.88,0,5.77.17,8.66.49a54.53,54.53,0,0,1,8.66,1.5,55.68,55.68,0,0,1-8.66,1.5c-2.89.32-5.78.44-8.66.48s-5.78,0-8.66-.24c-1.45-.09-2.89-.26-4.33-.42l-2.17-.3a10.34,10.34,0,0,1-2.26-.5h.25c.09,0,.09-.07,0,0a1,1,0,0,1-.46.08l-.35-.07-.7-.15Z" transform="translate(-1.3 -1)" style="fill:#091f2f"/><path d="M319.41,122.91a4.53,4.53,0,0,1,.88-1.15,2.64,2.64,0,0,1,3.89,0,4.68,4.68,0,0,1,.88,1.16,4.72,4.72,0,0,1-.88,1.15,3,3,0,0,1-1.95.86,3,3,0,0,1-1.94-.86A4.72,4.72,0,0,1,319.41,122.91Z" transform="translate(-1.3 -1)" style="fill:#091f2f"/><path d="M381.42,97.37a4.72,4.72,0,0,1,.88-1.15,2.63,2.63,0,0,1,3.89,0,4.72,4.72,0,0,1,.88,1.15,4.68,4.68,0,0,1-.88,1.16,2.62,2.62,0,0,1-3.89,0A4.53,4.53,0,0,1,381.42,97.37Z" transform="translate(-1.3 -1)" style="fill:#091f2f"/><path d="M293.4,122.91a7,7,0,0,1,1.83-1.15,9.9,9.9,0,0,1,8,0,7.14,7.14,0,0,1,1.83,1.16,7.28,7.28,0,0,1-1.83,1.15,10,10,0,0,1-4,.86,10.25,10.25,0,0,1-4-.86A7.28,7.28,0,0,1,293.4,122.91Z" transform="translate(-1.3 -1)" style="fill:#091f2f"/><path d="M364.83,107.56a4.53,4.53,0,0,1,1-1.15,3.43,3.43,0,0,1,2.12-.87,3.37,3.37,0,0,1,2.11.86,4.85,4.85,0,0,1,1,1.16,4.9,4.9,0,0,1-1,1.15,3.37,3.37,0,0,1-2.11.86,3.42,3.42,0,0,1-2.12-.86A4.72,4.72,0,0,1,364.83,107.56Z" transform="translate(-1.3 -1)" style="fill:#091f2f"/><path d="M401.4,107.56a14.18,14.18,0,0,1,3.09-1.15,27.2,27.2,0,0,1,13.61,0,14.48,14.48,0,0,1,3.09,1.16,14.83,14.83,0,0,1-3.09,1.15,27.35,27.35,0,0,1-13.61,0A14.83,14.83,0,0,1,401.4,107.56Z" transform="translate(-1.3 -1)" style="fill:#091f2f"/><path d="M377.54,122.91a5.43,5.43,0,0,1,1.41-1.15,6,6,0,0,1,6.2,0,5.58,5.58,0,0,1,1.41,1.16,5.67,5.67,0,0,1-1.41,1.15,6.27,6.27,0,0,1-3.1.86,6.4,6.4,0,0,1-3.1-.86A5.67,5.67,0,0,1,377.54,122.91Z" transform="translate(-1.3 -1)" style="fill:#091f2f"/><path d="M373.51,107.56a16.35,16.35,0,0,1,3.35-1.15,32,32,0,0,1,14.77,0,16.66,16.66,0,0,1,3.36,1.16,17.07,17.07,0,0,1-3.36,1.15,32.14,32.14,0,0,1-14.77,0A17.11,17.11,0,0,1,373.51,107.56Z" transform="translate(-1.3 -1)" style="fill:#091f2f"/><path d="M326.86,107.56a33.24,33.24,0,0,1,5-1.15,71.4,71.4,0,0,1,22.16,0,33.9,33.9,0,0,1,5,1.16,34.81,34.81,0,0,1-5,1.15,71.81,71.81,0,0,1-22.16,0A34.81,34.81,0,0,1,326.86,107.56Z" transform="translate(-1.3 -1)" style="fill:#091f2f"/><path d="M285.87,107.56a41.28,41.28,0,0,1,5.66-1.15,90,90,0,0,1,24.89,0,42.08,42.08,0,0,1,5.66,1.16,43.22,43.22,0,0,1-5.66,1.15,90.48,90.48,0,0,1-24.89,0A43.22,43.22,0,0,1,285.87,107.56Z" transform="translate(-1.3 -1)" style="fill:#091f2f"/><path d="M580.34,220.39l-.44-3.18-.78-3.08a36.93,36.93,0,0,0-2.49-5.87,35.61,35.61,0,0,0-3.58-5.29,36,36,0,0,0-9.79-8.22,38.14,38.14,0,0,0-5.83-2.74,36.18,36.18,0,0,0-6.23-1.73,38.78,38.78,0,0,0-6.45-.68,37.3,37.3,0,0,0-6.49.52,40.38,40.38,0,0,0-10.17,3.26,23.93,23.93,0,0,0-9.7-10.94,25.92,25.92,0,0,0-7.93-3.07,24.86,24.86,0,0,0-4.21-.53,34.89,34.89,0,0,0-12.34,1.74,42.08,42.08,0,0,0-7.55,3.34,45.53,45.53,0,0,0-6.76,4.65l-.78.65-.1.08h-2.55c.13-.52.26-1,.34-1.58a14,14,0,0,0,.16-2.33l-.05-1.14-.13-1.13a17.36,17.36,0,0,0-1.21-4.38,9.21,9.21,0,0,0-.5-1.05l-.48-.93c-.34-.63-.67-1.23-1.13-1.92l-.58-.89h-.3a20.59,20.59,0,0,0-10.63-6.6,21.33,21.33,0,0,0-10.2-.11c0-.4.07-.8.08-1.2a41,41,0,0,0-.09-4.44,30.09,30.09,0,0,0-1.93-8.81,15.3,15.3,0,0,0-5.87-7.5,13.86,13.86,0,0,0-7.36-2,24.38,24.38,0,0,0-1.51-5.75l0-.08,0-.07-1.5-3c-.48-.82-.63-1-1-1.6s-.73-1-1.11-1.5a27.36,27.36,0,0,0-5.21-5A29.37,29.37,0,0,0,412.64,121h-.23l-4.05-.13-2.07,0H405l-.16.15a30.76,30.76,0,0,0-4.83,1,27.57,27.57,0,0,0-5.27,2.2A26.83,26.83,0,0,0,386,131.6a24.54,24.54,0,0,0-3,4.94,23.66,23.66,0,0,0-1.75,5.52,25,25,0,0,0-.38,5.82,22.72,22.72,0,0,0,.51,3.32,17.45,17.45,0,0,0-11.55,7.4h-.29l-.56,1a2.57,2.57,0,0,0-.22.49l0,.09,0,.18-.09.32-.18.63-.35,1.27-.63,2.58a13.21,13.21,0,0,0-.25,1.53,6.79,6.79,0,0,0,0,.89l.06.75c0,.21.07.41.1.61a12.11,12.11,0,0,0-2.56.77,10.08,10.08,0,0,0-4.2,3.16,11.41,11.41,0,0,0-2.17,4.69c-.11.5-.18,1-.24,1.5a19.36,19.36,0,0,0-3.91-1,34.28,34.28,0,0,0-7-.18,62.73,62.73,0,0,0-7.91,1.1,15.92,15.92,0,0,0,1.77-6.26l0-.78v-.5l0-.35c0-.47,0-.87-.1-1.41a17.51,17.51,0,0,0-.7-3.15,16.78,16.78,0,0,0-3-5.42A19.38,19.38,0,0,0,317.78,155a25.72,25.72,0,0,0-.25-2.76,21.77,21.77,0,0,0-1.58-5.6,18.49,18.49,0,0,0-7.81-8.65,27.81,27.81,0,0,0-10.84-3.3,46.83,46.83,0,0,0-5.56-.25,26.45,26.45,0,0,0-5.65.83l-.22.06-.12.06s0,0-.09.06l-.24.08-.45.14-.91.25a16.22,16.22,0,0,1-1.87.33v.18a30.47,30.47,0,0,0-5.09,2.37,23,23,0,0,0-4.71,3.68,19,19,0,0,0-3.43,5,16.42,16.42,0,0,0-1,2.9,13.09,13.09,0,0,0-.3,1.54,10.79,10.79,0,0,0-.12,1.47,2,2,0,0,0,0,.24c-.3,0-.59-.07-.91-.09-.55,0-1.15,0-1.56,0s-1.06,0-1.55.1a23.2,23.2,0,0,0-6,1.43,22.8,22.8,0,0,0-5.38,3c-.42.31-.81.64-1.21,1s-.83.79-1.15,1.13c-.69.74-1.31,1.46-1.94,2.23l.1-.12a11.93,11.93,0,0,0-2.67,4.95,18.58,18.58,0,0,0-.66,5.17,33.3,33.3,0,0,0,.37,5c.13.82.28,1.63.47,2.45l.16.66a21,21,0,0,0-8.67,8,19.23,19.23,0,0,0-2.61,10.61,25.27,25.27,0,0,0-15.5-1,22.87,22.87,0,0,0-13.91,10.05,29,29,0,0,0-16.18-7.17,28.73,28.73,0,0,0-14.6.47,33,33,0,0,0-14,9.24,44.38,44.38,0,0,0-5.1,6.6,51.81,51.81,0,0,0-3.45,6.41,38.62,38.62,0,0,0-8.68,2.18,19.64,19.64,0,0,0-8.37,6,14.53,14.53,0,0,0-2.95,9.72,21.25,21.25,0,0,0,2.77,9.38,23.89,23.89,0,0,1-1.21-9.35,13.82,13.82,0,0,1,3.37-8.11,18,18,0,0,1,7.55-4.49,40.25,40.25,0,0,1,9-1.76l1.09-.12.46-1.06a44.78,44.78,0,0,1,3.65-6.71,49,49,0,0,1,4.67-6.1,32.11,32.11,0,0,1,12.24-8.66,34.15,34.15,0,0,1,3.62-1.05,22.44,22.44,0,0,1,3.75-.54,30.57,30.57,0,0,1,3.83,0,31.51,31.51,0,0,1,3.83.54c1.27.23,2.53.57,3.79.92s2.5.83,3.75,1.24c1.85.72,3.65,1.57,5.45,2.45.47.43.95.85,1.39,1.32l.52.56.43-.68a21.1,21.1,0,0,1,13.72-9.22c.69-.15,1.39-.24,2.08-.32a20.09,20.09,0,0,1,2.09-.12A22.28,22.28,0,0,1,235.34,203l2.72,1.67-.49-3.24a15.7,15.7,0,0,1,2.43-10.9,18.06,18.06,0,0,1,5.52-5.28,9.48,9.48,0,0,0,0,1.07,10.57,10.57,0,0,0,.52,2.5,11.78,11.78,0,0,0,2.17,3.74,9.18,9.18,0,0,0,3.22,2.52s-.59-1.56-1.21-3.64a29.73,29.73,0,0,1-.75-3.47,11.87,11.87,0,0,1,.1-3.67,12.38,12.38,0,0,1,1.15-3.48,17.94,17.94,0,0,0,.9-1.59c.35-.48.69-1,1-1.42.57-1,1.25-1.63,1.62-2.23s.62-.94.62-.94-.39.08-1.08.29a10.18,10.18,0,0,0-2.71,1.16,9.8,9.8,0,0,0-2,1.46c-.05-.25-.11-.49-.15-.74a25.62,25.62,0,0,1-.36-4.35,14.84,14.84,0,0,1,.51-4.11,7.77,7.77,0,0,1,.7-1.78,8.21,8.21,0,0,1,1-1.48l.1-.11c.56-.68,1.17-1.38,1.76-2,.32-.34.57-.6.84-.84l1-.79a18.38,18.38,0,0,1,4.42-2.45,18.58,18.58,0,0,1,4.93-1.18c.43-.05.77-.07,1.25-.09s.87,0,1.25,0a23.68,23.68,0,0,1,2.57.32l2.12.35.21-2.13a19.83,19.83,0,0,1,.22-2.09l0-.16v-.35a9.13,9.13,0,0,1,.09-1,11.45,11.45,0,0,1,.22-1.14,12.7,12.7,0,0,1,.8-2.21,14.76,14.76,0,0,1,2.68-3.92,19.22,19.22,0,0,1,3.85-3,28,28,0,0,1,4.57-2.12l.44-.16c.28-.05.55-.08.82-.14l1.16-.32.58-.18.26-.1a1.26,1.26,0,0,0,.23-.09,22.26,22.26,0,0,1,4.63-.69,44.14,44.14,0,0,1,5,.23,23.89,23.89,0,0,1,9.28,2.78,14.45,14.45,0,0,1,6.14,6.79,17.93,17.93,0,0,1,1.28,4.56,19.26,19.26,0,0,1,.21,2.41c0,.67,0,1.2,0,1.92a13.11,13.11,0,0,0-2.08,0,13.51,13.51,0,0,0-4.26,1.12,10.25,10.25,0,0,0-3.47,2.38s1.71-.1,4-.14c1.15,0,2.44,0,3.75.17a16,16,0,0,1,3.89.88,13.76,13.76,0,0,1,3.5,1.73c.53.35,1,.79,1.51,1.14s.88.84,1.32,1.2c.87.74,1.47,1.51,2,2s.84.8.84.8,0-.42-.12-1.15a9.64,9.64,0,0,0-.81-2.95,8.92,8.92,0,0,0-.95-1.87,12.65,12.65,0,0,0-1.49-1.88,11,11,0,0,0-2-1.64l-.24-.13c5.45-1.24,11.6.56,15.09,4.88a12.92,12.92,0,0,1,2.3,4.11A14.37,14.37,0,0,1,337,170c.06.37.06.89.09,1.33l0,.34c0-.12,0,.14,0,.19l0,.58A12.66,12.66,0,0,1,333,180.8l-6.1,5.69,8.06-2.3a62.54,62.54,0,0,1,12.52-2.26c4.12-.26,8.55,0,11.46,2l3.7,2.52-.55-4.46a11,11,0,0,1,0-1.75,9.64,9.64,0,0,1,.24-1.8,7.34,7.34,0,0,1,1.4-3.07,6,6,0,0,1,2.61-1.94,11.32,11.32,0,0,1,3.52-.78l2.48-.26-.08-.27a12.22,12.22,0,0,1,1.88.36,10.77,10.77,0,0,1,1.84.75,10,10,0,0,1,1.78,1,14.34,14.34,0,0,1,1.68,1.25c.49.5,1.11.83,1.55,1.33s.94.91,1.4,1.31c.88.81,1.57,1.58,2.14,2.07s.92.77.92.77-.06-.43-.22-1.17a15.43,15.43,0,0,0-.94-3,21,21,0,0,0-1-1.88,10.63,10.63,0,0,0-1.39-1.95,12.88,12.88,0,0,0-4.2-3.4,10.34,10.34,0,0,0-5.52-1,7.73,7.73,0,0,0-.86.13c0-.27-.1-.53-.13-.79l0-.52c0-.1,0-.44,0-.4,0-.18.1-.62.17-1l.59-2.39.33-1.21.05-.18.32-.58A13.45,13.45,0,0,1,384,155l2.63-.08-.78-2.53a22.09,22.09,0,0,1-1-4.76,21.57,21.57,0,0,1,.32-4.79,19.48,19.48,0,0,1,1.46-4.59,20,20,0,0,1,2.52-4.15,22.74,22.74,0,0,1,7.44-6.26,23.24,23.24,0,0,1,4.55-1.89,27.25,27.25,0,0,1,4.83-1v0h.31l2,0,3.89.12a25.31,25.31,0,0,1,11.34,4.49,23.75,23.75,0,0,1,4.43,4.24c.34.4.58.79.88,1.19l.79,1.22,1.45,2.89a20.15,20.15,0,0,1,1.4,6.37l.11,2.09,2.09-.19a10.71,10.71,0,0,1,6.84,1.36,11.32,11.32,0,0,1,4.29,5.6,25.89,25.89,0,0,1,1.64,7.62,33.06,33.06,0,0,1,.09,4c0,.66-.06,1.33-.13,2s-.24,1.48-.22,1.44l2.57,2.72a17.27,17.27,0,0,1,10.92-.76,16.49,16.49,0,0,1,9.08,5.93l.6.8h0c.13.22.26.45.38.68l.45.86a7.92,7.92,0,0,1,.37.78,13.65,13.65,0,0,1,.94,3.39l.1.87,0,.88a10.67,10.67,0,0,1-.12,1.69,15.64,15.64,0,0,1-1,3.45l-.42,1a16.73,16.73,0,0,0-3.18,1.25,13.34,13.34,0,0,0-4.09,3.07s2-.47,4.81-.88a38.82,38.82,0,0,1,4.69-.37,19,19,0,0,1,5,.62,17.74,17.74,0,0,1,4.66,1.86c.7.42,1.34.92,2,1.33s1.17,1,1.74,1.4a34.48,34.48,0,0,1,2.58,2.35c.65.59,1.06.92,1.06.92s-.11-.49-.37-1.34a12.74,12.74,0,0,0-1.5-3.41,11,11,0,0,0-1.43-2.1,17.19,17.19,0,0,0-2-2,14.29,14.29,0,0,0-2.64-1.72l-.9-.4.6-.5a41.26,41.26,0,0,1,6.18-4.24,37.89,37.89,0,0,1,6.81-3,36.17,36.17,0,0,1,7.16-1.47,37.15,37.15,0,0,1,3.75-.08,20.38,20.38,0,0,1,3.58.45,21.91,21.91,0,0,1,6.68,2.58,19.71,19.71,0,0,1,8.75,10.87l.74,2.33,2.15-1.16a34.11,34.11,0,0,1,11-3.76,36,36,0,0,1,5.8-.52,51.73,51.73,0,0,1,5.83.39,32.16,32.16,0,0,1,5.72,1.28,18.28,18.28,0,0,1,2.77,1,21.45,21.45,0,0,1,2.67,1.22,33.54,33.54,0,0,1,9.39,7.1,34.45,34.45,0,0,1,3.58,4.74,34,34,0,0,1,2.6,5.36l.88,2.86.57,2.9a32.63,32.63,0,0,1,.24,6.06,29.77,29.77,0,0,1-3.2,11.63,31.71,31.71,0,0,1-3.3,5.15c-.63.81-1.3,1.58-2,2.33s-1.32,1.73-2.42,1.75c1.12,0,1.75-1,2.53-1.64s1.46-1.46,2.15-2.23a33,33,0,0,0,3.61-5.06,30.51,30.51,0,0,0,3.9-11.82A34.65,34.65,0,0,0,580.34,220.39ZM198.25,204.73c-1.22-.59-2.4-1.3-3.68-1.78l-.11,0a27.91,27.91,0,0,1,5.65,2.9C199.5,205.44,198.88,205.07,198.25,204.73ZM403,122.61Zm76.32,66.69h-.17C479.39,189.28,479.51,189.31,479.34,189.3Z" transform="translate(-1.3 -1)" style="fill:#091f2f"/><path d="M453.42,176.88a8.46,8.46,0,0,0-1-1.86,12.08,12.08,0,0,0-1.48-1.88,11.5,11.5,0,0,0-2-1.65,12.07,12.07,0,0,0-2.45-1.19,12.64,12.64,0,0,0-5.21-.61,13.25,13.25,0,0,0-4.26,1.13,10.25,10.25,0,0,0-3.47,2.38s1.71-.1,4-.14c1.15,0,2.43,0,3.75.17a15.76,15.76,0,0,1,3.89.87,14.45,14.45,0,0,1,3.5,1.73c.53.36,1,.79,1.51,1.15s.87.83,1.32,1.19c.87.74,1.47,1.52,2,2s.84.8.84.8,0-.41-.12-1.14A10,10,0,0,0,453.42,176.88Z" transform="translate(-1.3 -1)" style="fill:#091f2f"/><path d="M569.31,228.66c-.17.72-.45,1.4-.61,2.05-.32,1.34-.89,2.37-1.12,3.18s-.42,1.3-.42,1.3.4-.28,1.06-.83a12.45,12.45,0,0,0,2.52-2.56,14.75,14.75,0,0,0,1.36-2,25.09,25.09,0,0,0,1.09-2.6,16.6,16.6,0,0,0,.5-3,12.65,12.65,0,0,0-1.36-6.26,14.39,14.39,0,0,0-1.67-2.55,15.28,15.28,0,0,0-3.94-3.4,12.79,12.79,0,0,0-4.59-1.82s1.37,1.46,3.09,3.56a31.66,31.66,0,0,1,2.54,3.69,14.46,14.46,0,0,1,1.72,4.42,14.32,14.32,0,0,1,.25,4.66C569.57,227.17,569.42,227.93,569.31,228.66Z" transform="translate(-1.3 -1)" style="fill:#091f2f"/><path d="M406.3,128.36c-.76,0-1.59,0-2.47,0s-1.81.31-2.77.55a21,21,0,0,0-2.87,1.13,23.4,23.4,0,0,0-2.67,1.83,16,16,0,0,0-2.17,2.43,13.14,13.14,0,0,0-1.51,2.73,14.44,14.44,0,0,0-1.07,5.23,11.37,11.37,0,0,0,.84,5,38.27,38.27,0,0,1,1.42-4.56c.24-.65.54-1.32.86-2s.75-1.36,1.11-2.07a16.81,16.81,0,0,1,3.16-3.7,20.22,20.22,0,0,1,2-1.49c.76-.33,1.42-.85,2.17-1.18s1.49-.62,2.2-.94,1.45-.44,2.11-.67c1.31-.51,2.5-.66,3.32-1s1.31-.44,1.31-.44-.47-.15-1.32-.36A14.36,14.36,0,0,0,406.3,128.36Z" transform="translate(-1.3 -1)" style="fill:#091f2f"/><path d="M598.75,385.66h-6.64v6.07h6.64Z" transform="translate(-1.3 -1)" style="fill:#091f2f"/><path d="M582.82,385.66v6.07h6.64v-6.07Z" transform="translate(-1.3 -1)" style="fill:#091f2f"/><path d="M544.54,358h6.64v-6.08h-6.64Z" transform="translate(-1.3 -1)" style="fill:#091f2f"/><path d="M140.86,395.21h7.93v-7.92h-7.93Z" transform="translate(-1.3 -1)" style="fill:#091f2f"/><path d="M210.68,362.13h7.93V350.52h-7.93Z" transform="translate(-1.3 -1)" style="fill:#091f2f"/><path d="M143.83,374.45h7.92V362.84h-7.92Z" transform="translate(-1.3 -1)" style="fill:#091f2f"/><path d="M162.13,374.45h7.92V362.84h-7.92Z" transform="translate(-1.3 -1)" style="fill:#091f2f"/><path d="M180.43,374.45h7.92V362.84h-7.92Z" transform="translate(-1.3 -1)" style="fill:#091f2f"/><path d="M201.24,392.25h6.24V379.82h-6.24Z" transform="translate(-1.3 -1)" style="fill:#091f2f"/><path d="M215.82,392.25h6.25V379.82h-6.25Z" transform="translate(-1.3 -1)" style="fill:#091f2f"/><path d="M239.87,386H247V375.62h-7.17Z" transform="translate(-1.3 -1)" style="fill:#091f2f"/><path d="M254.05,386h7.16V375.62h-7.16Z" transform="translate(-1.3 -1)" style="fill:#091f2f"/><path d="M278.64,393.18h5.7V376.41h-5.7Z" transform="translate(-1.3 -1)" style="fill:#091f2f"/><path d="M289.25,393.18H295V376.41h-5.7Z" transform="translate(-1.3 -1)" style="fill:#091f2f"/><path d="M352,244.51v15.77h6.56V244.59h0v-.11a3.41,3.41,0,0,0,0-.5,3.25,3.25,0,0,0-.82-1.93,3.57,3.57,0,0,0-4.87,0,3.27,3.27,0,0,0-.75,1.47c0,.15-.05.29-.07.42s0,.39,0,.49a.54.54,0,0,0,0,.08Z" transform="translate(-1.3 -1)" style="fill:#091f2f"/><path d="M363.71,244.51v15.77h6.57V244.59h0a.31.31,0,0,0,0-.11c0-.11,0-.29,0-.5a3.32,3.32,0,0,0-.82-1.93,3.57,3.57,0,0,0-4.87,0,3,3,0,0,0-.68,1.25,3.72,3.72,0,0,0-.17,1.13v.08Z" transform="translate(-1.3 -1)" style="fill:#091f2f"/><rect x="343.25" y="272.54" width="7.04" height="7.04" style="fill:#091f2f"/><rect x="356.54" y="272.54" width="7.04" height="7.04" style="fill:#091f2f"/><rect x="370.41" y="272.54" width="7.04" height="7.04" style="fill:#091f2f"/><path d="M264,306.15h7.33v-7.33H264Z" transform="translate(-1.3 -1)" style="fill:#091f2f"/><path d="M245.05,306.15h7.33v-7.33h-7.33Z" transform="translate(-1.3 -1)" style="fill:#091f2f"/><path d="M283.13,306.15h7.33v-7.33h-7.33Z" transform="translate(-1.3 -1)" style="fill:#091f2f"/><path d="M290.46,311.37h-7.33v7.33h7.33Z" transform="translate(-1.3 -1)" style="fill:#091f2f"/><path d="M309.8,318h7.32v-7.33H309.8Z" transform="translate(-1.3 -1)" style="fill:#091f2f"/><path d="M332.16,318h7.34v-7.33h-7.34Z" transform="translate(-1.3 -1)" style="fill:#091f2f"/><path d="M354.54,318h7.32v-7.33h-7.32Z" transform="translate(-1.3 -1)" style="fill:#091f2f"/><path d="M376.9,318h7.33v-7.33H376.9Z" transform="translate(-1.3 -1)" style="fill:#091f2f"/><path d="M406.6,310.69h-7.33V318h7.33Z" transform="translate(-1.3 -1)" style="fill:#091f2f"/><path d="M429.46,310.69h-7.32V318h7.32Z" transform="translate(-1.3 -1)" style="fill:#091f2f"/><path d="M445.51,332.55h7.33V323.6h-7.33Z" transform="translate(-1.3 -1)" style="fill:#091f2f"/><path d="M465.72,323.6h-7.33v7.95l.11,1h7.22Z" transform="translate(-1.3 -1)" style="fill:#091f2f"/><path d="M478.61,323.6h-7.33v8.95h7.33Z" transform="translate(-1.3 -1)" style="fill:#091f2f"/><path d="M472.52,374.6H481l1-.15V358.83h-9.49Z" transform="translate(-1.3 -1)" style="fill:#091f2f"/><path d="M499.5,374.56H508l1-.11V358.8H499.5Z" transform="translate(-1.3 -1)" style="fill:#091f2f"/><path d="M423.35,394.22h4.9v-7h-4.9Z" transform="translate(-1.3 -1)" style="fill:#091f2f"/><path d="M440.53,394.22h4.9v-7h-4.9Z" transform="translate(-1.3 -1)" style="fill:#091f2f"/><path d="M407.19,394.22h4.9v-7h-4.9Z" transform="translate(-1.3 -1)" style="fill:#091f2f"/><path d="M370.73,367.52h-7.08v7.08h7.08Z" transform="translate(-1.3 -1)" style="fill:#091f2f"/><path d="M386.18,367.52h-7.07v7.08h7.07Z" transform="translate(-1.3 -1)" style="fill:#091f2f"/><path d="M400.16,367.52h-7.07v7.08h7.07Z" transform="translate(-1.3 -1)" style="fill:#091f2f"/><path d="M244.07,346.06v12.16h7.07V346.06Z" transform="translate(-1.3 -1)" style="fill:#091f2f"/><path d="M365,387.7v7.16h7.16V387.7Z" transform="translate(-1.3 -1)" style="fill:#091f2f"/><path d="M383.64,387.7v7.16h7.16V387.7Z" transform="translate(-1.3 -1)" style="fill:#091f2f"/><path d="M107.63,395.21h7.93v-7.92h-7.93Z" transform="translate(-1.3 -1)" style="fill:#091f2f"/><path d="M124.25,395.21h7.92v-7.92h-7.92Z" transform="translate(-1.3 -1)" style="fill:#091f2f"/><path d="M624.19,398l-17.91-.09V379.8H586.07v-2.46l-10.77-13.7H562.07V348.76l-13.84-14.14-13.84,14.14v8.13H524l0-7.11-4.54-15.06a2.24,2.24,0,0,0-2.16-1.61l-19.64.05,0-10.58L489,295.46l-6.6,21.14H442.05V303.88h3.19L428.48,287h-4.09v-5.6l-8.66-52.55-8.67,52.55V287H388.19V260.72h-9.48V240a3.74,3.74,0,0,0-.73-7,17,17,0,0,0-14.49-14.73v-5.63a13.48,13.48,0,0,1,9.56,4.28,15.81,15.81,0,0,0,12.09,5,16.78,16.78,0,0,0,3.14-.27l1.81-.37V200.79l-2.47.25s-.31,0-.75,0c-.79,0-3.48-.1-4.95-1.45a23.94,23.94,0,0,0-17-6.87c-.61,0-1.26,0-2,.08a2.25,2.25,0,0,0-4,1.47v24A16.83,16.83,0,0,0,344.5,233a3.74,3.74,0,0,0-.75,7v20.77h-9.48V287H298l-3.15-7.19H290.1l-2-24h-1.29v0l-5.76-50.26-5.84,50.26h-1.14l-1.81,24H238.34l-5.44,14.08h1v30.63l-.06.07-11.48,11.53H202.84L195.18,300l-8,37.19v19.15H133.34v20.9h-33.2v20H89.59v3.47l534.6.75ZM364.11,197.28h.81a19.65,19.65,0,0,1,13.93,5.67,11.28,11.28,0,0,0,6.72,2.59v11.85c-2.53.07-6.43-.43-9.15-3.48a18.05,18.05,0,0,0-12.31-5.77ZM486.56,318.5l2.42-9.31,3.48,13.39h-5.9Zm0,8.6h6.57v6h-6.57Zm29.07,10.53,3.53,11.72H461.33l3.52-11.71Zm-73.58-16.51h40v12H463.18a2.3,2.3,0,0,0-1,.23,2.33,2.33,0,0,0-1.24,1.52l-1,3.26H442.05Zm8.3,38c-.09-2.67-1.57-4.33-3.85-4.33a3.52,3.52,0,0,0-2.66,1.08,5.3,5.3,0,0,0-1.18,3.66v17.82h-6.8V359.6a5.42,5.42,0,0,0-1.18-3.73,3.88,3.88,0,0,0-5.34,0,5.35,5.35,0,0,0-1.18,3.66v17.82h-6.87V359.6a5.42,5.42,0,0,0-1.18-3.73,3.88,3.88,0,0,0-5.34,0,5.41,5.41,0,0,0-1.18,3.66v17.82H410.1l0-15.92-6.25-14.69h-4.65v-5.13l59.37.11-2.55,8.78L456,377.35h-5.66V359.59S450.36,359.41,450.35,359.12Zm-44.77,4.57v13.66h-47V363.69Zm-46.18-4.52,2.51-7.91h40.33l2.51,7.91Zm56.33-101.43,3.76,23.7H412ZM411.58,286h8.3V287h-8.3Zm-50.35-64.34a13.38,13.38,0,0,1,13.32,12.24H347.92A13.37,13.37,0,0,1,361.23,221.62Zm-14,17.8h27.92v22.29H347.27Zm-8.48,25.82h44.88V287H338.79Zm-39,28.69H301l-1-2.37H426.61l7.76,7.8H299.8Zm0,11H437.54v31.39h-27.3l-11.66-11.72A2.26,2.26,0,0,0,397,324H299.8Zm-18.7-63.2,1.28,14.12h-2.67Zm-2.85,19H284l1.57,19.05h-8.74Zm-36.81,23.57h50.43l2.21,5H239.49Zm-3,9.91h56.83v29.61H260.11v-9.62a2.57,2.57,0,0,0-.64-1.91,5.43,5.43,0,0,0-6.76,0,2.47,2.47,0,0,0-.64,1.79h0v9.74H238.45Zm-2,34.2H396l7.76,7.8H228.65Zm-32.34,12.57H228v9.47h-4.92v11.61H228v8.18H204.07Zm-8.89-17.46,2.18,10.31H193Zm-3.06,17.46h7.06v15.26h-7.06Zm-39.54,56.24L105,397.22v.64h-1v-.64h1V382.1h47.56Zm36.92,0h-5.42v-6.46h-7.92v6.45H171.3v-6.45h-7.93v6.43h-5.9V381.85h32Zm.77-20.37-52,.23v-16h61v9.11h-8.91ZM230,397.4l-37.59,0V373.2H230Zm38.31.05h-6.65v-4h-7.17v4H247v-4h-7.17v4h-7.36V363.32h35.78Zm33.08.05-28.56,0V358.11h28.56Zm52.68.07h-5.79V384.64h-7.19v12.92h-3V384.64h-7.19v12.9h-7v-23.8h30.09Zm.07-37.77-.07,9.41H349.7v-4.47a3.1,3.1,0,0,0-.74-2.21,3.08,3.08,0,0,0-4.23,0,3,3,0,0,0-.73,2.13v4.55h-2.47v-4.47a3.12,3.12,0,0,0-.73-2.21,3.08,3.08,0,0,0-4.23,0,3,3,0,0,0-.74,2.13v4.55h-2.46v-4.47a3.12,3.12,0,0,0-.73-2.21,2.79,2.79,0,0,0-2.12-.84,3.36,3.36,0,0,0-.58.07,2.73,2.73,0,0,0-2.27,2.9v4.55H325.2v-4.48a3.12,3.12,0,0,0-.71-2.16,2.6,2.6,0,0,0-1.91-.85l-.23,0a2.79,2.79,0,0,0-2.12.84,3,3,0,0,0-.73,2.13l-.06,31.85H305.89V357h49.36Zm-3.47-13.74v6.39H336.41v-6.39h-7.08v6.39H315.09v-6.39H308v6.38l-14.25,0v-6.36H286.7v6.36H272.46v-6.36h-7.08v12.16h2.91v.58H232.51v-18H394.72v5.94H360.25c-.54,0-1,0-2.52,3.51v-4.19Zm45.72,51.57-37.8-.05V381.87h37.8Zm55.12.08-50.61-.07V381.87h50.61Zm23,0-18.47,0v-7.56h18.47Zm0-10.11H456V383h18.47Zm45.46,10.18v.05H479V386.05h40.94Zm0-17.85h-59.4V354.3h59.4Zm19-29.36,9.32-9.52,9.32,9.52v13H538.91Zm-14.45,10.81h9.93v14.45h-9.93Zm51.48,36.45H548.8v-7.37h27.14Zm0-11.9H544.28v11.88h-2.62v-9.51H535v9.5h-1.86v-9.5h-6.64v9.49h-2.06V380.38h51.48Zm-37-10.1v-7.7H573.1l6.06,7.7Zm62.85,22-3,.06V395.1h-6.64v2.81h-2.68l0-.05V395.1h-6.64v2.76l0,0-2.38,0V384.32h21.3Z" transform="translate(-1.3 -1)" style="fill:#091f2f"/></svg>