<svg xmlns="http://www.w3.org/2000/svg" width="201" height="28" fill="none" viewBox="0 0 201 28">
    <path fill="#000" d="M18.71 19.71c0 4.902-2.902 7.903-8.805 7.903H4.302A4.27 4.27 0 0 1 0 23.311V.201C0 .1.1 0 .2 0h7.704c5.903 0 8.804 2.901 8.804 7.904 0 2.501-.7 4.202-2.2 5.302-.101.1-.101.2 0 .3 2.8.801 4.201 2.802 4.201 6.204zM3.901 4.102v7.504c0 .1.1.2.2.2h4.402c2.702 0 4.803-2.501 4.202-5.203-.5-2-2.3-2.701-4.802-2.701H4.102c-.1 0-.2.1-.2.2zM14.607 20.91c.6-2.601-1.5-5.202-4.202-5.202H4.102c-.1 0-.2.1-.2.2v7.503c0 .1.1.2.2.2h5.703c2.501 0 4.302-.7 4.802-2.7zM38.719 18.71H25.112c.4 3.3 3.102 4.901 5.803 4.901 3.902 0 5.903-2 5.903-2v3.901s-2.001 2.001-5.903 2.001c-5.903 0-9.805-3.902-9.805-9.804 0-5.903 3.902-9.805 8.805-9.805 4.902 0 8.804 3.902 8.804 9.805v1zm-13.507-3.002h9.405c-.6-2.602-2.301-3.902-4.702-3.902-2.402 0-4.203 1.3-4.703 3.902zM48.023 11.806v11.806h5.903v3.901h-3.902c-3.901 0-5.903-2-5.903-5.903v-9.804H40.22V7.904h3.901V0h3.902v7.904h5.903v3.902h-5.903zM75.937 7.904v19.71h-3.902V19.71c0 4.902-2 7.903-5.903 7.903-4.902 0-8.804-3.901-8.804-9.804 0-5.903 3.902-9.805 8.804-9.805 3.902 0 5.903 2.901 5.903 7.904V7.904h3.902zm-3.902 9.805c0-3.902-2-5.903-4.902-5.903s-5.903 2-5.903 5.903c0 3.901 3.001 5.902 5.903 5.902 2.901 0 4.902-2 4.902-5.902zM109.553 19.71c0 4.902-2.901 7.903-8.804 7.903h-9.705c-.1 0-.2-.1-.2-.2V5.603A5.594 5.594 0 0 1 96.447 0h2.301c5.903 0 8.804 2.901 8.804 7.904 0 2.501-.7 4.202-2.201 5.302-.1.1-.1.2 0 .3 2.902.801 4.202 2.802 4.202 6.204zM94.846 4.102v7.504c0 .1.1.2.2.2h4.402c2.702 0 4.803-2.501 4.203-5.203-.501-2-2.302-2.701-4.803-2.701h-3.802c-.1 0-.2.1-.2.2zm10.705 16.808c.601-2.601-1.5-5.202-4.202-5.202h-6.303c-.1 0-.2.1-.2.2v7.503c0 .1.1.2.2.2h5.703c2.501 0 4.302-.7 4.802-2.7zM124.761 23.611v3.902h-11.806v-3.902h3.902V3.901h-3.902V0h2.401a5.38 5.38 0 0 1 5.403 5.403V23.61h4.002zM164.88 8.804v3.902s-2.901-1-4.902-1c-2.901 0-5.903 2-5.903 5.903 0 3.901 3.002 5.902 5.903 5.902 2.001 0 4.902-1 4.902-1v3.902s-2.001 1-4.902 1c-5.903 0-9.805-3.902-9.805-9.804 0-5.903 3.902-9.805 9.805-9.805 2.901.1 4.902 1 4.902 1zM178.087 17.709l7.904 9.804h-4.903l-3.902-4.902-1.3-2.101-2.702 3.302v3.701h-3.901V0h3.901v18.71l3.902-5.904 3.902-4.902h4.903l-7.804 9.805zM193.194 27.513c-3.001 0-5.903-1-5.903-1V22.61s2.902 1 5.903 1c2.001 0 2.902-1 2.902-2 0-2.902-9.805-1.001-9.805-7.904 0-3.902 2.901-5.903 6.903-5.903 2.902 0 5.903 1 5.903 1v3.902s-2.901-1-5.903-1c-2.001 0-3.001 1-3.001 2 0 2.902 9.804 1.001 9.804 7.904.101 4.003-2.801 5.903-6.803 5.903z"/>
    <path fill="#B5191D" d="M132.064 17.709c0 3.901 3.002 5.902 5.903 5.902 2.902 0 5.903-2 5.903-5.902s-3.001-5.903-5.903-5.903c-3.001 0-5.903 2-5.903 5.903z"/>
</svg>
