<svg width="320" height="105" viewBox="0 0 320 105" fill="none" xmlns="http://www.w3.org/2000/svg">
<rect x="10" y="10" width="300" height="85" rx="7" fill="#FEEFEB"/>
<rect x="10" y="10" width="300" height="85" rx="7" fill="url(#paint0_linear)"/>
<g opacity="0.176">
<mask id="mask0" mask-type="alpha" maskUnits="userSpaceOnUse" x="10" y="10" width="300" height="85">
<rect x="10" y="10" width="300" height="85" rx="7" fill="#FEEFEB"/>
<rect x="10" y="10" width="300" height="85" rx="7" fill="url(#paint1_linear)"/>
</mask>
<g mask="url(#mask0)">
<path d="M51.3256 77L33.3252 87.026L33 107.026L50.6737 117L68.6734 106.975L69 86.9752L51.3256 77Z" fill="#FCD0CD"/>
<path fill-rule="evenodd" clip-rule="evenodd" d="M51.8322 76L71 86.4573L70.6443 107.514L51.1671 118L32 107.544L32.3542 86.4872L51.8322 76ZM35.045 88.0932L34.7442 105.977L51.1757 114.941L67.9536 105.908L68.2557 88.0241L51.8236 79.0594L35.045 88.0932Z" fill="white"/>
<path d="M15.3242 77L-2.67621 87.0269L-3 107.027L14.6751 117L32.6748 106.974L33 86.9742L15.3242 77Z" fill="#FCCCC9"/>
<path fill-rule="evenodd" clip-rule="evenodd" d="M15.8307 76L35 86.4562L34.6458 107.513L15.1686 118L-4 107.545L-3.64733 86.4882L15.8307 76ZM-0.956288 88.094L-1.25581 105.978L15.177 114.941L31.9549 105.907L32.2557 88.0233L15.8223 79.0593L-0.956288 88.094Z" fill="white"/>
<path d="M70.3264 48L52.3259 57.7749L52 77.2749L69.6731 87L87.6727 77.2262L88 57.7263L70.3264 48Z" fill="#FBAFBA"/>
<path fill-rule="evenodd" clip-rule="evenodd" d="M69.833 46L89 56.7068L88.6435 78.2648L69.1664 89L50 78.2945L50.355 56.7363L69.833 46ZM53.0455 58.3805L52.7441 76.6904L69.1751 85.8681L85.953 76.6206L86.2558 58.3107L69.8243 49.132L53.0455 58.3805Z" fill="white"/>
<path d="M87.327 77L69.3266 87.0252L69 107.025L86.6724 117L104.672 106.976L105 86.9761L87.327 77Z" fill="#FCCBC9"/>
<path fill-rule="evenodd" clip-rule="evenodd" d="M87.3422 76L107 86.4583L106.634 107.515L86.6571 118L67 107.543L67.3648 86.4863L87.3422 76ZM70.1244 88.0924L69.8146 105.976L86.6661 114.941L103.874 105.909L104.185 88.025L87.3332 79.0594L70.1244 88.0924Z" fill="white"/>
<path d="M33.834 48L15.3336 57.7758L15 77.2758L33.1654 87L51.665 77.2254L52 57.7254L33.834 48Z" fill="#FDD3D0"/>
<path fill-rule="evenodd" clip-rule="evenodd" d="M34.34 46L54 56.7058L53.6359 78.2639L33.6593 89L14 78.2956L14.3626 56.7374L34.34 46ZM17.1224 58.3814L16.8144 76.6913L33.6681 85.8681L50.8763 76.6198L51.1855 58.3099L34.3313 49.132L17.1224 58.3814Z" fill="white"/>
<path d="M-2.16744 48L-20.6678 57.7768L-21 77.2768L-2.83324 87L15.6664 77.2245L16 57.7245L-2.16744 48Z" fill="#FDDDDA"/>
<path fill-rule="evenodd" clip-rule="evenodd" d="M-1.67843 46L17 56.7048L16.6555 78.2629L-2.32227 89L-21 78.2966L-20.657 56.7385L-1.67843 46ZM-18.035 58.3823L-18.3263 76.6922L-2.31412 85.8681L14.0336 76.619L14.3262 58.3091L-1.68659 49.132L-18.035 58.3823Z" fill="white"/>
<path d="M88.8361 18L70.3357 27.7744L70 47.2744L88.1633 57L106.663 47.2268L107 27.7269L88.8361 18Z" fill="#FBB6BD"/>
<path fill-rule="evenodd" clip-rule="evenodd" d="M88.3422 16L108 26.7074L107.634 48.2655L87.657 59L68 48.294L68.3649 26.7359L88.3422 16ZM71.1242 28.38L70.8143 46.6901L87.666 55.8683L104.874 46.6213L105.186 28.3112L88.3332 19.1318L71.1242 28.38Z" fill="white"/>
<path d="M106.328 48L88.3273 57.7739L88 77.274L105.672 87L123.671 77.2272L124 57.7272L106.328 48Z" fill="#FCD1CE"/>
<path fill-rule="evenodd" clip-rule="evenodd" d="M105.834 46L125 56.7078L124.642 78.2659L105.165 89L86 78.2935L86.3565 56.7353L105.834 46ZM89.0469 58.3796L88.7441 76.6895L105.174 85.868L121.952 76.6215L122.256 58.3116L105.826 49.132L89.0469 58.3796Z" fill="white"/>
<path d="M123.837 77L105.337 87.0242L105 107.024L123.162 117L141.661 106.977L142 86.9771L123.837 77Z" fill="#FCD1CE"/>
<path fill-rule="evenodd" clip-rule="evenodd" d="M122.835 76L142 86.4593L141.641 107.516L122.164 118L103 107.542L103.357 86.4853L122.835 76ZM106.048 88.0915L105.744 105.975L122.173 114.941L138.951 105.91L139.256 88.0258L122.826 79.0594L106.048 88.0915Z" fill="white"/>
<path d="M52.3256 18L34.3252 27.7753L34 47.2753L51.6737 57L69.6734 47.2259L70 27.7259L52.3256 18Z" fill="#FCC0C1"/>
<path fill-rule="evenodd" clip-rule="evenodd" d="M52.8322 16L72 26.7064L71.6442 48.2645L52.167 59L33 48.295L33.3542 26.7368L52.8322 16ZM36.0448 28.3807L35.7439 46.6909L52.1757 55.8683L68.9538 46.6204L69.256 28.3103L52.8236 19.1318L36.0448 28.3807Z" fill="white"/>
<path d="M16.3243 18L-1.67616 27.7762L-2 47.2762L15.6751 57L33.6748 47.2249L34 27.725L16.3243 18Z" fill="#FDE4E1"/>
<path fill-rule="evenodd" clip-rule="evenodd" d="M16.8308 16L36 26.7053L35.6458 48.2634L16.1686 59L-3 48.296L-2.64729 26.7379L16.8308 16ZM0.0434638 28.3816L-0.256109 46.6918L16.177 55.8683L32.9551 46.6195L33.256 28.3094L16.8223 19.1318L0.0434638 28.3816Z" fill="white"/>
<path d="M106.837 -12L88.3364 -1.97552L88 18.0244L106.163 28L124.662 17.9767L125 -2.02326L106.837 -12Z" fill="#FBB6BD"/>
<path fill-rule="evenodd" clip-rule="evenodd" d="M107.326 -13L126 -2.54107L125.651 18.5156L106.673 29L88 18.5423L88.3474 -2.51438L107.326 -13ZM90.9685 -0.908555L90.6734 16.9759L106.682 25.9413L123.03 16.9097L123.326 -0.974814L107.317 -9.94122L90.9685 -0.908555Z" fill="white"/>
<path d="M70.8173 -12L53.3169 -1.97464L53 18.0254L70.1821 28L87.6817 17.9757L88 -2.02414L70.8173 -12Z" fill="#FCC0C1"/>
<path fill-rule="evenodd" clip-rule="evenodd" d="M70.833 -13L90 -2.542L89.6435 18.5146L70.1663 29L51 18.5433L51.355 -2.51344L70.833 -13ZM54.0453 -0.90778L53.7438 16.9768L70.1751 25.9413L86.9533 16.9088L87.2561 -0.9756L70.8243 -9.94123L54.0453 -0.90778Z" fill="white"/>
<path d="M35.325 -12L17.3246 -1.97365L17 18.0263L34.6744 28L52.674 17.9748L53 -2.02517L35.325 -12Z" fill="#FDE4E1"/>
<path fill-rule="evenodd" clip-rule="evenodd" d="M34.8315 -13L54 -2.5431L53.645 18.5136L34.1677 29L15 18.5443L15.3535 -2.5124L34.8315 -13ZM18.044 -0.906903L17.7438 16.9776L34.1763 25.9413L50.9546 16.908L51.2561 -0.976516L34.823 -9.94124L18.044 -0.906903Z" fill="white"/>
<path d="M-1.16743 -12L-19.6678 -1.72209L-20 18.778L-1.83324 29L16.6664 18.7232L17 -1.7767L-1.16743 -12Z" fill="#FFF7F3"/>
<path fill-rule="evenodd" clip-rule="evenodd" d="M-0.661486 -13L19 -2.54404L18.6374 18.5126L-1.33924 29L-21 18.5454L-20.6389 -2.51147L-0.661486 -13ZM-17.8792 -0.906127L-18.1859 16.9785L-1.33065 25.9413L15.8779 16.9072L16.1858 -0.9773L-0.670093 -9.94125L-17.8792 -0.906127Z" fill="white"/>
<path d="M231.333 77L213.332 87.0213L213 107.021L230.667 117L248.667 106.98L249 86.9798L231.333 77Z" fill="#FDDDD9"/>
<path fill-rule="evenodd" clip-rule="evenodd" d="M231.348 76L251 86.4622L250.628 107.519L230.651 118L211 107.539L211.371 86.4822L231.348 76ZM214.13 88.089L213.815 105.973L230.661 114.941L247.869 105.912L248.185 88.0283L231.339 79.0594L214.13 88.089Z" fill="white"/>
<path d="M195.331 77L177.331 87.0223L177 107.022L194.668 117L212.668 106.979L213 86.9789L195.331 77Z" fill="#FDDDD9"/>
<path fill-rule="evenodd" clip-rule="evenodd" d="M195.838 76L215 86.4612L214.638 107.518L195.161 118L176 107.54L176.36 86.4832L195.838 76ZM179.05 88.0898L178.744 105.974L195.171 114.941L211.948 105.911L212.256 88.0274L195.829 79.0594L179.05 88.0898Z" fill="white"/>
<path d="M159.33 77L141.329 87.0232L141 107.023L158.67 117L176.669 106.978L177 86.978L159.33 77Z" fill="#FCD2CE"/>
<path fill-rule="evenodd" clip-rule="evenodd" d="M159.328 76L178 86.4602L177.649 107.517L158.671 118L140 107.541L140.35 86.4843L159.328 76ZM142.971 88.0907L142.674 105.975L158.68 114.941L175.028 105.91L175.326 88.0266L159.319 79.0594L142.971 88.0907Z" fill="white"/>
<path d="M249.842 48L231.342 57.7703L231 77.2703L249.157 87L267.657 77.2309L268 57.7309L249.842 48Z" fill="#FDDBD8"/>
<path fill-rule="evenodd" clip-rule="evenodd" d="M249.84 46L269 56.7119L268.636 78.2701L249.159 89L230 78.2894L230.362 56.7313L249.84 46ZM233.052 58.3763L232.744 76.6862L249.169 85.868L265.947 76.625L266.256 58.3151L249.831 49.1321L233.052 58.3763Z" fill="white"/>
<path d="M267.843 77L249.343 87.0203L249 107.02L267.156 117L285.656 106.981L286 86.9808L267.843 77Z" fill="#FDD6D3"/>
<path fill-rule="evenodd" clip-rule="evenodd" d="M266.841 76L286 86.4632L285.635 107.52L266.158 118L247 107.538L247.363 86.4812L266.841 76ZM250.053 88.0881L249.744 105.972L266.168 114.941L282.946 105.913L283.256 88.0291L266.831 79.0594L250.053 88.0881Z" fill="white"/>
<path d="M213.823 48L196.322 57.7712L196 77.2713L213.177 87L230.676 77.23L231 57.73L213.823 48Z" fill="#FEE7E3"/>
<path fill-rule="evenodd" clip-rule="evenodd" d="M213.839 46L233 56.711L232.638 78.269L213.161 89L194 78.2905L194.361 56.7323L213.839 46ZM197.051 58.3771L196.744 76.687L213.17 85.868L229.948 76.6241L230.256 58.3143L213.829 49.1321L197.051 58.3771Z" fill="white"/>
<path d="M177.84 48L159.339 57.7722L159 77.2722L177.16 87L195.659 77.2291L196 57.7291L177.84 48Z" fill="#FCD2CE"/>
<path fill-rule="evenodd" clip-rule="evenodd" d="M177.837 46L197 56.7099L196.639 78.268L177.162 89L158 78.2915L158.359 56.7334L177.837 46ZM161.049 58.378L160.744 76.6879L177.171 85.868L193.949 76.6232L194.256 58.3133L177.828 49.132L161.049 58.378Z" fill="white"/>
<path d="M141.838 48L123.338 57.773L123 77.273L141.161 87L159.661 77.2281L160 57.7282L141.838 48Z" fill="#FDD3CF"/>
<path fill-rule="evenodd" clip-rule="evenodd" d="M141.836 46L161 56.7089L160.64 78.2669L141.163 89L122 78.2924L122.358 56.7343L141.836 46ZM125.048 58.3788L124.744 76.6887L141.172 85.868L157.95 76.6224L158.256 58.3125L141.827 49.132L125.048 58.3788Z" fill="white"/>
<path d="M268.334 18L250.333 27.7698L250 47.2698L267.666 57L285.665 47.2314L286 27.7314L268.334 18Z" fill="#FDD4D1"/>
<path fill-rule="evenodd" clip-rule="evenodd" d="M268.332 16L287 26.7125L286.645 48.2705L267.667 59L249 48.2888L249.354 26.7307L268.332 16ZM251.974 28.3757L251.674 46.6858L267.676 55.8682L284.024 46.6255L284.326 28.3154L268.323 19.1319L251.974 28.3757Z" fill="white"/>
<path d="M285.844 48L267.343 57.7693L267 77.2694L285.155 87L303.655 77.2318L304 57.7319L285.844 48Z" fill="#FBB6BC"/>
<path fill-rule="evenodd" clip-rule="evenodd" d="M285.842 46L305 56.713L304.635 78.271L285.157 89L266 78.2884L266.364 56.7302L285.842 46ZM269.053 58.3754L268.744 76.6853L285.167 85.868L301.945 76.6258L302.256 58.316L285.832 49.1321L269.053 58.3754Z" fill="white"/>
<path d="M303.335 77L285.335 87.0194L285 107.019L302.664 117L320.664 106.982L321 86.9818L303.335 77Z" fill="#FA9EB4"/>
<path fill-rule="evenodd" clip-rule="evenodd" d="M303.334 76L322 86.4642L321.643 107.521L302.666 118L284 107.537L284.355 86.4802L303.334 76ZM286.976 88.0873L286.674 105.971L302.675 114.941L319.023 105.914L319.326 88.03L303.324 79.0594L286.976 88.0873Z" fill="white"/>
<path d="M232.332 18L214.332 27.7707L214 47.2707L231.667 57L249.667 47.2305L250 27.7305L232.332 18Z" fill="#FDD7D3"/>
<path fill-rule="evenodd" clip-rule="evenodd" d="M232.348 16L252 26.7115L251.627 48.2695L231.651 59L212 48.2898L212.371 26.7317L232.348 16ZM215.13 28.3765L214.814 46.6866L231.661 55.8682L248.869 46.6246L249.186 28.3146L232.339 19.1319L215.13 28.3765Z" fill="white"/>
<path d="M196.331 18L178.331 27.7716L178 47.2716L195.668 57L213.668 47.2296L214 27.7296L196.331 18Z" fill="#FEE7E3"/>
<path fill-rule="evenodd" clip-rule="evenodd" d="M196.838 16L216 26.7105L215.638 48.2685L196.161 59L177 48.2908L177.36 26.7327L196.838 16ZM180.05 28.3773L179.744 46.6875L196.171 55.8682L212.949 46.6238L213.256 28.3138L196.829 19.1318L180.05 28.3773Z" fill="white"/>
<path d="M160.33 18L142.329 27.7725L142 47.2725L159.67 57L177.669 47.2286L178 27.7287L160.33 18Z" fill="#FEE5E1"/>
<path fill-rule="evenodd" clip-rule="evenodd" d="M160.837 16L180 26.7094L179.64 48.2674L160.163 59L141 48.2918L141.359 26.7337L160.837 16ZM144.049 28.3782L143.744 46.6883L160.172 55.8682L176.95 46.6229L177.256 28.3128L160.827 19.1318L144.049 28.3782Z" fill="white"/>
<path d="M124.328 18L106.328 27.7735L106 47.2735L123.671 57L141.671 47.2277L142 27.7277L124.328 18Z" fill="#FDD3CF"/>
<path fill-rule="evenodd" clip-rule="evenodd" d="M124.327 16L143 26.7084L142.651 48.2664L123.673 59L105 48.2929L105.348 26.7348L124.327 16ZM107.969 28.3791L107.674 46.6892L123.682 55.8682L140.029 46.6221L140.326 28.312L124.318 19.1318L107.969 28.3791Z" fill="white"/>
<path d="M286.844 -12L268.343 -1.98027L268 18.0198L286.155 28L304.655 17.9814L305 -2.01851L286.844 -12Z" fill="#FCD1CE"/>
<path fill-rule="evenodd" clip-rule="evenodd" d="M286.842 -13L306 -2.53602L305.634 18.5206L286.157 29L267 18.5373L267.364 -2.5194L286.842 -13ZM270.053 -0.912745L269.744 16.9718L286.167 25.9412L302.946 16.9139L303.256 -0.97058L286.832 -9.94115L270.053 -0.912745Z" fill="white"/>
<path d="M304.335 18L286.335 27.7688L286 47.2688L303.664 57L321.664 47.2323L322 27.7323L304.335 18Z" fill="#FDDCD8"/>
<path fill-rule="evenodd" clip-rule="evenodd" d="M304.843 16L324 26.7135L323.634 48.2715L304.157 59L285 48.2877L285.365 26.7296L304.843 16ZM288.054 28.3748L287.744 46.6848L304.167 55.8682L320.945 46.6263L321.256 28.3163L304.833 19.1319L288.054 28.3748Z" fill="white"/>
<path d="M321.845 48L303.345 57.7685L303 77.2685L321.154 87L339.654 77.2327L340 57.7327L321.845 48Z" fill="#FCC5C4"/>
<path fill-rule="evenodd" clip-rule="evenodd" d="M321.843 46L341 56.714L340.633 78.2721L321.156 89L302 78.2874L302.365 56.7293L321.843 46ZM305.055 58.3746L304.744 76.6844L321.166 85.868L337.944 76.6266L338.256 58.3168L321.833 49.1321L305.055 58.3746Z" fill="white"/>
<path d="M250.842 -12L232.342 -1.97933L232 18.0207L250.157 28L268.657 17.9805L269 -2.01941L250.842 -12Z" fill="#FCD1CE"/>
<path fill-rule="evenodd" clip-rule="evenodd" d="M250.84 -13L270 -2.53698L269.636 18.5196L250.159 29L231 18.5383L231.363 -2.5184L250.84 -13ZM234.052 -0.911912L233.744 16.9726L250.169 25.9412L266.947 16.913L267.256 -0.971386L250.831 -9.94116L234.052 -0.911912Z" fill="white"/>
<path d="M214.823 -12L197.322 -1.97836L197 18.0216L214.177 28L231.676 17.9795L232 -2.02038L214.823 -12Z" fill="#FDD8D4"/>
<path fill-rule="evenodd" clip-rule="evenodd" d="M214.839 -13L234 -2.53801L233.637 18.5186L214.16 29L195 18.5393L195.361 -2.51738L214.839 -13ZM198.05 -0.911061L197.744 16.9734L214.17 25.9412L230.948 16.9122L231.256 -0.972249L214.829 -9.94118L198.05 -0.911061Z" fill="white"/>
<path d="M179.33 -12L161.33 -1.97746L161 18.0226L178.669 28L196.669 17.9786L197 -2.02133L179.33 -12Z" fill="#FDE4E0"/>
<path fill-rule="evenodd" clip-rule="evenodd" d="M178.837 -13L198 -2.53901L197.639 18.5177L178.162 29L159 18.5403L159.36 -2.51642L178.837 -13ZM162.049 -0.910262L161.744 16.9743L178.171 25.9413L194.949 16.9114L195.256 -0.973087L178.828 -9.94119L162.049 -0.910262Z" fill="white"/>
<path d="M142.838 -12L124.338 -1.97649L124 18.0236L142.161 28L160.661 17.9777L161 -2.02229L142.838 -12Z" fill="#FEE5E1"/>
<path fill-rule="evenodd" clip-rule="evenodd" d="M143.345 -13L163 -2.54004L162.631 18.5166L142.655 29L123 18.5414L123.367 -2.5154L143.345 -13ZM126.126 -0.909408L125.814 16.9751L142.664 25.9413L159.872 16.9105L160.186 -0.973954L143.335 -9.9412L126.126 -0.909408Z" fill="white"/>
<path d="M322.827 -12L305.326 -1.98117L305 18.0188L322.173 28L339.672 17.9824L340 -2.01756L322.827 -12Z" fill="#FEEEEA"/>
<path fill-rule="evenodd" clip-rule="evenodd" d="M322.843 -13L342 -2.53501L341.633 18.5217L322.156 29L303 18.5363L303.366 -2.52035L322.843 -13ZM306.054 -0.913542L305.744 16.9709L322.166 25.9412L338.944 16.9147L339.256 -0.969737L322.833 -9.94114L306.054 -0.913542Z" fill="white"/>
</g>
</g>
<defs>
<linearGradient id="paint0_linear" x1="160" y1="10" x2="160" y2="95" gradientUnits="userSpaceOnUse">
<stop stop-color="white"/>
<stop offset="1" stop-color="white" stop-opacity="0"/>
</linearGradient>
<linearGradient id="paint1_linear" x1="160" y1="10" x2="160" y2="95" gradientUnits="userSpaceOnUse">
<stop stop-color="white"/>
<stop offset="1" stop-color="white" stop-opacity="0"/>
</linearGradient>
</defs>
</svg>
