<svg width="27" height="41" viewBox="0 0 27 41" fill="none" xmlns="http://www.w3.org/2000/svg">
<path fill-rule="evenodd" clip-rule="evenodd" d="M13.6322 38.8267L23.9519 20.3282C25.1015 18.2676 25.7049 15.9472 25.7049 13.5877V12.8414C25.7049 10.5549 25.0179 8.32112 23.7329 6.4298C22.3206 4.35097 20.2614 2.79664 17.8751 2.00815L17.5628 1.90497C15.0119 1.06208 12.2559 1.07208 9.71112 1.93344L9.33186 2.06181C7.09272 2.81972 5.12743 4.22231 3.68279 6.09345C2.06154 8.19332 1.18213 10.7714 1.18213 13.4243V13.7368C1.18213 15.9965 1.7752 18.2167 2.90209 20.1755L13.6322 38.8267ZM13.4436 19.9697C16.4315 19.9697 18.8538 17.5475 18.8538 14.5595C18.8538 11.5715 16.4315 9.14931 13.4436 9.14931C10.4556 9.14931 8.03338 11.5715 8.03338 14.5595C8.03338 17.5475 10.4556 19.9697 13.4436 19.9697Z" fill="#F8C8C5"/>
<path d="M23.9519 20.3282L24.8252 20.8154L24.8252 20.8153L23.9519 20.3282ZM13.6322 38.8267L12.7654 39.3253L13.6456 40.8553L14.5055 39.3138L13.6322 38.8267ZM23.7329 6.4298L24.5601 5.86783L24.5601 5.86783L23.7329 6.4298ZM17.8751 2.00815L17.5614 2.95766L17.5614 2.95766L17.8751 2.00815ZM17.5628 1.90497L17.8765 0.955458L17.8765 0.955458L17.5628 1.90497ZM9.71112 1.93344L9.39051 0.986229L9.39051 0.98623L9.71112 1.93344ZM9.33186 2.06181L9.65247 3.00902L9.65247 3.00902L9.33186 2.06181ZM3.68279 6.09345L2.89125 5.48233L2.89125 5.48233L3.68279 6.09345ZM2.90209 20.1755L2.0353 20.6742L2.0353 20.6742L2.90209 20.1755ZM23.0786 19.841L12.7589 38.3395L14.5055 39.3138L24.8252 20.8154L23.0786 19.841ZM24.7049 13.5877C24.7049 15.7767 24.1451 17.9293 23.0786 19.841L24.8252 20.8153C26.0578 18.6058 26.7049 16.1178 26.7049 13.5877H24.7049ZM24.7049 12.8414V13.5877H26.7049V12.8414H24.7049ZM22.9058 6.99176C24.0781 8.71732 24.7049 10.7553 24.7049 12.8414H26.7049C26.7049 10.3545 25.9577 7.92493 24.5601 5.86783L22.9058 6.99176ZM17.5614 2.95766C19.7385 3.67704 21.6172 5.09514 22.9058 6.99176L24.5601 5.86783C23.024 3.6068 20.7843 1.91623 18.1888 1.05864L17.5614 2.95766ZM17.2491 2.85448L17.5614 2.95766L18.1888 1.05864L17.8765 0.955458L17.2491 2.85448ZM10.0317 2.88065C12.3709 2.08888 14.9042 2.07969 17.2491 2.85448L17.8765 0.955458C15.1195 0.0444748 12.1409 0.0552754 9.39051 0.986229L10.0317 2.88065ZM9.65247 3.00902L10.0317 2.88065L9.39051 0.98623L9.01125 1.1146L9.65247 3.00902ZM4.47432 6.70457C5.79854 4.98942 7.6 3.70375 9.65247 3.00902L9.01125 1.1146C6.58545 1.93569 4.45632 3.45521 2.89125 5.48233L4.47432 6.70457ZM2.18213 13.4243C2.18213 10.9925 2.98823 8.62939 4.47432 6.70457L2.89125 5.48233C1.13486 7.75725 0.182129 10.5502 0.182129 13.4243H2.18213ZM2.18213 13.7368V13.4243H0.182129V13.7368H2.18213ZM3.76888 19.6768C2.72927 17.8698 2.18213 15.8215 2.18213 13.7368H0.182129C0.182129 16.1716 0.821137 18.5637 2.0353 20.6742L3.76888 19.6768ZM14.499 38.328L3.76888 19.6768L2.0353 20.6742L12.7654 39.3253L14.499 38.328ZM17.8538 14.5595C17.8538 16.9952 15.8793 18.9697 13.4436 18.9697V20.9697C16.9838 20.9697 19.8538 18.0998 19.8538 14.5595H17.8538ZM13.4436 10.1493C15.8793 10.1493 17.8538 12.1238 17.8538 14.5595H19.8538C19.8538 11.0193 16.9838 8.14931 13.4436 8.14931V10.1493ZM9.03338 14.5595C9.03338 12.1238 11.0079 10.1493 13.4436 10.1493V8.14931C9.90332 8.14931 7.03338 11.0193 7.03338 14.5595H9.03338ZM13.4436 18.9697C11.0079 18.9697 9.03338 16.9952 9.03338 14.5595H7.03338C7.03338 18.0998 9.90332 20.9697 13.4436 20.9697V18.9697Z" fill="#253E4D"/>
</svg>
