<svg xmlns="http://www.w3.org/2000/svg" width="141" height="50" fill="none" viewBox="0 0 141 50">
    <path fill="#000" d="M47.698 49.398a4.94 4.94 0 0 1-2.266-.505 4.24 4.24 0 0 1-1.719-1.702c-.585-1.06-.833-2.517-.833-4.883 0-5.389-.413-8.862-1.227-10.324-.323-.59-.587-.82-2.064-.849v18.18h-3.956V27.22h3.63c.947 0 2.042.031 3.075.406 1.21.447 2.136 1.26 2.825 2.492 1.194 2.17 1.707 5.819 1.707 12.191 0 1.926.209 2.72.385 3.045a.82.82 0 0 0 .043.08s.069.051.4.051c.245 0 .245 0 .32-.167.263-.538.395-1.548.395-3.009 0-6.377.51-10.021 1.705-12.188.649-1.21 1.59-2.052 2.799-2.495 1.062-.375 2.143-.406 3.075-.406h3.63v22.096h-3.96v-18.18c-1.38.025-1.703.227-2.065.855-.806 1.443-1.194 4.82-1.194 10.318 0 2.165-.235 3.604-.766 4.673a4.028 4.028 0 0 1-1.597 1.79 4.363 4.363 0 0 1-2.342.627zM139.4 13.94h-10.479V0h3.504v10.443h6.975v3.497zm-9.584-.895h8.689v-1.707h-6.975V.896h-1.714v12.15zM135.148 50h-6.654V36.06h6.207c3.201 0 4.659 2.27 4.659 4.38.001.807-.219 1.6-.636 2.291a4.386 4.386 0 0 1-.083 5.908c-.855.892-2.064 1.361-3.493 1.361zm-5.759-.895h5.759c2.599 0 3.784-1.79 3.784-3.466a3.402 3.402 0 0 0-1.079-2.523l-.298-.27.237-.325c.443-.606.68-1.338.677-2.089 0-2.394-1.951-3.485-3.764-3.485h-5.311l-.005 12.158zm5.759-1.714h-4.045v-3.505h4.045c1.395 0 2.125.882 2.125 1.753 0 .871-.73 1.752-2.125 1.752zm-3.149-.895h3.149c.844 0 1.229-.448 1.229-.857s-.385-.858-1.229-.858h-3.149v1.715zm2.803-4.327h-3.699v-3.5h3.598c1.383 0 2.106.882 2.106 1.751 0 1.104-1.004 1.718-1.998 1.752l-.007-.003zm-2.803-.895h2.787c.777-.032 1.126-.448 1.126-.858s-.379-.856-1.211-.856h-2.702v1.714zM41.923 8.986c0-5.502 3.58-8.986 9.174-8.986 5.593 0 8.791 3.036 8.791 8.223v.253h-4.177v-.312c0-2.657-1.581-4.428-4.617-4.428C47.967 3.73 46.1 6.014 46.1 8.802v5.434c0 3.036 1.74 5.06 4.997 5.06 3.32 0 4.617-1.612 4.617-4.27v-.22h-5.37v-3.669h9.547v3.669c0 5.281-3.067 8.222-8.791 8.222-5.447 0-9.177-3.099-9.177-8.982v-5.06zM74.846.448l6.573 22.137h-4.301l-1.33-4.934h-8.154l-1.328 4.934h-4.301L68.14.448h6.705zm-.036 13.41l-3.133-9.931h-.38l-2.686 9.93h6.199zM83.537 8.986c0-5.502 3.58-8.981 9.172-8.981 5.592 0 8.791 3.036 8.791 8.223v.252h-4.178v-.316c0-2.657-1.581-4.428-4.616-4.428-3.133 0-4.998 2.278-4.998 5.06v5.44c0 3.036 1.74 5.06 4.998 5.06 3.32 0 4.616-1.612 4.616-4.269v-.22h-5.37v-3.67h9.548v3.67c0 5.28-3.068 8.221-8.79 8.221-5.44 0-9.173-3.099-9.173-8.981v-5.06zM121.726.448v3.795h-13.008v5.282h12.127v3.795h-12.127v5.478h13.199v3.794h-17.373V.448h17.182zM17.198.448v3.795H4.19v5.282h12.123v3.795H4.19v5.478h13.197v3.794H.017V.448h17.182zM80.209 27.24v3.792H67.2v5.281h12.123v3.795H67.201v5.471H80.4v3.803H63.026V27.24H80.21zM122.11 27.416v3.793h-6.705V49.56h-4.177V31.21h-6.702v-3.794h17.584zM28.11 40.459v-3.952H0v3.952h28.11zM101.451 27.417h-3.954v18.235l-.084-.012c-.951-.135-1.564-.702-1.991-1.838-.492-1.322-.642-3.15-.8-5.083l-.028-.344c-.199-2.519-.404-5.123-1.331-7.182-.55-1.207-1.286-2.103-2.238-2.737-.916-.62-2.078-.97-3.455-1.044h-4.12v21.97H87.4V31.136l.099.01c.47.038.922.198 1.311.464.407.323.734.794 1.02 1.468.517 1.368.642 3.24.773 5.222l.018.275c.13 2.237.299 5.023 1.227 7.113.549 1.203 1.266 2.081 2.194 2.685.895.588 2.01.925 3.282 1.003h4.126v-21.96zM38.649.625h-3.952v18.236l-.085-.012c-.95-.134-1.565-.701-1.99-1.838-.494-1.322-.642-3.148-.8-5.082l-.028-.346c-.199-2.518-.405-5.122-1.331-7.182-.552-1.205-1.286-2.102-2.238-2.735-.924-.622-2.086-.972-3.46-1.041h-4.123v21.96h3.953V4.345l.099.01a2.7 2.7 0 0 1 1.31.464c.408.324.734.795 1.02 1.468.518 1.368.642 3.24.774 5.221l.018.275c.13 2.238.29 5.025 1.225 7.114.55 1.203 1.268 2.08 2.195 2.685.904.588 2.01.925 3.282 1.004h4.125L38.649.625zM140.95 32.036h-3.58l-.967-2.635h-4.476l-.967 2.635h-3.58l5.159-14.07h3.261l5.15 14.07zm-2.963-.895h1.682l-4.501-12.28h-2.013l-4.503 12.28h1.682l.967-2.635h5.72l.966 2.635zm-1.605-4.374h-4.443l2.222-6.06 2.221 6.06zm-3.161-.895h1.88l-.94-2.565-.94 2.565z"/>
</svg>
