<svg xmlns="http://www.w3.org/2000/svg" width="168" height="51" fill="none" viewBox="0 0 168 51">
    <path fill="#000" d="M149.729 13.434v6.13h4.512c0-.184.02-.368.02-.552v-5.005c0-.184.021-.368.021-.634 1.951.9 3.211 2.309 3.617 4.332.569 2.799-.447 4.985-2.804 6.64v21.821c0 .368 0 .756-.082 1.124-.366 1.553-1.788 2.554-3.374 2.411-1.544-.143-2.764-1.45-2.825-3.044v-.613-21.086-.654c-2.276-1.634-3.272-3.8-2.744-6.558.366-1.941 1.85-3.658 3.659-4.311zm3.862 32.548c0-.919-.752-1.675-1.647-1.655-.894.02-1.646.777-1.626 1.676.021.899.752 1.634 1.626 1.634.915 0 1.647-.735 1.647-1.655zM46.215 28.513h-2.784c-1.077-3.146-2.154-6.272-3.232-9.398h-.101c-.57 1.553-1.078 3.126-1.606 4.679-.549 1.573-1.077 3.146-1.626 4.72h-2.764c-1.667-4.863-3.293-9.767-4.96-14.691h3.415c.996 3.228 1.972 6.477 2.968 9.705h.122c1.056-3.249 2.134-6.497 3.19-9.766h2.744c1.057 3.248 2.134 6.497 3.191 9.745.468-1.042.773-2.124 1.098-3.207.325-1.083.65-2.146.975-3.229.326-1.082.671-2.165 1.017-3.269h3.313c-1.667 4.945-3.293 9.808-4.96 14.711zM3.27 49.7H.1c-.102-.367-.143-14.2-.041-15.057.345-.102 2.825-.143 3.557-.041 1.28 2.084 2.58 4.188 3.943 6.375 1.341-2.187 2.642-4.27 3.943-6.396h3.577v15.1h-3.252c-.04-.654-.02-1.288-.02-1.921v-1.941-1.88V42v-1.962c-.245.02-.285.204-.366.347-1.159 1.777-2.338 3.555-3.496 5.333l-.366.551c-.244-.061-.285-.245-.386-.408-1.18-1.798-2.358-3.576-3.516-5.374-.102-.143-.204-.306-.305-.45-.04.021-.061.021-.102.041v9.624zM92.25 34.602h3.232V49.7h-2.825c-1.2-1.574-2.378-3.147-3.598-4.74-1.199-1.574-2.378-3.167-3.597-4.72-.04.02-.061.02-.102.04v9.358c-.406.123-2.601.143-3.231.041V34.622h3.048c1.138 1.512 2.317 3.044 3.476 4.597a247.1 247.1 0 0 0 3.516 4.557c.102-1.533.06-3.045.06-4.577.042-1.512.021-3.044.021-4.597zM98.714 20.77c.122.06.203.122.285.163.203.102.386.184.589.306 1.321.736 1.829 1.88 1.788 3.351-.061 1.676-.935 2.759-2.459 3.351-.853.348-1.727.47-2.642.47-2.276.02-4.573.02-6.85 0-.121 0-.223-.02-.365-.04V13.822c.142-.02.264-.041.386-.041 2.073 0 4.126-.02 6.199 0 .833 0 1.666.082 2.439.388 1.179.45 2.073 1.185 2.357 2.472.346 1.533-.02 2.963-1.463 3.923-.06.061-.142.123-.264.204zM92.19 25.57c.081.02.162.04.223.04 1.301 0 2.602.021 3.903-.02.386 0 .772-.122 1.117-.265.55-.225.773-.674.793-1.267.02-.593-.183-1.083-.732-1.348-.325-.164-.71-.287-1.056-.287-1.342-.04-2.663-.04-4.004-.06-.082 0-.163.04-.224.06-.02 1.063-.02 2.105-.02 3.147zm0-5.884c.081.02.122.061.162.061 1.159-.02 2.338-.02 3.496-.061.264 0 .529-.103.773-.225.569-.266.813-.736.792-1.349-.02-.613-.305-1.042-.853-1.246a4.325 4.325 0 0 0-1.139-.225c-.935-.02-1.89-.02-2.845 0-.122 0-.264.02-.407.041.02 1.001.02 2.003.02 3.004zM9.774 22.649v-8.765c.366-.102 2.5-.143 3.11-.041V28.39H10.18c-2.297-3.024-4.594-6.068-6.91-9.112-.041.02-.082.02-.102.04-.02.593 0 1.206-.02 1.799V28.41H.099C0 28.002-.021 14.415.08 13.78h2.866c1.138 1.512 2.277 3.004 3.394 4.496l3.354 4.413c.02 0 .061-.02.081-.041zM120.197 13.822h2.906c2.216 2.943 4.452 5.885 6.687 8.827.041-.02.082-.02.102-.04.061-.553.02-1.125.02-1.697v-1.777-1.737-1.777-1.778c1.057-.061 2.073-.02 3.11-.04V28.41c-.447.061-.874.02-1.301.02h-1.362l-2.317-3.065c-.772-1.021-1.524-2.043-2.317-3.044-.792-1.021-1.524-2.063-2.439-3.003v9.092h-3.069c-.081-.388-.122-13.873-.02-14.589zM77.19 28.41h-3.13V13.823c.163 0 .326-.02.509-.02h5.934c.935 0 1.85.102 2.744.45 1.809.694 2.744 2.022 2.886 3.943.04.654.02 1.287-.142 1.92-.346 1.308-1.159 2.248-2.358 2.861-.081.04-.183.082-.284.123-.082.04-.142.081-.285.143 1.159 1.716 2.317 3.412 3.455 5.108-.386.122-2.947.143-3.678.04-1.017-1.512-2.033-3.064-3.07-4.617h-2.52c-.06.51-.02 1.021-.04 1.532v1.533c-.02.51-.02 1-.02 1.573zm.02-7.538c.062.02.123.04.163.04 1.118 0 2.236.02 3.354-.02.305 0 .61-.082.894-.184.895-.327 1.321-1.021 1.301-1.982-.02-.98-.57-1.655-1.484-1.9a4.154 4.154 0 0 0-.996-.123c-.935-.02-1.85 0-2.784 0-.122 0-.264.02-.427.041-.02 1.39-.02 2.759-.02 4.128zM48.35 34.602h3.273v5.986c2.073.02 4.064 0 6.138 0v-5.986h3.251c.102.367.143 14.036.041 15.038-.345.102-2.48.142-3.292.04-.02-1.981 0-3.963 0-5.925-.387-.122-5.224-.163-6.118-.061-.04.633-.02 1.307-.02 1.961V49.701H48.37c-.082-.368-.122-14.241-.02-15.1zM18.086 34.582h11.24c.121.347.142 2.35.02 2.921h-7.968v3.086h6.992c.122.408.122 2.37.02 2.962h-6.97c-.102.409-.143 2.309-.042 3.188.529.02 1.057 0 1.586.02h6.524v2.922H18.106c-.081-.348-.122-14.241-.02-15.1zM19.083 22.506v3.044c.203.02.406.041.59.041H26.846c.122.388.142 2.105.06 2.779-.345.102-10.222.122-10.954.04l-.04-.04c0-.02-.021-.02-.021-.041 0-4.679-.02-9.358-.02-14.037v-.388c.406-.123 10.467-.123 10.934-.02v2.758c-.508.061-.996.02-1.504.02H19.144c-.102.368-.142 2.268-.04 2.963.162 0 .345.02.528.04H25.892v2.8c-.183.02-.346.04-.529.04h-6.28zM74.751 46.35H68.35c-.467 1.124-.914 2.227-1.382 3.33h-3.353a3792.244 3792.244 0 0 1 6.442-15.2h3.09c2.134 5.046 4.288 10.113 6.443 15.22h-3.456c-.467-1.103-.914-2.206-1.382-3.35zm-1.26-2.983c-.162-.674-1.768-4.515-2.012-4.802-.65 1.594-1.3 3.167-1.951 4.802h3.963zM121.031 47.576c.691-.838 1.321-1.594 1.971-2.37.142.102.264.184.386.286.895.674 1.85 1.205 2.947 1.43.63.123 1.281.205 1.911.062.305-.082.63-.184.894-.348.772-.45.793-1.716-.04-2.125-.57-.286-1.179-.49-1.789-.694-.874-.286-1.789-.532-2.663-.818a9.07 9.07 0 0 1-1.016-.45c-1.077-.592-1.748-1.49-1.91-2.717-.346-2.41.772-4.168 2.744-4.985a5.723 5.723 0 0 1 1.402-.388c2.297-.286 4.41.224 6.301 1.553.101.06.182.143.284.224.02.02.041.062.061.103-.549.796-1.097 1.614-1.687 2.451-.183-.122-.366-.224-.528-.327-.874-.551-1.809-1-2.866-1.123-.61-.082-1.22-.062-1.789.224-.609.307-.853.9-.65 1.533.081.265.244.49.488.613.366.184.752.388 1.158.51.834.266 1.707.45 2.541.736.63.204 1.24.47 1.809.776 1.585.88 2.134 2.289 1.971 4.026-.183 2.063-1.524 3.596-3.902 4.025-2.846.51-5.447-.184-7.723-2.003a1.561 1.561 0 0 0-.305-.204zM67.902 13.822h3.15c0 .164.02.327.02.47v7.703c0 .9-.08 1.757-.345 2.615-.63 2.064-1.992 3.351-4.105 3.821a8.553 8.553 0 0 1-3.74.02c-2.358-.51-3.923-2.104-4.33-4.494a12.251 12.251 0 0 1-.162-1.921c-.02-2.615 0-5.25 0-7.866 0-.102.02-.204.02-.348 1.037-.06 2.074-.04 3.171-.02v8.009c0 .45.02.879.102 1.328.325 1.941 1.788 2.759 3.536 2.534 1.504-.184 2.358-1.063 2.582-2.574.06-.389.08-.777.08-1.165v-7.499c.021-.224.021-.408.021-.613zM111.661 13.72c2.073 4.884 4.126 9.746 6.179 14.61-.407.122-2.358.163-3.293.06a373.384 373.384 0 0 0-1.321-3.187c-.467-.102-5.691-.122-6.199-.02-.427 1.042-.874 2.125-1.321 3.207h-3.13c.041-.367 5.589-13.628 6.138-14.69.976.02 1.931.02 2.947.02zm-3.435 8.582h3.862c-.65-1.573-1.24-3.126-1.931-4.74a288.454 288.454 0 0 0-1.931 4.74zM43.289 45.226l2.154 2.044c-.813.919-1.707 1.655-2.825 2.104-2.195.858-4.39.879-6.565-.04-1.829-.777-3.13-2.126-3.881-3.985-1.017-2.472-.874-4.904.426-7.212 1.18-2.105 3.029-3.31 5.386-3.719 1.81-.306 3.578-.123 5.244.674a7.078 7.078 0 0 1 2.114 1.553c-.691.797-1.382 1.594-2.073 2.411a10.792 10.792 0 0 0-.63-.49c-.956-.736-1.992-1.206-3.212-1.206-1.626.02-2.906.715-3.699 2.125-1.057 1.86-1.016 3.76.143 5.557.955 1.472 2.378 2.044 4.125 1.86 1.139-.123 2.094-.654 2.947-1.37.102-.101.224-.203.346-.306.02 0 .02 0 0 0zM116.701 45.247c.691.674 1.382 1.328 2.093 2.023-.406.49-.853.878-1.341 1.246-1.077.797-2.276 1.226-3.597 1.39-1.423.183-2.805.06-4.147-.47-2.703-1.104-4.247-3.168-4.715-6.028-.345-2.064.081-4.005 1.24-5.742 1.26-1.88 3.049-2.962 5.284-3.269 1.931-.265 3.781-.04 5.508.92.63.347 1.179.776 1.687 1.328-.691.797-1.362 1.573-2.073 2.39-.203-.163-.366-.286-.528-.429-.732-.572-1.525-1.021-2.439-1.185-2.155-.388-4.106.654-4.899 2.697-.752 1.962-.508 3.8.874 5.394 1.362 1.594 3.638 1.798 5.447.818.529-.266 1.057-.695 1.606-1.083zM101.905 49.7h-3.252V34.582c1.077-.061 2.154-.02 3.252-.02V49.7zM143.976 1.89a22.968 22.968 0 0 0-.264-.98c4.797-1.247 9.512-1.287 14.187.347 4.004 1.39 7.357 3.74 10.101 7.11-.346.184-.61.348-.935.532-.142-.143-.264-.266-.386-.41-2.053-2.226-4.431-4.045-7.195-5.311a21.861 21.861 0 0 0-7.174-1.92c-2.744-.246-5.447-.103-8.11.612-.061.02-.122.02-.224.02z"/>
    <path fill="#000" d="M165.663 11.637c-.346.183-.59.326-.834.47-5.67-5.905-12.459-7.805-20.385-6.09-.163-.306-.203-.673-.224-1.102 4.289-1.083 8.537-1.124 12.703.408 3.476 1.267 6.362 3.351 8.74 6.314zM145.399 10.063c-.081-.306-.163-.633-.264-.98 3.353-.859 6.625-.9 9.918.142 3.496 1.124 6.585 3.8 7.357 5.15-.284.183-.569.347-.853.53-4.431-4.821-9.919-6.068-16.158-4.842zM28.29 5.732c-.874-1.288-1.728-2.534-2.561-3.78-.041 0-.061.02-.102.02-.02.613 0 1.247 0 1.86v3.84h-.711c-.102-.347-.163-5.965-.061-7.253.122-.02.244-.02.386-.04h.406c.874 1.307 1.769 2.635 2.683 4.004.915-1.369 1.768-2.656 2.642-3.964h.752c.102.409.122 6.763.02 7.254h-.731V1.952c-.04 0-.061-.02-.102-.02a125.308 125.308 0 0 0-2.622 3.8zM57.638 4.894v2.8h-.732c-.101-.368-.122-6.661-.02-7.213.02-.02.061-.04.081-.04 1.22.02 2.44.02 3.659.06.223 0 .467.103.67.205.834.347 1.28 1 1.28 1.9 0 .899-.426 1.553-1.26 1.92-.203.082-.406.143-.67.246.67 1 1.423 1.92 2.154 2.942-.365.061-.65.04-.975.02-.691-.94-1.403-1.859-2.094-2.799-.67-.04-1.34-.04-2.093-.04zm.02-.817c.102.04.143.061.183.061.752 0 1.525.02 2.277-.02.325-.02.67-.143.955-.286.508-.266.711-.756.69-1.328-.04-.552-.324-.981-.832-1.165a3.787 3.787 0 0 0-.935-.184c-.508-.02-1.017 0-1.525-.02h-.813a71.03 71.03 0 0 0 0 2.942zM76.134 4.056c0-2.145 1.605-3.78 3.719-3.78 2.094 0 3.7 1.635 3.7 3.8 0 2.126-1.627 3.76-3.72 3.76-2.155 0-3.72-1.614-3.7-3.78zm6.564.02c-.06-.326-.08-.673-.182-1-.346-1.063-1.037-1.778-2.175-1.982-1.138-.205-2.114.143-2.825 1.083-.935 1.246-.752 3.146.386 4.168.63.572 1.402.837 2.236.715 1.565-.225 2.52-1.39 2.56-2.983zM118.693 4.077c0-2.146 1.606-3.8 3.699-3.8s3.719 1.634 3.719 3.759-1.626 3.78-3.699 3.78c-2.134.02-3.719-1.573-3.719-3.74zm6.544-.062c.021-.408-.081-.858-.264-1.287-.488-1.042-1.301-1.634-2.459-1.696-1.118-.06-1.972.43-2.541 1.37-.386.612-.508 1.287-.426 2.002.223 2.125 2.235 3.146 3.902 2.472 1.118-.43 1.788-1.492 1.788-2.86zM51.399 7.836c-2.114 0-3.7-1.593-3.7-3.76 0-2.124 1.607-3.78 3.7-3.8 2.093 0 3.699 1.615 3.699 3.76 0 2.166-1.606 3.8-3.699 3.8zm-.02-6.783c-1.2.02-2.053.592-2.561 1.675a3.038 3.038 0 0 0-.224 1.982c.346 1.88 2.337 2.942 4.045 2.105.975-.47 1.463-1.288 1.605-2.33.224-1.655-.934-3.473-2.865-3.432zM20.22 7.693h-5.223V.419H20.2v.695c-.467.061-.955.02-1.443.04h-2.886c-.142.368-.162 1.799-.06 2.493h3.861v.756H15.79v2.595h4.41c.02.245.02.45.02.695zM109.974 1.155v2.492c1.301.041 2.582 0 3.923.041v.715h-3.902v2.595h4.41v.715h-5.162c-.102-.367-.122-6.64-.021-7.253h5.163c0 .204.02.409.02.695-.508.061-.996.02-1.484.02h-1.422c-.488-.02-.976-.02-1.525-.02zM12.294 4.465H8.067v3.208h-.732c-.101-.327-.142-6.416-.02-7.233h.732c.081.531.02 1.063.04 1.594v1.593h4.207V.44h.752c.102.347.143 6.273.041 7.233h-.772c-.02-1.063-.02-2.105-.02-3.208zM35.098 5.814a77.82 77.82 0 0 1-.874 1.88h-.813C34.508 5.24 35.586 2.83 36.683.398h.793c1.077 2.39 2.175 4.802 3.272 7.274h-.874c-.264-.613-.549-1.226-.813-1.86h-3.963zm3.597-.777c-.162-.613-1.402-3.35-1.646-3.616a84.117 84.117 0 0 0-1.585 3.616h3.231zM71.6 1.237c-.141.184-.263.367-.426.572a9.356 9.356 0 0 1-.468-.307c-.65-.388-1.34-.551-2.093-.429-.305.062-.59.184-.793.409-.487.51-.426 1.287.183 1.655.265.163.59.265.895.368.284.102.589.143.874.224.345.103.67.225.995.368.671.307 1.057.838 1.057 1.594 0 .797-.345 1.41-1.056 1.798-.509.265-1.057.347-1.627.327-1.036-.041-1.93-.409-2.743-1.165.162-.184.305-.368.467-.552.244.164.468.348.691.47.732.45 1.525.654 2.378.45a1.87 1.87 0 0 0 .67-.327c.61-.51.55-1.41-.162-1.798-.386-.204-.813-.306-1.24-.43-.528-.183-1.077-.285-1.585-.53-1.22-.572-1.138-2.043-.569-2.759.305-.367.691-.592 1.138-.735 1.077-.327 2.602-.02 3.415.797zM107.23 6.059c.162.163.305.306.426.45-.609 1.041-2.276 1.573-3.699 1.246-1.544-.368-2.662-1.676-2.804-3.351-.143-1.655.772-3.208 2.235-3.82 1.464-.614 3.374-.185 4.207.898-.06.082-.121.164-.182.225-.082.102-.183.184-.305.306-.224-.163-.447-.347-.691-.49-1.22-.776-2.785-.572-3.699.47-.996 1.144-.976 3.106.061 4.23.914 1 2.439 1.184 3.617.449.285-.184.508-.388.834-.613zM85.3.42h5.121c.02.122.041.244.041.346 0 .103-.02.205-.02.368-1.443.062-2.866 0-4.289.041-.101.409-.122 2.043-.02 2.615h3.841v.756h-3.902v3.126c-.142.02-.264.062-.366.062-.122 0-.244 0-.345-.02-.122-.369-.163-6.171-.061-7.295zM97.27.44v.695c-.467.061-.935.02-1.402.02h-2.866c-.122.388-.142 1.9-.04 2.615 1.26.02 2.54 0 3.861.02v.736c-1.28.02-2.56 0-3.882.02-.081 1.063.02 2.105-.06 3.147h-.753V.44h5.142zM128.672 1.155V3.77h3.882v.715c-1.281.082-2.561 0-3.882.061-.061.532-.021 1.063-.041 1.574v1.552h-.732c-.101-.367-.122-6.6-.02-7.253h5.122v.695c-.468.081-.935.02-1.403.04h-2.926zM40.26.42h.976c.793 1.184 1.606 2.39 2.46 3.656A609.877 609.877 0 0 0 46.176.42h.914c-.122.184-.224.347-.325.49-.813 1.186-1.606 2.35-2.419 3.535-.183.245-.244.49-.244.797.02.797 0 1.594 0 2.431h-.772c-.02-.143-.04-.265-.04-.408 0-.654-.021-1.328 0-1.982 0-.307-.082-.552-.245-.797-.813-1.165-1.585-2.33-2.398-3.494-.122-.163-.224-.347-.386-.572zM5.709.44v.715c-.793 0-1.585.02-2.419.041v6.497h-.813V1.217c-.813-.123-1.605.02-2.418-.103V.44h5.65zM99.69 7.693c-.122 0-.224.02-.325.02-.102 0-.203-.02-.285-.02-.122-.367-.162-6.333-.06-7.253h.67c.081.388.102 6.722 0 7.253zM63.98 2.728c-.04-.102-.082-.184-.122-.266.325-.224.732-.367.67-.899a3.272 3.272 0 0 0-.345-.122V.46h.833c.143.387.102 1.307-.06 1.654-.163.327-.448.51-.976.613z"/>
</svg>
