<svg xmlns="http://www.w3.org/2000/svg" width="200" height="21" fill="none" viewBox="0 0 200 21">
    <path fill="#000" fill-opacity=".5" d="M185.521 19.665h13.507l.972-4.754h-7.996l2.81-14.479h-5.511l-3.782 19.233zm-9.508-10.589c.108-.216.216-.54.324-.756.108-.324.216-.54.432-.865.108-.324.324-.648.432-.864h.109c0 .324 0 .54.108.864 0 .217.108.54.108.865 0 .324.108.54.108.756l.54 3.89h-3.998l1.837-3.89zm3.025 10.589h5.835L181.307.325h-5.618l-10.481 19.34h5.619l1.404-2.917h6.483l.324 2.917zm-35.116 0h4.862l2.378-12.102h.108l.864 12.102h4.106l5.402-12.102h.108l-2.377 12.102h4.971l3.673-19.34h-7.347l-4.97 10.804h-.108L154.727.324h-7.131l-3.674 19.341zM134.414 4.97h2.809c.648 0 1.189.108 1.513.432.324.325.54.757.54 1.297 0 .864-.216 1.513-.756 1.837-.541.432-1.081.54-1.729.54h-3.134l.757-4.106zm2.917 14.695h5.835l-2.809-7.023c1.296-.54 2.377-1.405 3.133-2.485.864-1.08 1.189-2.485 1.189-4.106 0-.865-.109-1.621-.433-2.27-.324-.648-.648-1.296-1.188-1.728-.54-.54-1.297-.972-2.161-1.297-.865-.324-2.053-.432-3.458-.432h-7.779l-3.674 19.341h5.619l1.188-6.267h2.377l2.161 6.267zm-24.203-10.48c.216-.865.432-1.622.864-2.27.433-.648.865-1.296 1.513-1.729.648-.432 1.297-.648 2.161-.648.648 0 1.189.108 1.621.324.432.216.756.54 1.08.865.216.432.433.864.541 1.296.108.54.216 1.08.216 1.621 0 .756-.108 1.62-.324 2.377-.217.864-.433 1.513-.865 2.27-.432.647-.864 1.188-1.513 1.62-.648.432-1.296.648-2.161.648-.648 0-1.188-.108-1.62-.324-.432-.216-.757-.54-1.081-.864-.324-.325-.54-.757-.648-1.297-.108-.54-.216-.972-.216-1.513.108-.756.216-1.512.432-2.377zm7.455 10.048c1.297-.649 2.378-1.405 3.35-2.485.864-.973 1.621-2.27 2.161-3.566.54-1.405.756-2.81.756-4.43 0-1.405-.216-2.701-.648-3.782-.432-1.08-.972-2.053-1.837-2.701-.756-.756-1.729-1.297-2.809-1.729-1.081-.432-2.269-.54-3.674-.54-1.621 0-3.025.324-4.322.972-1.296.649-2.377 1.405-3.349 2.486-.973 1.08-1.621 2.269-2.161 3.673-.541 1.405-.757 2.918-.757 4.43 0 1.405.216 2.702.649 3.782.432 1.08 1.08 1.945 1.945 2.701.864.757 1.728 1.189 2.917 1.621 1.08.324 2.269.54 3.566.54 1.404-.108 2.917-.432 4.213-.972zm-33.279.432h5.403l2.16-11.13 3.674 11.13h5.727l3.674-19.34h-5.403l-2.161 11.02h-.108L96.596.325h-5.618l-3.674 19.34zM77.688 4.97h2.809c.648 0 1.189.108 1.513.432.324.325.54.757.54 1.297 0 .864-.216 1.513-.756 1.837-.54.432-1.08.54-1.73.54h-3.133l.757-4.106zm2.917 14.695h5.835l-2.81-7.023c1.297-.54 2.378-1.405 3.134-2.485.864-1.08 1.189-2.485 1.189-4.106 0-.865-.109-1.621-.433-2.27-.324-.648-.648-1.296-1.188-1.728-.54-.54-1.297-.972-2.161-1.297-.865-.324-2.053-.432-3.458-.432h-7.887l-3.782 19.341h5.618l1.189-6.267h2.377l2.377 6.267zm-27.877 0H67.64l.865-4.754h-9.4l.54-3.134h7.563l.972-4.214h-7.563l.54-2.7h8.968L70.99.323H56.402l-3.674 19.341zM43.76 4.97h2.701c1.405 0 2.053.649 2.053 1.837 0 .865-.216 1.513-.756 1.945-.54.432-1.08.648-1.837.648h-3.025l.864-4.43zm-8.32 14.695h5.619l1.08-5.943h4.538c1.081 0 2.053-.216 3.026-.54.972-.324 1.729-.864 2.377-1.513A8.653 8.653 0 0 0 53.7 9.4c.325-.972.54-1.945.54-3.133 0-.865-.107-1.729-.431-2.377-.432-.649-.865-1.297-1.297-1.729-.54-.54-1.296-.972-2.16-1.297-.865-.324-2.054-.432-3.458-.432h-7.78L35.44 19.665zm-3.457-1.513c1.404-1.188 2.377-3.025 2.809-5.294L37.169.324h-5.51l-2.377 12.318c-.325 1.837-1.405 2.81-3.026 2.81-1.08 0-1.837-.325-2.377-.865-.432-.54-.54-1.297-.432-2.377L25.716.216h-5.51l-2.162 11.345c-.324 1.513-.324 2.81 0 3.89s.865 1.945 1.513 2.593c.756.649 1.62 1.189 2.81 1.513 1.08.324 2.268.432 3.565.432 2.593 0 4.646-.54 6.05-1.837zm-20.206 1.513a7.636 7.636 0 0 0 2.702-1.188c.756-.54 1.404-1.297 1.945-2.162.432-.864.756-1.836.756-3.025 0-.864-.108-1.513-.432-2.16-.324-.65-.649-1.081-1.189-1.514-.432-.432-1.08-.756-1.729-1.08-.648-.324-1.296-.54-1.944-.756-.973-.325-1.621-.54-2.162-.649-.54-.216-.972-.324-1.296-.54-.324-.108-.648-.216-.756-.432-.217-.108-.217-.324-.217-.648 0-.217.108-.433.217-.649.108-.216.324-.324.54-.432a.825.825 0 0 1 .54-.216c.216 0 .54-.108.756-.108.649 0 1.297.108 1.73.432.431.324.648.756.648 1.297h5.51c0-1.189-.108-2.161-.648-2.918a4.993 4.993 0 0 0-1.837-1.836 9.912 9.912 0 0 0-2.485-.973C11.56.108 10.589 0 9.724 0 8.644 0 7.672.108 6.7.432c-.972.216-1.729.649-2.485 1.189a7.076 7.076 0 0 0-1.62 1.945c-.433.756-.541 1.728-.541 2.809 0 .864.108 1.513.432 2.053s.648 1.08 1.189 1.513c.54.432 1.08.864 1.837 1.188.756.324 1.512.648 2.377.973.54.216.972.324 1.404.432.432.108.757.324 1.08.432.325.108.541.324.65.54.215.216.215.432.215.649 0 .324-.108.54-.216.864a1.303 1.303 0 0 1-.54.54c-.216.108-.54.216-.757.216-.324 0-.648.108-.972.108-.864 0-1.62-.216-2.161-.54-.54-.432-.864-.972-.864-1.729H0c0 1.297.216 2.377.756 3.242a6.216 6.216 0 0 0 2.053 2.053c.865.54 1.73.864 2.81 1.08 1.08.216 1.944.108 3.025.108 1.08 0 2.053-.108 3.133-.432z"/>
</svg>
