<svg xmlns="http://www.w3.org/2000/svg" fill="none" viewBox="0 0 147 100">
    <path fill="#FFD7ED" d="M71.097 72.074c-2.95 0-5.801-1.869-7.08-4.622-3.933-8.554-13.175-13.864-24.188-13.864-8.456 0-16.519 3.147-21.927 8.653-.983.983-2.556 1.573-4.13 1.573-1.671 0-3.146-.59-4.424-1.672-1.279-1.081-1.574-2.556-1.672-3.54-.098-1.77.59-3.637 1.672-4.916 4.72-5.31 7.08-11.799 6.588-18.78-.295-8.161-4.622-16.224-11.505-22.123-1.18-.984-1.77-2.36-1.868-3.835-.098-1.672.688-3.343 1.967-4.622 1.18-1.18 2.556-1.77 4.031-1.77 1.573 0 3.147.59 4.621 1.77 15.536 12.488 37.561 19.666 60.471 19.666 22.91 0 44.739-7.178 59.783-19.666 1.278-1.081 2.852-1.671 4.327-1.671 1.474 0 2.753.59 3.834 1.671 2.36 2.36 2.557 6.293.394 8.457-12.291 11.11-19.961 27.531-20.452 43.952-.099 3.638-2.95 6.49-6.392 6.49a6.379 6.379 0 0 1-6.391-6.392c0-8.554-6.981-14.946-16.027-14.946-1.18 0-2.458.099-3.638.394-4.818.983-8.948 3.834-11.111 7.866-2.163 4.031-2.458 8.75-.689 13.274.689 1.868.59 3.933-.196 5.506-.787 1.573-2.163 2.557-4.031 3.048-.787.099-1.377.099-1.967.099z"/>
    <path fill="#fff" d="M8.463 3.54c1.278 0 2.655.59 3.933 1.573 15.634 12.684 37.954 19.96 61.06 19.96 23.206 0 45.231-7.276 60.472-19.96 1.18-.983 2.458-1.475 3.736-1.475 1.18 0 2.262.492 3.147 1.377 1.966 1.966 2.163 5.211.393 7.08-12.487 11.307-20.255 28.022-20.747 44.64-.098 3.048-2.458 5.506-5.408 5.506s-5.408-2.458-5.408-5.408c0-9.046-7.374-15.93-17.109-15.93-1.278 0-2.556.1-3.834.394-5.113.984-9.44 4.032-11.8 8.358-2.36 4.228-2.654 9.243-.786 14.06.59 1.574.59 3.344-.197 4.72-.688 1.279-1.868 2.164-3.441 2.557-.492.098-.984.197-1.475.197-2.557 0-5.015-1.574-6.096-4.032-4.13-8.85-13.668-14.454-25.074-14.454-8.75 0-17.01 3.245-22.713 8.948-.885.885-2.065 1.278-3.442 1.278-1.376 0-2.753-.492-3.736-1.376A3.91 3.91 0 0 1 8.66 58.7c-.099-1.475.491-3.146 1.474-4.228 4.917-5.506 7.375-12.192 6.883-19.469-.491-8.456-4.916-16.813-11.996-22.91-.983-.786-1.474-1.868-1.573-3.146a6.058 6.058 0 0 1 1.77-3.933C6.201 4.03 7.283 3.54 8.463 3.54zm0-1.967c-1.672 0-3.343.59-4.72 2.065-2.851 2.852-3.048 7.276 0 9.931C15.936 23.992 19.475 41.2 8.66 53.097c-2.36 2.556-2.95 7.276 0 9.93a7.579 7.579 0 0 0 5.014 1.869c1.77 0 3.54-.689 4.818-1.868 5.506-5.507 13.471-8.358 21.239-8.358 9.734 0 19.174 4.326 23.205 13.274 1.475 3.146 4.621 5.211 7.964 5.211.689 0 1.279-.098 1.967-.197 4.916-1.278 6.391-6.096 4.916-9.93-3.441-8.948 1.77-17.896 11.111-19.764 1.18-.197 2.36-.295 3.442-.295 8.062 0 15.044 5.506 15.044 13.962 0 4.13 3.343 7.375 7.374 7.375 4.032 0 7.276-3.343 7.375-7.375.491-16.224 8.161-32.448 20.157-43.264 2.654-2.654 2.36-7.177-.394-9.93-1.278-1.279-2.949-1.967-4.523-1.967-1.77 0-3.441.688-5.014 1.966-15.634 12.98-37.364 19.47-59.193 19.47S29.8 16.616 13.674 3.637c-1.573-1.376-3.441-2.065-5.211-2.065z"/>
    <path fill="#B5191D" d="M8.463 1.573c1.77 0 3.638.689 5.211 2.065 16.027 12.98 38.053 19.469 59.881 19.469 21.829 0 43.559-6.49 59.193-19.469 1.475-1.278 3.245-1.966 5.015-1.966 1.671 0 3.244.59 4.523 1.966 2.654 2.655 3.048 7.178.393 9.931-11.996 10.914-19.665 27.04-20.157 43.264-.098 4.13-3.343 7.374-7.375 7.374-4.031 0-7.374-3.343-7.374-7.374 0-8.358-7.08-13.962-15.044-13.962-1.18 0-2.262.098-3.442.294-9.439 1.869-14.552 10.816-11.11 19.764 1.474 3.835 0 8.653-4.917 9.931-.688.197-1.278.197-1.966.197-3.343 0-6.49-2.065-7.965-5.212-4.326-8.849-13.667-13.175-23.402-13.175-7.767 0-15.732 2.851-21.238 8.358-1.278 1.18-3.048 1.868-4.916 1.868-1.77 0-3.639-.59-5.015-1.868-2.95-2.557-2.36-7.277 0-9.931 10.717-11.898 7.178-29.105-4.917-39.528-3.048-2.655-2.851-7.08 0-9.93 1.377-1.377 2.95-2.066 4.622-2.066zm0-1.573C6.3 0 4.333.885 2.662 2.458.892 4.326-.092 6.686.007 9.046A8.111 8.111 0 0 0 2.76 14.75c6.391 5.506 10.324 12.88 10.718 20.452.393 6.293-1.672 12.094-5.998 16.912-1.672 1.77-2.557 4.327-2.36 6.785.098 2.163.983 4.031 2.556 5.31 1.672 1.474 3.835 2.26 6.097 2.26a8.828 8.828 0 0 0 5.997-2.359c5.015-5.015 12.291-7.866 20.157-7.866 9.931 0 18.29 4.72 21.829 12.39 1.672 3.637 5.506 6.095 9.44 6.095a9.7 9.7 0 0 0 2.36-.295c2.556-.59 4.62-2.163 5.702-4.326 1.18-2.261 1.278-5.113.295-7.67-1.475-3.834-1.278-7.767.59-11.11 1.868-3.442 5.211-5.802 9.341-6.588a17.036 17.036 0 0 1 3.147-.295c7.669 0 13.47 5.31 13.47 12.389 0 4.916 4.032 9.046 9.046 9.046 4.917 0 8.85-3.933 9.046-8.948.492-15.732 7.768-31.464 19.568-42.182 3.244-3.245 3.048-8.653-.394-12.094-1.573-1.573-3.54-2.36-5.703-2.36-2.065 0-4.228.787-5.998 2.262-14.65 12.094-35.79 19.075-58.21 19.075-22.32 0-43.853-6.981-58.897-19.076C12.79.786 10.626 0 8.463 0z"/>
    <path stroke="#fff" stroke-linejoin="bevel" stroke-miterlimit="10" stroke-width="1.616" d="M63.133 48.082l17.305-1.18 5.015-14.847M29.8 25.86l-8.653-15.83-6.195 19.566L29.8 25.86zM13.674 48.377l18.584-3.933-8.653 13.765-9.93-9.832z"/>
    <path stroke="#fff" stroke-linejoin="bevel" stroke-miterlimit="10" stroke-width="1.616" d="M32.258 44.444l30.874 3.638-18.485 6.194-12.39-9.832zM14.952 29.596l17.306 14.848L29.8 25.86l27.138 6.194 16.125-7.374 12.39 7.374M63.133 48.082l12.389 9.93-14.848 4.917 2.459-14.847zM63.133 48.082l22.32-16.027M110.133 33.333l-17.306 8.653-7.374-9.931 28.416-15.831-3.736 17.109z"/>
    <path stroke="#fff" stroke-linejoin="bevel" stroke-miterlimit="10" stroke-width="1.616" d="M107.675 51.818l2.458-18.485-24.68-1.278M113.869 16.224l17.306 9.636-21.042 7.473 12.389 12.29-14.847 6.195M58.61 31.268L32.257 44.444M56.938 32.055h28.515"/>
    <path fill="#B5191D" d="M32.258 47.688a3.245 3.245 0 1 0 0-6.49 3.245 3.245 0 0 0 0 6.49z"/>
    <path fill="#fff" d="M32.258 41.986a2.434 2.434 0 0 1 2.458 2.458 2.434 2.434 0 0 1-2.458 2.458 2.434 2.434 0 0 1-2.458-2.458 2.434 2.434 0 0 1 2.458-2.459zm0-1.672c-2.262 0-4.031 1.868-4.031 4.031 0 2.262 1.868 4.032 4.031 4.032 2.261 0 4.031-1.869 4.031-4.032 0-2.163-1.77-4.031-4.031-4.031z"/>
    <path stroke="#fff" stroke-linejoin="bevel" stroke-miterlimit="10" stroke-width="1.616" d="M29.8 25.86l17.305-4.916 9.833 11.11"/>
    <path fill="#FCBD0B" d="M110.133 36.578c-1.77 0-3.245-1.475-3.245-3.245s1.475-3.245 3.245-3.245 3.244 1.475 3.244 3.245-1.474 3.245-3.244 3.245z"/>
    <path fill="#fff" d="M110.133 30.776a2.434 2.434 0 0 1 2.458 2.458 2.435 2.435 0 0 1-2.458 2.459 2.434 2.434 0 0 1-2.458-2.459c0-1.278 1.081-2.458 2.458-2.458zm0-1.573c-2.262 0-4.032 1.868-4.032 4.031 0 2.262 1.869 4.032 4.032 4.032 2.261 0 4.031-1.868 4.031-4.032 0-2.163-1.77-4.031-4.031-4.031z"/>
    <path stroke="#fff" stroke-linejoin="bevel" stroke-miterlimit="10" stroke-width="1.616" d="M56.938 32.055l6.194 16.027"/>
    <path fill="#402B59" d="M29.8 29.105c-1.77 0-3.245-1.475-3.245-3.245s1.475-3.245 3.245-3.245 3.245 1.475 3.245 3.245-1.475 3.245-3.245 3.245z"/>
    <path fill="#fff" d="M29.8 23.402a2.434 2.434 0 0 1 2.458 2.458 2.434 2.434 0 0 1-2.458 2.458 2.434 2.434 0 0 1-2.458-2.458 2.434 2.434 0 0 1 2.458-2.458zm0-1.573c-2.262 0-4.032 1.868-4.032 4.031 0 2.262 1.869 4.031 4.032 4.031 2.261 0 4.031-1.868 4.031-4.031 0-2.261-1.77-4.031-4.031-4.031z"/>
    <path fill="#402B59" d="M85.453 35.3c-1.77 0-3.245-1.476-3.245-3.245 0-1.77 1.475-3.245 3.245-3.245s3.245 1.475 3.245 3.244c0 1.77-1.475 3.245-3.245 3.245z"/>
    <path fill="#fff" d="M85.453 29.596a2.434 2.434 0 0 1 2.458 2.458 2.434 2.434 0 0 1-2.458 2.459 2.434 2.434 0 0 1-2.459-2.459 2.434 2.434 0 0 1 2.459-2.458zm0-1.573c-2.262 0-4.032 1.868-4.032 4.031 0 2.262 1.868 4.032 4.032 4.032 2.261 0 4.031-1.868 4.031-4.032 0-2.261-1.868-4.03-4.031-4.03z"/>
    <path fill="#B5191D" d="M56.938 35.3c-1.77 0-3.245-1.476-3.245-3.245 0-1.77 1.475-3.245 3.245-3.245s3.245 1.475 3.245 3.244c.098 1.77-1.377 3.245-3.245 3.245z"/>
    <path fill="#fff" d="M56.938 29.596a2.434 2.434 0 0 1 2.458 2.458 2.434 2.434 0 0 1-2.458 2.459 2.434 2.434 0 0 1-2.458-2.459c0-1.376 1.18-2.458 2.458-2.458zm0-1.573c-2.262 0-4.031 1.868-4.031 4.031 0 2.262 1.868 4.032 4.031 4.032 2.261 0 4.031-1.868 4.031-4.032.099-2.261-1.77-4.03-4.031-4.03z"/>
    <path fill="#FCBD0B" d="M63.133 51.425c-1.77 0-3.245-1.475-3.245-3.245s1.475-3.245 3.245-3.245 3.244 1.475 3.244 3.245-1.376 3.245-3.244 3.245z"/>
    <path fill="#fff" d="M63.133 45.624a2.434 2.434 0 0 1 2.458 2.458 2.434 2.434 0 0 1-2.458 2.458 2.434 2.434 0 0 1-2.459-2.458c0-1.279 1.082-2.458 2.459-2.458zm0-1.574c-2.262 0-4.032 1.869-4.032 4.032 0 2.261 1.868 4.031 4.032 4.031 2.261 0 4.03-1.868 4.03-4.031.1-2.163-1.769-4.032-4.03-4.032z"/>
    <path fill="#000" d="M18.59 94.69c0 3.344-1.966 5.31-5.9 5.31H8.955a2.854 2.854 0 0 1-2.851-2.852V81.614c0-.098 0-.098.098-.098h5.212c3.933 0 5.9 1.966 5.9 5.31 0 1.67-.492 2.752-1.476 3.539-.098 0-.098.098 0 .098 1.869.59 2.753 1.967 2.753 4.228zM8.66 84.17v5.014c0 .098 0 .098.098.098h2.95c1.868 0 3.244-1.671 2.851-3.441-.295-1.377-1.573-1.77-3.245-1.77H8.758l-.099.098zm7.177 11.307c.394-1.77-.983-3.442-2.851-3.442H8.758c-.099 0-.099 0-.099.099v5.014c0 .099 0 .099.099.099h3.835c1.77 0 2.95-.394 3.244-1.77zM31.963 94h-9.145c.295 2.164 2.065 3.344 3.934 3.344 2.654 0 3.933-1.279 3.933-1.279v2.655s-1.279 1.278-3.933 1.278c-3.933 0-6.588-2.654-6.588-6.588 0-3.932 2.654-6.587 5.9-6.587 3.342 0 5.899 2.655 5.899 6.588V94zm-9.046-1.966h6.293c-.394-1.77-1.573-2.655-3.147-2.655-1.573 0-2.753.885-3.146 2.655zM38.158 89.38v7.865h3.933V99.9h-2.655c-2.655 0-3.933-1.278-3.933-3.933v-6.588h-2.655v-2.655h2.655v-5.31h2.655v5.31h3.933v2.655h-3.933zM56.938 86.724V99.9h-2.655v-5.31c0 3.343-1.278 5.31-3.933 5.31-3.343 0-5.9-2.655-5.9-6.588 0-3.933 2.655-6.588 5.9-6.588 2.655 0 3.933 1.967 3.933 5.31v-5.31h2.655zm-2.655 6.588c0-2.655-1.278-3.933-3.343-3.933s-3.933 1.278-3.933 3.933 1.966 3.933 3.933 3.933c1.967 0 3.343-1.278 3.343-3.933zM79.455 94.689c0 3.343-1.967 5.31-5.9 5.31h-6.49c-.098 0-.098 0-.098-.099V85.151a3.735 3.735 0 0 1 3.737-3.736h1.573c3.933 0 5.9 1.966 5.9 5.31 0 1.67-.492 2.752-1.475 3.539-.099.098-.099.197 0 .197 1.868.59 2.753 1.966 2.753 4.228zm-9.931-10.521v5.014c0 .099 0 .099.098.099h2.95c1.868 0 3.245-1.672 2.851-3.442-.295-1.376-1.573-1.77-3.244-1.77h-2.557l-.098.099zm7.178 11.307c.393-1.77-.984-3.441-2.852-3.441h-4.228c-.098 0-.098 0-.098.098v5.015c0 .098 0 .098.098.098h3.835c1.77 0 2.95-.393 3.245-1.77zM89.582 97.245V99.9h-7.866v-2.655h2.655V84.07h-2.655v-2.654h1.574a3.63 3.63 0 0 1 3.637 3.638v12.192h2.655zM116.426 87.412v2.655s-1.967-.688-3.343-.688c-1.967 0-3.934 1.278-3.934 3.933s1.967 3.933 3.934 3.933c1.278 0 3.343-.688 3.343-.688v2.655s-1.279.688-3.343.688c-3.934 0-6.588-2.655-6.588-6.588 0-3.933 2.654-6.588 6.588-6.588 2.064 0 3.343.688 3.343.688zM125.275 93.312l5.31 6.588h-3.343l-2.655-3.343-.885-1.377-1.77 2.262V99.9h-2.655V81.513h2.655V94l2.655-3.933 2.655-3.343h3.343l-5.31 6.588zM135.403 99.9c-1.967 0-3.933-.688-3.933-.688v-2.655s1.966.688 3.933.688c1.278 0 1.966-.688 1.966-1.278 0-1.967-6.588-.688-6.588-5.31 0-2.654 1.967-3.933 4.622-3.933 1.966 0 3.933.688 3.933.688v2.655s-1.967-.688-3.933-.688c-1.279 0-1.967.688-1.967 1.278 0 1.967 6.588.689 6.588 5.31 0 2.655-1.967 3.933-4.621 3.933z"/>
    <path fill="#B5191D" d="M94.499 93.312c0 2.655 1.966 3.933 3.933 3.933 1.966 0 3.933-1.278 3.933-3.933s-1.967-3.933-3.933-3.933c-1.967 0-3.933 1.278-3.933 3.933z"/>
</svg>
