<svg xmlns="http://www.w3.org/2000/svg" width="84" height="25" fill="none" viewBox="0 0 84 25">
    <path fill="#000" fill-opacity=".5" d="M74.835 6.714v3.064h2.255c0-.092.01-.184.01-.276V7c0-.092.01-.184.01-.317.976.45 1.606 1.154 1.809 2.165.284 1.4-.224 2.492-1.402 3.32v10.906c0 .183 0 .377-.04.561a1.567 1.567 0 0 1-1.687 1.205c-.772-.071-1.381-.725-1.412-1.521v-.307-10.539-.326c-1.138-.817-1.635-1.9-1.371-3.278.183-.97.924-1.828 1.828-2.155zm1.93 16.268c0-.46-.376-.838-.823-.828a.835.835 0 0 0-.812.838c.01.45.376.817.813.817a.822.822 0 0 0 .822-.828zM23.1 14.251h-1.392c-.539-1.572-1.077-3.135-1.615-4.697h-.051c-.285.776-.539 1.562-.803 2.338-.274.787-.538 1.573-.812 2.36h-1.382c-.833-2.431-1.646-4.882-2.479-7.343h1.707c.498 1.613.985 3.237 1.483 4.85h.061c.528-1.623 1.067-3.247 1.595-4.88h1.371c.528 1.623 1.067 3.247 1.595 4.87.234-.52.386-1.062.549-1.603.162-.541.325-1.072.487-1.613.163-.542.335-1.083.508-1.634h1.656c-.833 2.47-1.646 4.901-2.479 7.352zM1.634 24.84H.05c-.051-.183-.071-7.096-.02-7.525.172-.051 1.411-.072 1.777-.02.64 1.04 1.29 2.093 1.97 3.185.671-1.092 1.321-2.134 1.971-3.196h1.788v7.547H5.911c-.02-.327-.01-.644-.01-.96v-.97-.94-.97-.98c-.122.01-.142.102-.183.173-.579.889-1.168 1.777-1.747 2.666l-.183.275c-.122-.03-.142-.122-.193-.204-.59-.899-1.178-1.787-1.757-2.686-.051-.071-.102-.153-.153-.224-.02.01-.03.01-.05.02v4.81zM46.107 17.294h1.615v7.546H46.31c-.599-.786-1.188-1.572-1.797-2.369-.6-.786-1.189-1.583-1.798-2.359-.02.01-.031.01-.051.02v4.678c-.203.061-1.3.071-1.616.02v-7.526h1.524c.57.756 1.158 1.522 1.737 2.298.58.765 1.158 1.521 1.758 2.277.05-.766.03-1.522.03-2.288.02-.755.01-1.521.01-2.297zM49.337 10.38c.061.031.102.062.142.082.102.051.194.092.295.153.66.368.914.94.894 1.675-.03.837-.467 1.379-1.23 1.675a3.436 3.436 0 0 1-1.32.235c-1.137.01-2.285.01-3.423 0-.061 0-.112-.01-.183-.02V6.907c.071-.01.132-.02.193-.02 1.036 0 2.062-.01 3.098 0 .417 0 .833.04 1.22.194.589.225 1.035.592 1.178 1.236.172.765-.01 1.48-.732 1.96a.864.864 0 0 1-.132.102zm-3.26 2.4c.04.01.08.02.111.02.65 0 1.3.01 1.95-.01.194 0 .387-.06.56-.132.274-.113.385-.337.395-.634.01-.296-.09-.54-.365-.673a1.24 1.24 0 0 0-.528-.144c-.67-.02-1.331-.02-2.002-.03-.04 0-.08.02-.111.03-.01.531-.01 1.052-.01 1.573zm0-2.94c.04.01.06.03.08.03.58-.01 1.169-.01 1.748-.03a.885.885 0 0 0 .386-.113c.284-.133.406-.368.396-.674-.01-.307-.152-.521-.426-.623a2.162 2.162 0 0 0-.57-.112 33.02 33.02 0 0 0-1.422 0c-.06 0-.131.01-.203.02.01.5.01 1 .01 1.501zM4.885 11.32V6.94c.183-.052 1.25-.072 1.554-.021v7.27H5.09c-1.149-1.51-2.297-3.032-3.455-4.554-.02.01-.04.01-.05.02-.01.297 0 .603-.01.9V14.2H.05c-.051-.204-.061-6.995-.01-7.312h1.432c.569.756 1.138 1.501 1.696 2.247l1.676 2.206c.01 0 .03-.01.041-.02zM60.074 6.909h1.453a1254.87 1254.87 0 0 0 3.342 4.411c.02-.01.04-.01.05-.02.031-.276.011-.562.011-.848v-.888-.868-.889-.888c.528-.03 1.036-.01 1.554-.02V14.2c-.223.03-.436.01-.65.01h-.68l-1.158-1.532c-.387-.51-.762-1.02-1.159-1.521-.396-.51-.761-1.032-1.219-1.501V14.2h-1.533c-.041-.194-.061-6.934-.01-7.291zM38.58 14.2h-1.564V6.909c.08 0 .162-.01.254-.01h2.966c.467 0 .924.05 1.371.224.904.347 1.371 1.011 1.443 1.971.02.327.01.643-.072.96-.172.653-.579 1.123-1.178 1.43-.04.02-.091.04-.142.06-.04.021-.071.042-.142.072.579.858 1.158 1.706 1.727 2.553-.194.062-1.473.072-1.84.02-.507-.755-1.015-1.531-1.533-2.307h-1.26c-.03.255-.01.51-.02.766v.766c-.01.255-.01.5-.01.786zm.01-3.768c.03.01.061.02.081.02.559 0 1.118.01 1.676-.01.153 0 .305-.04.447-.092.447-.163.66-.51.65-.99-.01-.49-.284-.828-.741-.95a2.077 2.077 0 0 0-.498-.061c-.467-.01-.924 0-1.392 0-.06 0-.132.01-.213.02-.01.694-.01 1.379-.01 2.063zM24.166 17.294H25.8v2.992c1.036.01 2.032 0 3.068 0v-2.992h1.625c.051.184.071 7.015.02 7.516-.172.05-1.239.071-1.645.02-.01-.99 0-1.981 0-2.961-.193-.062-2.61-.082-3.058-.03-.02.316-.01.653-.01.98v2.021h-1.625c-.04-.183-.061-7.117-.01-7.546zM9.04 17.284h5.617c.06.174.071 1.174.01 1.46h-3.982v1.542h3.495c.06.204.06 1.185.01 1.481h-3.485c-.05.204-.07 1.154-.02 1.593.264.01.528 0 .792.01H14.738v1.46H9.05c-.041-.173-.061-7.117-.01-7.546zM9.537 11.249v1.521c.102.01.203.02.295.02H13.418c.06.195.07 1.053.03 1.39-.173.05-5.11.06-5.475.02l-.02-.02c0-.01-.01-.01-.01-.021 0-2.339-.01-4.677-.01-7.016V6.95c.202-.06 5.23-.06 5.464-.01v1.379c-.254.03-.497.01-.751.01H9.568c-.051.184-.071 1.134-.02 1.48.08 0 .172.011.264.021H12.94v1.4c-.091.01-.172.02-.264.02H9.537zM37.36 23.166h-3.2c-.233.561-.456 1.113-.69 1.664h-1.676c1.077-2.553 2.143-5.075 3.22-7.597h1.544c1.067 2.522 2.144 5.055 3.22 7.608h-1.727c-.233-.552-.457-1.103-.69-1.675zm-.629-1.491c-.081-.337-.884-2.257-1.006-2.4-.325.797-.65 1.583-.975 2.4h1.981zM60.491 23.778c.346-.418.66-.796.986-1.184.07.05.132.092.193.143.447.337.924.602 1.473.715.315.06.64.102.954.03.153-.04.315-.092.448-.173.385-.225.396-.858-.02-1.062a6.75 6.75 0 0 0-.895-.348c-.437-.143-.894-.265-1.33-.408a4.517 4.517 0 0 1-.508-.225c-.539-.296-.874-.745-.955-1.358-.173-1.205.386-2.083 1.371-2.492a2.87 2.87 0 0 1 .701-.194c1.148-.143 2.204.113 3.15.776.05.031.09.072.141.113.01.01.02.03.03.05-.273.4-.548.808-.842 1.226-.092-.061-.183-.112-.264-.163-.437-.276-.905-.5-1.433-.562-.305-.04-.61-.03-.894.113a.61.61 0 0 0-.325.765c.04.133.122.245.244.307.183.092.376.194.579.255.416.133.853.225 1.27.368.315.102.62.235.904.388.792.439 1.067 1.143.985 2.011-.091 1.032-.762 1.798-1.95 2.012-1.422.256-2.723-.092-3.86-1a.773.773 0 0 0-.153-.103zM33.938 6.909h1.575c0 .081.01.163.01.235v3.85c0 .449-.04.878-.173 1.306-.315 1.032-.995 1.675-2.052 1.91-.62.143-1.24.143-1.87.01-1.177-.255-1.96-1.052-2.163-2.246a6.12 6.12 0 0 1-.081-.96c-.01-1.307 0-2.625 0-3.932 0-.05.01-.102.01-.173.518-.031 1.036-.02 1.585-.01v4.003c0 .224.01.439.05.663.163.97.895 1.379 1.768 1.267.752-.092 1.178-.532 1.29-1.287.03-.194.04-.388.04-.582V7.215c.011-.112.011-.204.011-.306zM55.809 6.857c1.036 2.441 2.062 4.872 3.088 7.302-.203.061-1.179.082-1.646.03-.213-.52-.437-1.062-.66-1.592-.234-.052-2.845-.062-3.099-.01-.213.52-.436 1.061-.66 1.603h-1.564c.02-.184 2.793-6.812 3.068-7.343.487.01.965.01 1.473.01zm-1.717 4.29h1.93c-.325-.787-.62-1.563-.965-2.37-.335.807-.65 1.573-.965 2.37zM21.636 22.604l1.076 1.021c-.406.46-.853.827-1.412 1.052-1.097.429-2.194.44-3.28-.02-.915-.388-1.565-1.062-1.94-1.992-.509-1.235-.438-2.45.212-3.604.59-1.052 1.514-1.655 2.692-1.86.904-.152 1.788-.06 2.621.338.396.194.742.439 1.057.776-.346.398-.691.797-1.037 1.205a5.345 5.345 0 0 0-.314-.245c-.478-.368-.996-.602-1.605-.602-.813.01-1.453.357-1.85 1.062-.527.929-.507 1.878.072 2.777.477.735 1.188 1.021 2.062.93.569-.062 1.046-.327 1.473-.685.05-.05.112-.102.173-.153.01 0 .01 0 0 0zM58.328 22.614c.345.337.69.664 1.046 1.011-.203.245-.427.44-.67.623-.539.399-1.138.613-1.799.695-.71.092-1.401.03-2.072-.235-1.351-.552-2.123-1.583-2.357-3.013a3.879 3.879 0 0 1 .62-2.87c.63-.939 1.524-1.48 2.641-1.633.965-.133 1.89-.02 2.753.46.315.173.59.387.843.663-.345.398-.68.787-1.036 1.195-.102-.082-.183-.143-.264-.214-.366-.286-.762-.511-1.22-.593-1.076-.194-2.051.327-2.447 1.348-.376.98-.254 1.9.437 2.696.68.797 1.818.899 2.722.409.264-.133.528-.348.803-.542zM50.932 24.84h-1.625v-7.556c.538-.03 1.076-.01 1.625-.01v7.567zM71.96.945c-.041-.164-.082-.317-.132-.49 2.397-.623 4.754-.644 7.09.173 2.001.695 3.677 1.87 5.049 3.554-.173.092-.305.174-.468.266-.07-.072-.132-.133-.193-.205-1.026-1.113-2.214-2.022-3.596-2.655a10.927 10.927 0 0 0-3.585-.96c-1.372-.122-2.723-.05-4.054.307-.03.01-.06.01-.111.01z"/>
    <path fill="#000" fill-opacity=".5" d="M82.799 5.817c-.173.092-.295.163-.417.234-2.834-2.95-6.227-3.9-10.189-3.043-.08-.153-.101-.337-.111-.551 2.143-.541 4.266-.562 6.349.204 1.737.633 3.179 1.675 4.368 3.156zM72.67 5.029c-.04-.153-.08-.317-.131-.49 1.676-.43 3.311-.45 4.957.071 1.747.562 3.291 1.9 3.677 2.574-.142.091-.284.173-.426.265-2.215-2.41-4.957-3.033-8.076-2.42zM14.14 2.865c-.437-.644-.864-1.267-1.28-1.89-.02 0-.03.01-.051.01-.01.307 0 .624 0 .93v1.92h-.355c-.051-.174-.082-2.982-.031-3.625.061-.01.122-.01.193-.02h.203l1.341 2c.457-.683.884-1.327 1.32-1.98h.377c.05.204.06 3.38.01 3.625H15.5V.975c-.02 0-.03-.01-.05-.01a62.532 62.532 0 0 0-1.311 1.9zM28.808 2.446v1.4h-.366c-.05-.184-.06-3.33-.01-3.605.01-.01.03-.02.04-.02.61.01 1.22.01 1.83.03a.8.8 0 0 1 .334.102c.417.174.64.5.64.95 0 .449-.213.776-.63.96-.101.04-.203.071-.335.122.335.5.711.96 1.077 1.47-.183.031-.325.021-.488.01-.345-.469-.7-.928-1.046-1.398-.335-.02-.67-.02-1.046-.02zm.01-.408c.05.02.071.03.091.03.376 0 .762.01 1.138-.01.163-.01.335-.071.477-.143.255-.132.356-.377.346-.663-.02-.276-.163-.49-.417-.582a1.893 1.893 0 0 0-.467-.092c-.254-.01-.508 0-.762-.01h-.406c-.01.52-.01 1 0 1.47zM38.052 2.028c0-1.072.802-1.89 1.859-1.89 1.046 0 1.849.818 1.849 1.9 0 1.062-.813 1.88-1.86 1.88-1.076 0-1.858-.807-1.848-1.89zm3.28.01c-.03-.163-.04-.337-.09-.5-.173-.531-.519-.888-1.087-.99-.57-.103-1.057.07-1.413.54-.467.624-.375 1.573.194 2.084.314.286.7.419 1.117.357.782-.112 1.26-.694 1.28-1.49zM59.323 2.038c0-1.072.803-1.9 1.849-1.9 1.046 0 1.859.818 1.859 1.88 0 1.062-.813 1.89-1.849 1.89-1.067.01-1.859-.787-1.859-1.87zm3.271-.03c.01-.205-.04-.43-.132-.644-.244-.52-.65-.817-1.23-.847-.558-.03-.984.214-1.269.684a1.504 1.504 0 0 0-.213 1c.111 1.063 1.117 1.573 1.95 1.236.559-.214.894-.745.894-1.43zM25.689 3.917c-1.056 0-1.849-.796-1.849-1.879 0-1.062.803-1.889 1.849-1.9 1.046 0 1.849.808 1.849 1.88 0 1.082-.803 1.9-1.849 1.9zm-.01-3.39c-.6.01-1.026.296-1.28.837a1.518 1.518 0 0 0-.112.99c.173.94 1.168 1.471 2.022 1.053.487-.235.731-.644.802-1.164.112-.828-.467-1.736-1.432-1.716zM10.106 3.845h-2.61V.209h2.6v.348c-.233.03-.477.01-.721.02H7.932c-.07.184-.08.899-.03 1.246h1.93v.378h-1.94v1.297H10.096c.01.122.01.224.01.347zM54.965.577v1.246c.65.02 1.29 0 1.96.02V2.2h-1.95v1.297h2.204v.358H54.6c-.05-.184-.06-3.32-.01-3.626h2.58c0 .103.01.205.01.348-.253.03-.497.01-.741.01h-.711c-.244-.01-.488-.01-.762-.01zM6.145 2.232H4.032v1.603h-.365C3.616 3.672 3.596.63 3.657.22h.365c.04.266.01.531.02.797v.796h2.103V.22h.376c.05.174.071 3.135.02 3.615h-.386c-.01-.53-.01-1.052-.01-1.603zM17.542 2.906a39.07 39.07 0 0 1-.437.94h-.407c.549-1.226 1.087-2.43 1.636-3.646h.396c.538 1.195 1.087 2.4 1.636 3.635h-.437c-.132-.306-.274-.612-.407-.929h-1.98zm1.798-.388c-.082-.306-.701-1.675-.823-1.807a42.025 42.025 0 0 0-.793 1.807h1.616zM35.786.618c-.07.092-.132.183-.213.286a4.653 4.653 0 0 1-.234-.154 1.51 1.51 0 0 0-1.046-.214.708.708 0 0 0-.396.204c-.244.255-.214.644.091.827.132.082.295.133.447.184.142.051.295.072.437.112.173.052.335.113.498.184.335.153.528.419.528.797 0 .398-.173.704-.528.898a1.594 1.594 0 0 1-.813.164 2.054 2.054 0 0 1-1.371-.582c.081-.092.152-.184.233-.276.122.082.234.174.346.235.365.225.762.327 1.188.225a.935.935 0 0 0 .335-.164c.305-.255.275-.704-.08-.898-.194-.103-.407-.154-.62-.215-.265-.092-.539-.143-.793-.265-.61-.286-.569-1.022-.284-1.379.152-.184.345-.296.569-.368.538-.163 1.3-.01 1.706.399zM53.594 3.028c.08.082.152.154.213.225-.305.52-1.138.786-1.849.623-.772-.184-1.33-.837-1.402-1.675-.07-.827.386-1.603 1.118-1.91.731-.306 1.686-.091 2.102.45-.03.04-.06.082-.091.112-.04.051-.091.092-.152.154-.112-.082-.224-.174-.346-.246-.61-.388-1.391-.286-1.848.235-.498.572-.488 1.553.03 2.114.457.5 1.219.592 1.808.225.142-.092.254-.194.417-.307zM42.633.21h2.56c.01.06.02.122.02.173 0 .051-.01.102-.01.184-.721.03-1.432 0-2.144.02-.05.205-.06 1.022-.01 1.307h1.92v.378h-1.95v1.563c-.071.01-.132.03-.183.03-.06 0-.122 0-.173-.01-.06-.184-.08-3.084-.03-3.646zM48.616.22v.347c-.234.031-.467.01-.7.01H46.482c-.061.195-.071.95-.02 1.308.63.01 1.27 0 1.93.01v.368c-.64.01-1.28 0-1.94.01-.041.53.01 1.052-.031 1.572h-.376V.22h2.57zM64.31.577v1.307h1.94v.358c-.64.04-1.28 0-1.94.03-.03.266-.01.531-.02.787v.776h-.366c-.051-.184-.061-3.299-.01-3.626h2.56v.348c-.234.04-.468.01-.702.02H64.31zM20.123.21h.487c.396.592.803 1.194 1.23 1.827.426-.623.832-1.225 1.239-1.828h.457c-.061.092-.112.174-.163.246-.406.592-.802 1.174-1.209 1.766a.618.618 0 0 0-.122.398c.01.399 0 .797 0 1.216h-.386c-.01-.072-.02-.133-.02-.205 0-.326-.01-.663 0-.99a.683.683 0 0 0-.122-.398c-.406-.582-.792-1.165-1.198-1.747-.061-.081-.112-.173-.193-.286zM2.854.22v.358c-.396 0-.792.01-1.209.02v3.247H1.24V.608C.833.547.436.618.03.558V.22h2.824zM49.825 3.845c-.06 0-.112.01-.162.01-.051 0-.102-.01-.143-.01-.06-.183-.08-3.165-.03-3.625h.335c.04.194.051 3.36 0 3.625zM31.977 1.363a1.63 1.63 0 0 0-.06-.133c.162-.112.365-.184.334-.45-.05-.02-.101-.04-.172-.06V.23h.416c.071.194.051.653-.03.827-.082.163-.224.255-.488.306z"/>
</svg>
