<svg xmlns="http://www.w3.org/2000/svg" width="200" height="137" fill="none" viewBox="0 0 200 137">
    <g clip-path="url(#a)">
        <path fill="#FFD7ED" d="M97.456 98.826c-4.11 0-7.828-2.544-9.59-6.262C82.389 80.822 69.864 73.58 54.795 73.58c-11.545 0-22.504 4.305-30.136 11.742-1.37 1.37-3.523 2.153-5.676 2.153-2.152 0-4.305-.783-6.066-2.349-1.761-1.565-2.153-3.522-2.153-4.892-.195-2.349.783-5.088 2.348-6.85 6.459-7.24 9.59-16.047 9.002-25.636-.782-11.154-6.457-22.309-16.046-30.332-1.566-1.37-2.545-3.131-2.545-5.088 0-2.349.783-4.501 2.545-6.263 1.565-1.565 3.522-2.348 5.479-2.348 2.153 0 4.305.783 6.262 2.544 21.33 16.83 51.468 26.615 82.975 26.615 31.507 0 61.252-9.785 81.996-27.006 1.761-1.566 3.914-2.349 5.871-2.349 1.957 0 3.718.783 5.283 2.153 1.566 1.566 2.544 3.718 2.544 5.87.196 2.154-.587 4.306-2.152 5.676-16.83 15.264-27.397 37.77-27.984 60.274-.196 4.892-3.914 8.806-8.807 8.806a8.77 8.77 0 0 1-8.806-8.806c0-11.742-9.589-20.352-21.918-20.352-1.761 0-3.327.196-5.088.587-6.654 1.37-12.133 5.284-15.264 10.763-2.935 5.48-3.327 11.938-.979 18.2.979 2.544.783 5.284-.391 7.632-1.174 2.153-2.935 3.522-5.48 4.11-.587.195-1.37.39-2.152.39z"/>
        <path fill="#fff" d="M11.546 4.893c1.761 0 3.718.782 5.48 2.152 21.526 17.417 51.858 27.202 83.757 27.202 31.702 0 61.839-9.98 82.779-27.202 1.565-1.37 3.326-1.957 5.088-1.957 1.565 0 3.131.587 4.305 1.762 2.74 2.74 2.935 7.24.587 9.589-17.221 15.655-27.789 38.356-28.571 61.252-.196 4.305-3.327 7.436-7.437 7.436a7.433 7.433 0 0 1-7.436-7.436c0-12.525-10.176-21.722-23.288-21.722-1.761 0-3.522.196-5.284.587-7.045 1.37-12.915 5.48-16.242 11.546-3.131 5.87-3.523 12.72-.979 19.374.783 2.152.783 4.5-.195 6.458-.979 1.76-2.544 2.935-4.697 3.522-.587.196-1.37.196-1.957.196-3.523 0-6.85-2.153-8.415-5.48-5.675-12.133-18.787-19.765-34.246-19.765-11.938 0-23.288 4.501-31.116 12.133-1.174 1.174-2.935 1.762-4.697 1.762-1.957 0-3.718-.588-5.088-1.957-1.37-1.175-1.76-2.74-1.76-3.914-.197-2.153.586-4.306 1.956-5.675 6.85-7.437 9.98-16.635 9.393-26.615-.782-11.546-6.653-22.896-16.438-31.311-1.37-1.174-1.957-2.544-2.153-4.305 0-1.957.783-3.914 2.153-5.284 1.37-1.761 2.935-2.348 4.501-2.348zm0-2.74c-2.348 0-4.501.783-6.458 2.74-3.914 3.913-4.11 9.98 0 13.502 16.634 14.286 21.526 37.965 6.85 54.208-3.132 3.522-4.11 9.98 0 13.503 1.956 1.761 4.5 2.544 6.849 2.544 2.544 0 4.892-.979 6.653-2.544 7.632-7.632 18.396-11.35 29.159-11.35 13.307 0 26.223 5.87 31.898 18.2A12.043 12.043 0 0 0 97.456 100c.978 0 1.761-.195 2.74-.391 6.849-1.761 8.806-8.22 6.849-13.503-4.697-12.329 2.348-24.462 15.264-27.006 1.566-.391 3.131-.391 4.697-.391 10.959 0 20.548 7.632 20.744 19.178 0 5.675 4.5 10.176 10.176 10.176 5.675 0 9.98-4.501 10.176-10.176.587-22.114 11.154-44.423 27.593-59.296 3.718-3.718 3.131-9.785-.392-13.503-1.761-1.761-3.914-2.544-6.262-2.544-2.348 0-4.697.979-6.849 2.544-21.722 17.613-51.468 26.615-81.409 26.615-29.942 0-59.883-8.806-81.996-26.615-2.153-1.957-4.697-2.935-7.241-2.935z"/>
        <path fill="#B5191D" d="M11.546 2.153c2.348 0 4.892.978 7.045 2.74C40.509 22.7 70.646 31.506 100.587 31.506c29.941 0 59.883-8.806 81.213-26.615 2.153-1.76 4.501-2.544 6.85-2.544 2.152 0 4.501.783 6.262 2.544 3.718 3.719 4.11 9.785.391 13.503-16.438 14.873-27.006 36.987-27.593 59.296-.195 5.675-4.501 10.176-10.176 10.176s-10.176-4.501-10.176-10.176c0-11.546-9.589-19.178-20.744-19.178-1.565 0-3.131.195-4.696.391-12.916 2.544-19.961 14.873-15.264 27.006 1.957 5.284 0 11.937-6.85 13.503-.978.196-1.76.391-2.74.391-4.5 0-9.001-2.74-10.958-7.045-5.675-12.133-18.591-18.2-31.899-18.2-10.763 0-21.526 3.915-29.158 11.351-1.761 1.761-4.11 2.544-6.654 2.544-2.348 0-4.892-.783-6.849-2.544-4.11-3.522-3.131-9.98 0-13.503 14.677-16.243 9.785-39.922-6.85-54.207-4.109-3.523-3.913-9.59 0-13.503 2.349-1.566 4.697-2.544 6.85-2.544zm0-2.153C8.611 0 5.871 1.174 3.718 3.327 1.174 5.87-.196 9.197 0 12.329c.196 2.935 1.37 5.675 3.718 7.828 8.806 7.436 14.09 17.612 14.677 27.984.587 8.61-2.348 16.634-8.219 23.092-2.153 2.544-3.522 5.87-3.327 9.393.196 2.936 1.37 5.48 3.523 7.24 2.348 1.958 5.284 3.132 8.415 3.132 3.13 0 6.066-1.174 8.219-3.327 6.85-6.85 16.83-10.763 27.593-10.763 13.699 0 25.049 6.458 29.941 16.83 2.348 5.088 7.436 8.415 12.916 8.415.978 0 2.153-.196 3.131-.392 3.523-.783 6.262-2.935 7.828-6.066 1.565-3.131 1.761-7.045.391-10.372-1.957-5.284-1.761-10.568.783-15.069 2.544-4.696 7.241-7.827 12.916-9.002 1.37-.195 2.935-.39 4.305-.39 10.568 0 18.395 7.24 18.395 16.829 0 6.85 5.48 12.329 12.329 12.329 6.654 0 12.133-5.48 12.329-12.33.587-21.526 10.763-43.052 26.81-57.73 4.501-4.5 4.305-11.937-.391-16.633C194.129 1.174 191.389 0 188.454 0c-2.935 0-5.871 1.174-8.219 3.131-19.765 16.83-48.924 26.223-79.452 26.223-30.529 0-60.078-9.589-80.626-26.223C17.417 1.174 14.48 0 11.546 0z"/>
        <path stroke="#fff" stroke-linejoin="bevel" stroke-miterlimit="10" stroke-width="1.112" d="M86.497 65.949l23.679-1.761 6.849-20.353M40.705 35.42L28.963 13.7l-8.415 26.81 20.157-5.088zM18.787 66.145l25.44-5.284L32.29 79.844 18.787 66.145z"/>
        <path stroke="#fff" stroke-linejoin="bevel" stroke-miterlimit="10" stroke-width="1.112" d="M44.227 60.861l42.27 5.088-25.44 8.415-16.83-13.503z"/>
        <path stroke="#fff" stroke-linejoin="bevel" stroke-miterlimit="10" stroke-width="1.112" d="M20.548 40.509l23.679 20.352-3.522-25.44 37.377 8.415L100 33.66l17.025 10.176M86.497 65.95l16.83 13.502-20.157 6.85 3.327-20.353zM86.497 65.949l30.528-22.114M150.881 45.597l-23.679 11.741-10.177-13.503 38.944-21.722-5.088 23.484z"/>
        <path stroke="#fff" stroke-linejoin="bevel" stroke-miterlimit="10" stroke-width="1.112" d="M147.358 71.037l3.523-25.44-33.856-1.762"/>
        <path stroke="#fff" stroke-linejoin="bevel" stroke-miterlimit="10" stroke-width="1.112" d="M155.969 22.113l23.679 13.307-28.767 10.177 16.829 16.83-20.352 8.61M80.235 42.857L44.227 60.86M78.082 43.835h38.943"/>
        <path fill="#B5191D" d="M44.227 65.362a4.501 4.501 0 1 0 0-9.002 4.501 4.501 0 0 0 0 9.002z"/>
        <path fill="#fff" d="M44.227 57.339c1.957 0 3.327 1.565 3.327 3.327 0 1.956-1.566 3.326-3.327 3.326S40.9 62.427 40.9 60.666c-.195-1.762 1.37-3.327 3.327-3.327zm0-2.153c-3.131 0-5.48 2.544-5.48 5.48 0 3.13 2.545 5.479 5.48 5.479 2.935 0 5.48-2.544 5.48-5.48 0-2.935-2.545-5.479-5.48-5.479z"/>
        <path stroke="#fff" stroke-linejoin="bevel" stroke-miterlimit="10" stroke-width="1.112" d="M40.705 35.42l23.679-6.849 13.698 15.265"/>
        <path fill="#FCBD0B" d="M150.881 50.098a4.502 4.502 0 1 0-.001-9.003 4.502 4.502 0 0 0 .001 9.003z"/>
        <path fill="#fff" d="M150.881 42.27c1.957 0 3.326 1.566 3.326 3.327s-1.565 3.327-3.326 3.327c-1.762 0-3.327-1.566-3.327-3.327s1.37-3.327 3.327-3.327zm0-2.348c-3.131 0-5.48 2.544-5.48 5.48 0 2.935 2.544 5.479 5.48 5.479 2.935 0 5.479-2.544 5.479-5.48 0-2.935-2.544-5.48-5.479-5.48z"/>
        <path stroke="#fff" stroke-linejoin="bevel" stroke-miterlimit="10" stroke-width="1.112" d="M78.082 43.835l8.415 22.114"/>
        <path fill="#402B59" d="M40.705 39.921a4.501 4.501 0 1 0 0-9.002 4.501 4.501 0 0 0 0 9.002z"/>
        <path fill="#fff" d="M40.705 32.094c1.956 0 3.326 1.565 3.326 3.326 0 1.762-1.565 3.327-3.326 3.327-1.957 0-3.327-1.565-3.327-3.327 0-1.76 1.565-3.326 3.327-3.326zm0-2.153c-3.132 0-5.48 2.544-5.48 5.48 0 3.13 2.544 5.479 5.48 5.479 3.13 0 5.479-2.544 5.479-5.48.196-3.13-2.348-5.48-5.48-5.48z"/>
        <path fill="#402B59" d="M117.025 48.337a4.5 4.5 0 1 0 0-9.002 4.5 4.5 0 0 0 0 9.002z"/>
        <path fill="#fff" d="M117.025 40.51c1.957 0 3.327 1.565 3.327 3.326 0 1.761-1.565 3.327-3.327 3.327-1.761 0-3.522-1.37-3.522-3.327 0-1.957 1.565-3.327 3.522-3.327zm0-2.154c-3.131 0-5.479 2.544-5.479 5.48 0 3.131 2.544 5.48 5.479 5.48 2.936 0 5.48-2.545 5.48-5.48 0-2.935-2.544-5.48-5.48-5.48z"/>
        <path fill="#B5191D" d="M78.082 48.337a4.501 4.501 0 1 0 0-9.002 4.501 4.501 0 0 0 0 9.002z"/>
        <path fill="#fff" d="M78.082 40.51c1.957 0 3.327 1.565 3.327 3.326 0 1.761-1.566 3.327-3.327 3.327s-3.327-1.566-3.327-3.327 1.37-3.327 3.327-3.327zm0-2.154c-3.13 0-5.48 2.544-5.48 5.48 0 3.131 2.545 5.48 5.48 5.48 2.936 0 5.48-2.545 5.48-5.48 0-2.935-2.544-5.48-5.48-5.48z"/>
        <path fill="#FCBD0B" d="M86.497 70.45a4.501 4.501 0 1 0 0-9.002 4.501 4.501 0 0 0 0 9.002z"/>
        <path fill="#fff" d="M86.497 62.427c1.957 0 3.327 1.565 3.327 3.326 0 1.762-1.566 3.327-3.327 3.327-1.957 0-3.327-1.565-3.327-3.327 0-1.76 1.37-3.326 3.327-3.326zm0-2.153c-3.131 0-5.48 2.544-5.48 5.48 0 2.935 2.545 5.479 5.48 5.479 2.936 0 5.48-2.544 5.48-5.48 0-2.935-2.349-5.48-5.48-5.48z"/>
        <path fill="#000" d="M25.44 129.55c0 4.501-2.74 7.241-8.023 7.241h-5.284a3.926 3.926 0 0 1-3.914-3.914v-21.135s0-.196.196-.196h7.045c5.48 0 8.023 2.74 8.023 7.241 0 2.348-.587 3.914-1.957 4.892v.196c2.74.782 3.914 2.739 3.914 5.675zm-13.503-14.286v6.849s0 .196.196.196h3.914c2.544 0 4.5-2.348 3.914-4.697-.391-1.761-2.153-2.544-4.305-2.544l-3.719.196zm9.785 15.46c.587-2.348-1.37-4.697-3.914-4.697h-5.87s-.196 0-.196.196v6.849s0 .196.195.196h5.284c2.349 0 4.11-.783 4.501-2.544zM43.836 128.767H31.31c.392 2.935 2.936 4.501 5.284 4.501 3.522 0 5.48-1.761 5.48-1.761v3.522s-1.762 1.762-5.48 1.762c-5.48 0-9.002-3.523-9.002-9.002 0-5.48 3.523-9.002 8.023-9.002 4.501 0 8.024 3.522 8.024 9.002v.978h.196zm-12.525-2.74h8.61c-.586-2.348-2.152-3.522-4.305-3.522-2.152-.196-3.718.978-4.305 3.522zM52.25 122.309v10.763h5.48v3.523h-3.523c-3.522 0-5.479-1.761-5.479-5.48v-9.002H45.01v-3.522h3.522v-7.045h3.523v7.241h5.48v3.522H52.25zM77.886 118.787v18.004h-3.522v-7.241c0 4.501-1.761 7.241-5.48 7.241-4.5 0-8.023-3.523-8.023-9.002 0-5.48 3.523-9.002 8.024-9.002 3.522 0 5.479 2.739 5.479 7.24v-7.24h3.522zm-3.522 9.002c0-3.523-1.761-5.48-4.501-5.48s-5.48 1.761-5.48 5.48c0 3.522 2.74 5.479 5.48 5.479s4.501-1.957 4.501-5.479zM108.806 129.55c0 4.501-2.739 7.241-8.023 7.241h-8.806s-.196 0-.196-.196v-19.961c0-2.74 2.348-5.088 5.088-5.088h2.153c5.479 0 8.023 2.74 8.023 7.241 0 2.348-.587 3.914-1.957 4.892v.196c2.348.782 3.718 2.739 3.718 5.675zm-13.503-14.286v6.849s0 .196.196.196h3.914c2.544 0 4.501-2.348 3.914-4.697-.392-1.761-2.153-2.544-4.305-2.544l-3.719.196zm9.785 15.46c.587-2.348-1.37-4.697-3.914-4.697h-5.87s-.196 0-.196.196v6.849s0 .196.195.196h5.284c2.348 0 3.914-.783 4.501-2.544zM122.701 133.268v3.523h-10.764v-3.523h3.523v-18.004h-3.523v-3.718h2.153c2.74 0 5.088 2.153 5.088 5.088v16.634h3.523zM159.491 119.765v3.523s-2.74-.979-4.501-.979c-2.74 0-5.479 1.761-5.479 5.48 0 3.522 2.739 5.479 5.479 5.479 1.761 0 4.501-.978 4.501-.978v3.522s-1.761.979-4.501.979c-5.479 0-9.002-3.523-9.002-9.002 0-5.48 3.523-9.002 9.002-9.002 2.74 0 4.501.978 4.501.978zM171.624 127.789l7.241 9.002h-4.501l-3.523-4.501-1.174-1.957-2.544 3.131v3.327h-3.522v-25.245h3.522v17.221l3.523-5.479 3.522-4.501h4.501l-7.045 9.002zM185.519 136.791c-2.74 0-5.48-.979-5.48-.979v-3.522s2.74.978 5.48.978c1.761 0 2.739-.978 2.739-1.761 0-2.74-9.002-.979-9.002-7.241 0-3.522 2.74-5.479 6.263-5.479 2.739 0 5.479.978 5.479.978v3.523s-2.74-.979-5.479-.979c-1.762 0-2.74.979-2.74 1.761 0 2.74 9.002.979 9.002 7.241 0 3.718-2.74 5.48-6.262 5.48z"/>
        <path fill="#B5191D" d="M129.354 127.789c0 3.522 2.74 5.479 5.48 5.479 2.739 0 5.479-1.761 5.479-5.479 0-3.523-2.74-5.48-5.479-5.48-2.74 0-5.48 1.957-5.48 5.48z"/>
    </g>
    <defs>
        <clipPath id="a">
            <path fill="#fff" d="M0 0h200v136.791H0z"/>
        </clipPath>
    </defs>
</svg>
